G04 #@! TF.GenerationSoftware,KiCad,Pcbnew,(5.1.10)-1*
G04 #@! TF.CreationDate,2022-01-19T18:15:33-07:00*
G04 #@! TF.ProjectId,keypad,6b657970-6164-42e6-9b69-6361645f7063,rev?*
G04 #@! TF.SameCoordinates,Original*
G04 #@! TF.FileFunction,Soldermask,Top*
G04 #@! TF.FilePolarity,Negative*
%FSLAX46Y46*%
G04 Gerber Fmt 4.6, Leading zero omitted, Abs format (unit mm)*
G04 Created by KiCad (PCBNEW (5.1.10)-1) date 2022-01-19 18:15:33*
%MOMM*%
%LPD*%
G01*
G04 APERTURE LIST*
%ADD10C,1.750000*%
%ADD11C,3.987800*%
%ADD12C,3.200000*%
%ADD13C,1.600000*%
%ADD14R,1.600000X1.600000*%
G04 APERTURE END LIST*
D10*
X132715000Y-91440000D03*
X142875000Y-91440000D03*
D11*
X137795000Y-91440000D03*
D12*
X209550000Y-115570000D03*
X209545001Y-86025001D03*
X83820000Y-116840000D03*
X83820000Y-86360000D03*
D13*
X105410000Y-83820000D03*
X105410000Y-86360000D03*
X105410000Y-88900000D03*
X105410000Y-91440000D03*
X105410000Y-93980000D03*
X105410000Y-96520000D03*
X105410000Y-99060000D03*
X105410000Y-101600000D03*
X105410000Y-104140000D03*
X105410000Y-106680000D03*
X105410000Y-109220000D03*
X105410000Y-111760000D03*
X90170000Y-111760000D03*
X90170000Y-109220000D03*
X90170000Y-106680000D03*
X90170000Y-104140000D03*
X90170000Y-101600000D03*
X90170000Y-99060000D03*
X90170000Y-96520000D03*
X90170000Y-93980000D03*
X90170000Y-91440000D03*
X90170000Y-88900000D03*
X90170000Y-86360000D03*
D14*
X90170000Y-83820000D03*
D10*
X189865000Y-110490000D03*
X200025000Y-110490000D03*
D11*
X194945000Y-110490000D03*
D10*
X189865000Y-91440000D03*
X200025000Y-91440000D03*
D11*
X194945000Y-91440000D03*
D10*
X170815000Y-110490000D03*
X180975000Y-110490000D03*
D11*
X175895000Y-110490000D03*
D10*
X170815000Y-91440000D03*
X180975000Y-91440000D03*
D11*
X175895000Y-91440000D03*
D10*
X151765000Y-110490000D03*
X161925000Y-110490000D03*
D11*
X156845000Y-110490000D03*
D10*
X151765000Y-91440000D03*
X161925000Y-91440000D03*
D11*
X156845000Y-91440000D03*
D10*
X132715000Y-110490000D03*
X142875000Y-110490000D03*
D11*
X137795000Y-110490000D03*
D10*
X113665000Y-110490000D03*
X123825000Y-110490000D03*
D11*
X118745000Y-110490000D03*
D10*
X113665000Y-91440000D03*
X123825000Y-91440000D03*
D11*
X118745000Y-91440000D03*
M02*
