G04 #@! TF.GenerationSoftware,KiCad,Pcbnew,(5.1.10)-1*
G04 #@! TF.CreationDate,2022-01-19T18:15:33-07:00*
G04 #@! TF.ProjectId,keypad,6b657970-6164-42e6-9b69-6361645f7063,rev?*
G04 #@! TF.SameCoordinates,Original*
G04 #@! TF.FileFunction,Paste,Bot*
G04 #@! TF.FilePolarity,Positive*
%FSLAX46Y46*%
G04 Gerber Fmt 4.6, Leading zero omitted, Abs format (unit mm)*
G04 Created by KiCad (PCBNEW (5.1.10)-1) date 2022-01-19 18:15:33*
%MOMM*%
%LPD*%
G01*
G04 APERTURE LIST*
%ADD10R,0.900000X0.800000*%
%ADD11R,2.000000X1.500000*%
%ADD12R,2.000000X3.800000*%
G04 APERTURE END LIST*
D10*
X168275000Y-116840000D03*
X170275000Y-117790000D03*
X170275000Y-115890000D03*
G36*
G01*
X96970001Y-98302500D02*
X96069999Y-98302500D01*
G75*
G02*
X95820000Y-98052501I0J249999D01*
G01*
X95820000Y-97527499D01*
G75*
G02*
X96069999Y-97277500I249999J0D01*
G01*
X96970001Y-97277500D01*
G75*
G02*
X97220000Y-97527499I0J-249999D01*
G01*
X97220000Y-98052501D01*
G75*
G02*
X96970001Y-98302500I-249999J0D01*
G01*
G37*
G36*
G01*
X96970001Y-100127500D02*
X96069999Y-100127500D01*
G75*
G02*
X95820000Y-99877501I0J249999D01*
G01*
X95820000Y-99352499D01*
G75*
G02*
X96069999Y-99102500I249999J0D01*
G01*
X96970001Y-99102500D01*
G75*
G02*
X97220000Y-99352499I0J-249999D01*
G01*
X97220000Y-99877501D01*
G75*
G02*
X96970001Y-100127500I-249999J0D01*
G01*
G37*
G36*
G01*
X93467500Y-95700001D02*
X93467500Y-94799999D01*
G75*
G02*
X93717499Y-94550000I249999J0D01*
G01*
X94242501Y-94550000D01*
G75*
G02*
X94492500Y-94799999I0J-249999D01*
G01*
X94492500Y-95700001D01*
G75*
G02*
X94242501Y-95950000I-249999J0D01*
G01*
X93717499Y-95950000D01*
G75*
G02*
X93467500Y-95700001I0J249999D01*
G01*
G37*
G36*
G01*
X91642500Y-95700001D02*
X91642500Y-94799999D01*
G75*
G02*
X91892499Y-94550000I249999J0D01*
G01*
X92417501Y-94550000D01*
G75*
G02*
X92667500Y-94799999I0J-249999D01*
G01*
X92667500Y-95700001D01*
G75*
G02*
X92417501Y-95950000I-249999J0D01*
G01*
X91892499Y-95950000D01*
G75*
G02*
X91642500Y-95700001I0J249999D01*
G01*
G37*
G36*
G01*
X201337500Y-103320001D02*
X201337500Y-102419999D01*
G75*
G02*
X201587499Y-102170000I249999J0D01*
G01*
X202112501Y-102170000D01*
G75*
G02*
X202362500Y-102419999I0J-249999D01*
G01*
X202362500Y-103320001D01*
G75*
G02*
X202112501Y-103570000I-249999J0D01*
G01*
X201587499Y-103570000D01*
G75*
G02*
X201337500Y-103320001I0J249999D01*
G01*
G37*
G36*
G01*
X199512500Y-103320001D02*
X199512500Y-102419999D01*
G75*
G02*
X199762499Y-102170000I249999J0D01*
G01*
X200287501Y-102170000D01*
G75*
G02*
X200537500Y-102419999I0J-249999D01*
G01*
X200537500Y-103320001D01*
G75*
G02*
X200287501Y-103570000I-249999J0D01*
G01*
X199762499Y-103570000D01*
G75*
G02*
X199512500Y-103320001I0J249999D01*
G01*
G37*
G36*
G01*
X201337500Y-84905001D02*
X201337500Y-84004999D01*
G75*
G02*
X201587499Y-83755000I249999J0D01*
G01*
X202112501Y-83755000D01*
G75*
G02*
X202362500Y-84004999I0J-249999D01*
G01*
X202362500Y-84905001D01*
G75*
G02*
X202112501Y-85155000I-249999J0D01*
G01*
X201587499Y-85155000D01*
G75*
G02*
X201337500Y-84905001I0J249999D01*
G01*
G37*
G36*
G01*
X199512500Y-84905001D02*
X199512500Y-84004999D01*
G75*
G02*
X199762499Y-83755000I249999J0D01*
G01*
X200287501Y-83755000D01*
G75*
G02*
X200537500Y-84004999I0J-249999D01*
G01*
X200537500Y-84905001D01*
G75*
G02*
X200287501Y-85155000I-249999J0D01*
G01*
X199762499Y-85155000D01*
G75*
G02*
X199512500Y-84905001I0J249999D01*
G01*
G37*
G36*
G01*
X181732500Y-103955001D02*
X181732500Y-103054999D01*
G75*
G02*
X181982499Y-102805000I249999J0D01*
G01*
X182507501Y-102805000D01*
G75*
G02*
X182757500Y-103054999I0J-249999D01*
G01*
X182757500Y-103955001D01*
G75*
G02*
X182507501Y-104205000I-249999J0D01*
G01*
X181982499Y-104205000D01*
G75*
G02*
X181732500Y-103955001I0J249999D01*
G01*
G37*
G36*
G01*
X179907500Y-103955001D02*
X179907500Y-103054999D01*
G75*
G02*
X180157499Y-102805000I249999J0D01*
G01*
X180682501Y-102805000D01*
G75*
G02*
X180932500Y-103054999I0J-249999D01*
G01*
X180932500Y-103955001D01*
G75*
G02*
X180682501Y-104205000I-249999J0D01*
G01*
X180157499Y-104205000D01*
G75*
G02*
X179907500Y-103955001I0J249999D01*
G01*
G37*
G36*
G01*
X182287500Y-84905001D02*
X182287500Y-84004999D01*
G75*
G02*
X182537499Y-83755000I249999J0D01*
G01*
X183062501Y-83755000D01*
G75*
G02*
X183312500Y-84004999I0J-249999D01*
G01*
X183312500Y-84905001D01*
G75*
G02*
X183062501Y-85155000I-249999J0D01*
G01*
X182537499Y-85155000D01*
G75*
G02*
X182287500Y-84905001I0J249999D01*
G01*
G37*
G36*
G01*
X180462500Y-84905001D02*
X180462500Y-84004999D01*
G75*
G02*
X180712499Y-83755000I249999J0D01*
G01*
X181237501Y-83755000D01*
G75*
G02*
X181487500Y-84004999I0J-249999D01*
G01*
X181487500Y-84905001D01*
G75*
G02*
X181237501Y-85155000I-249999J0D01*
G01*
X180712499Y-85155000D01*
G75*
G02*
X180462500Y-84905001I0J249999D01*
G01*
G37*
G36*
G01*
X162602500Y-103955001D02*
X162602500Y-103054999D01*
G75*
G02*
X162852499Y-102805000I249999J0D01*
G01*
X163377501Y-102805000D01*
G75*
G02*
X163627500Y-103054999I0J-249999D01*
G01*
X163627500Y-103955001D01*
G75*
G02*
X163377501Y-104205000I-249999J0D01*
G01*
X162852499Y-104205000D01*
G75*
G02*
X162602500Y-103955001I0J249999D01*
G01*
G37*
G36*
G01*
X160777500Y-103955001D02*
X160777500Y-103054999D01*
G75*
G02*
X161027499Y-102805000I249999J0D01*
G01*
X161552501Y-102805000D01*
G75*
G02*
X161802500Y-103054999I0J-249999D01*
G01*
X161802500Y-103955001D01*
G75*
G02*
X161552501Y-104205000I-249999J0D01*
G01*
X161027499Y-104205000D01*
G75*
G02*
X160777500Y-103955001I0J249999D01*
G01*
G37*
G36*
G01*
X163317500Y-84905001D02*
X163317500Y-84004999D01*
G75*
G02*
X163567499Y-83755000I249999J0D01*
G01*
X164092501Y-83755000D01*
G75*
G02*
X164342500Y-84004999I0J-249999D01*
G01*
X164342500Y-84905001D01*
G75*
G02*
X164092501Y-85155000I-249999J0D01*
G01*
X163567499Y-85155000D01*
G75*
G02*
X163317500Y-84905001I0J249999D01*
G01*
G37*
G36*
G01*
X161492500Y-84905001D02*
X161492500Y-84004999D01*
G75*
G02*
X161742499Y-83755000I249999J0D01*
G01*
X162267501Y-83755000D01*
G75*
G02*
X162517500Y-84004999I0J-249999D01*
G01*
X162517500Y-84905001D01*
G75*
G02*
X162267501Y-85155000I-249999J0D01*
G01*
X161742499Y-85155000D01*
G75*
G02*
X161492500Y-84905001I0J249999D01*
G01*
G37*
G36*
G01*
X143632500Y-104590001D02*
X143632500Y-103689999D01*
G75*
G02*
X143882499Y-103440000I249999J0D01*
G01*
X144407501Y-103440000D01*
G75*
G02*
X144657500Y-103689999I0J-249999D01*
G01*
X144657500Y-104590001D01*
G75*
G02*
X144407501Y-104840000I-249999J0D01*
G01*
X143882499Y-104840000D01*
G75*
G02*
X143632500Y-104590001I0J249999D01*
G01*
G37*
G36*
G01*
X141807500Y-104590001D02*
X141807500Y-103689999D01*
G75*
G02*
X142057499Y-103440000I249999J0D01*
G01*
X142582501Y-103440000D01*
G75*
G02*
X142832500Y-103689999I0J-249999D01*
G01*
X142832500Y-104590001D01*
G75*
G02*
X142582501Y-104840000I-249999J0D01*
G01*
X142057499Y-104840000D01*
G75*
G02*
X141807500Y-104590001I0J249999D01*
G01*
G37*
G36*
G01*
X143632500Y-84905001D02*
X143632500Y-84004999D01*
G75*
G02*
X143882499Y-83755000I249999J0D01*
G01*
X144407501Y-83755000D01*
G75*
G02*
X144657500Y-84004999I0J-249999D01*
G01*
X144657500Y-84905001D01*
G75*
G02*
X144407501Y-85155000I-249999J0D01*
G01*
X143882499Y-85155000D01*
G75*
G02*
X143632500Y-84905001I0J249999D01*
G01*
G37*
G36*
G01*
X141807500Y-84905001D02*
X141807500Y-84004999D01*
G75*
G02*
X142057499Y-83755000I249999J0D01*
G01*
X142582501Y-83755000D01*
G75*
G02*
X142832500Y-84004999I0J-249999D01*
G01*
X142832500Y-84905001D01*
G75*
G02*
X142582501Y-85155000I-249999J0D01*
G01*
X142057499Y-85155000D01*
G75*
G02*
X141807500Y-84905001I0J249999D01*
G01*
G37*
G36*
G01*
X124582500Y-104590001D02*
X124582500Y-103689999D01*
G75*
G02*
X124832499Y-103440000I249999J0D01*
G01*
X125357501Y-103440000D01*
G75*
G02*
X125607500Y-103689999I0J-249999D01*
G01*
X125607500Y-104590001D01*
G75*
G02*
X125357501Y-104840000I-249999J0D01*
G01*
X124832499Y-104840000D01*
G75*
G02*
X124582500Y-104590001I0J249999D01*
G01*
G37*
G36*
G01*
X122757500Y-104590001D02*
X122757500Y-103689999D01*
G75*
G02*
X123007499Y-103440000I249999J0D01*
G01*
X123532501Y-103440000D01*
G75*
G02*
X123782500Y-103689999I0J-249999D01*
G01*
X123782500Y-104590001D01*
G75*
G02*
X123532501Y-104840000I-249999J0D01*
G01*
X123007499Y-104840000D01*
G75*
G02*
X122757500Y-104590001I0J249999D01*
G01*
G37*
G36*
G01*
X125137500Y-84905001D02*
X125137500Y-84004999D01*
G75*
G02*
X125387499Y-83755000I249999J0D01*
G01*
X125912501Y-83755000D01*
G75*
G02*
X126162500Y-84004999I0J-249999D01*
G01*
X126162500Y-84905001D01*
G75*
G02*
X125912501Y-85155000I-249999J0D01*
G01*
X125387499Y-85155000D01*
G75*
G02*
X125137500Y-84905001I0J249999D01*
G01*
G37*
G36*
G01*
X123312500Y-84905001D02*
X123312500Y-84004999D01*
G75*
G02*
X123562499Y-83755000I249999J0D01*
G01*
X124087501Y-83755000D01*
G75*
G02*
X124337500Y-84004999I0J-249999D01*
G01*
X124337500Y-84905001D01*
G75*
G02*
X124087501Y-85155000I-249999J0D01*
G01*
X123562499Y-85155000D01*
G75*
G02*
X123312500Y-84905001I0J249999D01*
G01*
G37*
D11*
X94640000Y-91200000D03*
X94640000Y-86600000D03*
X94640000Y-88900000D03*
D12*
X100940000Y-88900000D03*
D10*
X187230000Y-116520000D03*
X189230000Y-117470000D03*
X189230000Y-115570000D03*
X187230000Y-97470000D03*
X189230000Y-98420000D03*
X189230000Y-96520000D03*
X168180000Y-97470000D03*
X170180000Y-98420000D03*
X170180000Y-96520000D03*
X149130000Y-116520000D03*
X151130000Y-117470000D03*
X151130000Y-115570000D03*
X149130000Y-97470000D03*
X151130000Y-98420000D03*
X151130000Y-96520000D03*
X130080000Y-116520000D03*
X132080000Y-117470000D03*
X132080000Y-115570000D03*
X130080000Y-97470000D03*
X132080000Y-98420000D03*
X132080000Y-96520000D03*
X111030000Y-116520000D03*
X113030000Y-117470000D03*
X113030000Y-115570000D03*
X111030000Y-97470000D03*
X113030000Y-98420000D03*
X113030000Y-96520000D03*
M02*
