M48
; DRILL file {KiCad (5.1.10)-1} date 01/19/22 18:15:36
; FORMAT={-:-/ absolute / metric / decimal}
; #@! TF.CreationDate,2022-01-19T18:15:36-07:00
; #@! TF.GenerationSoftware,Kicad,Pcbnew,(5.1.10)-1
; #@! TF.FileFunction,NonPlated,1,2,NPTH
FMAT,2
METRIC
T1C1.750
T2C3.200
T3C3.988
%
G90
G05
T1
X113.665Y-91.44
X113.665Y-110.49
X123.825Y-91.44
X123.825Y-110.49
X132.715Y-91.44
X132.715Y-110.49
X142.875Y-91.44
X142.875Y-110.49
X151.765Y-91.44
X151.765Y-110.49
X161.925Y-91.44
X161.925Y-110.49
X170.815Y-91.44
X170.815Y-110.49
X180.975Y-91.44
X180.975Y-110.49
X189.865Y-91.44
X189.865Y-110.49
X200.025Y-91.44
X200.025Y-110.49
T2
X83.82Y-86.36
X83.82Y-116.84
X209.545Y-86.025
X209.55Y-115.57
T3
X118.745Y-91.44
X118.745Y-110.49
X137.795Y-91.44
X137.795Y-110.49
X156.845Y-91.44
X156.845Y-110.49
X175.895Y-91.44
X175.895Y-110.49
X194.945Y-91.44
X194.945Y-110.49
T0
M30
