G04 #@! TF.GenerationSoftware,KiCad,Pcbnew,(5.1.10)-1*
G04 #@! TF.CreationDate,2022-01-19T18:15:33-07:00*
G04 #@! TF.ProjectId,keypad,6b657970-6164-42e6-9b69-6361645f7063,rev?*
G04 #@! TF.SameCoordinates,Original*
G04 #@! TF.FileFunction,Soldermask,Bot*
G04 #@! TF.FilePolarity,Negative*
%FSLAX46Y46*%
G04 Gerber Fmt 4.6, Leading zero omitted, Abs format (unit mm)*
G04 Created by KiCad (PCBNEW (5.1.10)-1) date 2022-01-19 18:15:33*
%MOMM*%
%LPD*%
G01*
G04 APERTURE LIST*
%ADD10C,1.750000*%
%ADD11R,1.905000X1.905000*%
%ADD12C,1.905000*%
%ADD13C,2.250000*%
%ADD14C,3.987800*%
%ADD15R,0.900000X0.800000*%
%ADD16C,3.200000*%
%ADD17C,1.600000*%
%ADD18R,1.600000X1.600000*%
%ADD19R,2.000000X1.500000*%
%ADD20R,2.000000X3.800000*%
%ADD21C,0.100000*%
G04 APERTURE END LIST*
D10*
X132715000Y-91440000D03*
X142875000Y-91440000D03*
D11*
X136525000Y-86360000D03*
D12*
X139065000Y-86360000D03*
D13*
X141605000Y-93980000D03*
D14*
X137795000Y-91440000D03*
D13*
X135255000Y-96520000D03*
D15*
X168275000Y-116840000D03*
X170275000Y-117790000D03*
X170275000Y-115890000D03*
D16*
X209550000Y-115570000D03*
X209545001Y-86025001D03*
X83820000Y-116840000D03*
X83820000Y-86360000D03*
D17*
X105410000Y-83820000D03*
X105410000Y-86360000D03*
X105410000Y-88900000D03*
X105410000Y-91440000D03*
X105410000Y-93980000D03*
X105410000Y-96520000D03*
X105410000Y-99060000D03*
X105410000Y-101600000D03*
X105410000Y-104140000D03*
X105410000Y-106680000D03*
X105410000Y-109220000D03*
X105410000Y-111760000D03*
X90170000Y-111760000D03*
X90170000Y-109220000D03*
X90170000Y-106680000D03*
X90170000Y-104140000D03*
X90170000Y-101600000D03*
X90170000Y-99060000D03*
X90170000Y-96520000D03*
X90170000Y-93980000D03*
X90170000Y-91440000D03*
X90170000Y-88900000D03*
X90170000Y-86360000D03*
D18*
X90170000Y-83820000D03*
G36*
G01*
X96970001Y-98302500D02*
X96069999Y-98302500D01*
G75*
G02*
X95820000Y-98052501I0J249999D01*
G01*
X95820000Y-97527499D01*
G75*
G02*
X96069999Y-97277500I249999J0D01*
G01*
X96970001Y-97277500D01*
G75*
G02*
X97220000Y-97527499I0J-249999D01*
G01*
X97220000Y-98052501D01*
G75*
G02*
X96970001Y-98302500I-249999J0D01*
G01*
G37*
G36*
G01*
X96970001Y-100127500D02*
X96069999Y-100127500D01*
G75*
G02*
X95820000Y-99877501I0J249999D01*
G01*
X95820000Y-99352499D01*
G75*
G02*
X96069999Y-99102500I249999J0D01*
G01*
X96970001Y-99102500D01*
G75*
G02*
X97220000Y-99352499I0J-249999D01*
G01*
X97220000Y-99877501D01*
G75*
G02*
X96970001Y-100127500I-249999J0D01*
G01*
G37*
G36*
G01*
X93467500Y-95700001D02*
X93467500Y-94799999D01*
G75*
G02*
X93717499Y-94550000I249999J0D01*
G01*
X94242501Y-94550000D01*
G75*
G02*
X94492500Y-94799999I0J-249999D01*
G01*
X94492500Y-95700001D01*
G75*
G02*
X94242501Y-95950000I-249999J0D01*
G01*
X93717499Y-95950000D01*
G75*
G02*
X93467500Y-95700001I0J249999D01*
G01*
G37*
G36*
G01*
X91642500Y-95700001D02*
X91642500Y-94799999D01*
G75*
G02*
X91892499Y-94550000I249999J0D01*
G01*
X92417501Y-94550000D01*
G75*
G02*
X92667500Y-94799999I0J-249999D01*
G01*
X92667500Y-95700001D01*
G75*
G02*
X92417501Y-95950000I-249999J0D01*
G01*
X91892499Y-95950000D01*
G75*
G02*
X91642500Y-95700001I0J249999D01*
G01*
G37*
G36*
G01*
X201337500Y-103320001D02*
X201337500Y-102419999D01*
G75*
G02*
X201587499Y-102170000I249999J0D01*
G01*
X202112501Y-102170000D01*
G75*
G02*
X202362500Y-102419999I0J-249999D01*
G01*
X202362500Y-103320001D01*
G75*
G02*
X202112501Y-103570000I-249999J0D01*
G01*
X201587499Y-103570000D01*
G75*
G02*
X201337500Y-103320001I0J249999D01*
G01*
G37*
G36*
G01*
X199512500Y-103320001D02*
X199512500Y-102419999D01*
G75*
G02*
X199762499Y-102170000I249999J0D01*
G01*
X200287501Y-102170000D01*
G75*
G02*
X200537500Y-102419999I0J-249999D01*
G01*
X200537500Y-103320001D01*
G75*
G02*
X200287501Y-103570000I-249999J0D01*
G01*
X199762499Y-103570000D01*
G75*
G02*
X199512500Y-103320001I0J249999D01*
G01*
G37*
G36*
G01*
X201337500Y-84905001D02*
X201337500Y-84004999D01*
G75*
G02*
X201587499Y-83755000I249999J0D01*
G01*
X202112501Y-83755000D01*
G75*
G02*
X202362500Y-84004999I0J-249999D01*
G01*
X202362500Y-84905001D01*
G75*
G02*
X202112501Y-85155000I-249999J0D01*
G01*
X201587499Y-85155000D01*
G75*
G02*
X201337500Y-84905001I0J249999D01*
G01*
G37*
G36*
G01*
X199512500Y-84905001D02*
X199512500Y-84004999D01*
G75*
G02*
X199762499Y-83755000I249999J0D01*
G01*
X200287501Y-83755000D01*
G75*
G02*
X200537500Y-84004999I0J-249999D01*
G01*
X200537500Y-84905001D01*
G75*
G02*
X200287501Y-85155000I-249999J0D01*
G01*
X199762499Y-85155000D01*
G75*
G02*
X199512500Y-84905001I0J249999D01*
G01*
G37*
G36*
G01*
X181732500Y-103955001D02*
X181732500Y-103054999D01*
G75*
G02*
X181982499Y-102805000I249999J0D01*
G01*
X182507501Y-102805000D01*
G75*
G02*
X182757500Y-103054999I0J-249999D01*
G01*
X182757500Y-103955001D01*
G75*
G02*
X182507501Y-104205000I-249999J0D01*
G01*
X181982499Y-104205000D01*
G75*
G02*
X181732500Y-103955001I0J249999D01*
G01*
G37*
G36*
G01*
X179907500Y-103955001D02*
X179907500Y-103054999D01*
G75*
G02*
X180157499Y-102805000I249999J0D01*
G01*
X180682501Y-102805000D01*
G75*
G02*
X180932500Y-103054999I0J-249999D01*
G01*
X180932500Y-103955001D01*
G75*
G02*
X180682501Y-104205000I-249999J0D01*
G01*
X180157499Y-104205000D01*
G75*
G02*
X179907500Y-103955001I0J249999D01*
G01*
G37*
G36*
G01*
X182287500Y-84905001D02*
X182287500Y-84004999D01*
G75*
G02*
X182537499Y-83755000I249999J0D01*
G01*
X183062501Y-83755000D01*
G75*
G02*
X183312500Y-84004999I0J-249999D01*
G01*
X183312500Y-84905001D01*
G75*
G02*
X183062501Y-85155000I-249999J0D01*
G01*
X182537499Y-85155000D01*
G75*
G02*
X182287500Y-84905001I0J249999D01*
G01*
G37*
G36*
G01*
X180462500Y-84905001D02*
X180462500Y-84004999D01*
G75*
G02*
X180712499Y-83755000I249999J0D01*
G01*
X181237501Y-83755000D01*
G75*
G02*
X181487500Y-84004999I0J-249999D01*
G01*
X181487500Y-84905001D01*
G75*
G02*
X181237501Y-85155000I-249999J0D01*
G01*
X180712499Y-85155000D01*
G75*
G02*
X180462500Y-84905001I0J249999D01*
G01*
G37*
G36*
G01*
X162602500Y-103955001D02*
X162602500Y-103054999D01*
G75*
G02*
X162852499Y-102805000I249999J0D01*
G01*
X163377501Y-102805000D01*
G75*
G02*
X163627500Y-103054999I0J-249999D01*
G01*
X163627500Y-103955001D01*
G75*
G02*
X163377501Y-104205000I-249999J0D01*
G01*
X162852499Y-104205000D01*
G75*
G02*
X162602500Y-103955001I0J249999D01*
G01*
G37*
G36*
G01*
X160777500Y-103955001D02*
X160777500Y-103054999D01*
G75*
G02*
X161027499Y-102805000I249999J0D01*
G01*
X161552501Y-102805000D01*
G75*
G02*
X161802500Y-103054999I0J-249999D01*
G01*
X161802500Y-103955001D01*
G75*
G02*
X161552501Y-104205000I-249999J0D01*
G01*
X161027499Y-104205000D01*
G75*
G02*
X160777500Y-103955001I0J249999D01*
G01*
G37*
G36*
G01*
X163317500Y-84905001D02*
X163317500Y-84004999D01*
G75*
G02*
X163567499Y-83755000I249999J0D01*
G01*
X164092501Y-83755000D01*
G75*
G02*
X164342500Y-84004999I0J-249999D01*
G01*
X164342500Y-84905001D01*
G75*
G02*
X164092501Y-85155000I-249999J0D01*
G01*
X163567499Y-85155000D01*
G75*
G02*
X163317500Y-84905001I0J249999D01*
G01*
G37*
G36*
G01*
X161492500Y-84905001D02*
X161492500Y-84004999D01*
G75*
G02*
X161742499Y-83755000I249999J0D01*
G01*
X162267501Y-83755000D01*
G75*
G02*
X162517500Y-84004999I0J-249999D01*
G01*
X162517500Y-84905001D01*
G75*
G02*
X162267501Y-85155000I-249999J0D01*
G01*
X161742499Y-85155000D01*
G75*
G02*
X161492500Y-84905001I0J249999D01*
G01*
G37*
G36*
G01*
X143632500Y-104590001D02*
X143632500Y-103689999D01*
G75*
G02*
X143882499Y-103440000I249999J0D01*
G01*
X144407501Y-103440000D01*
G75*
G02*
X144657500Y-103689999I0J-249999D01*
G01*
X144657500Y-104590001D01*
G75*
G02*
X144407501Y-104840000I-249999J0D01*
G01*
X143882499Y-104840000D01*
G75*
G02*
X143632500Y-104590001I0J249999D01*
G01*
G37*
G36*
G01*
X141807500Y-104590001D02*
X141807500Y-103689999D01*
G75*
G02*
X142057499Y-103440000I249999J0D01*
G01*
X142582501Y-103440000D01*
G75*
G02*
X142832500Y-103689999I0J-249999D01*
G01*
X142832500Y-104590001D01*
G75*
G02*
X142582501Y-104840000I-249999J0D01*
G01*
X142057499Y-104840000D01*
G75*
G02*
X141807500Y-104590001I0J249999D01*
G01*
G37*
G36*
G01*
X143632500Y-84905001D02*
X143632500Y-84004999D01*
G75*
G02*
X143882499Y-83755000I249999J0D01*
G01*
X144407501Y-83755000D01*
G75*
G02*
X144657500Y-84004999I0J-249999D01*
G01*
X144657500Y-84905001D01*
G75*
G02*
X144407501Y-85155000I-249999J0D01*
G01*
X143882499Y-85155000D01*
G75*
G02*
X143632500Y-84905001I0J249999D01*
G01*
G37*
G36*
G01*
X141807500Y-84905001D02*
X141807500Y-84004999D01*
G75*
G02*
X142057499Y-83755000I249999J0D01*
G01*
X142582501Y-83755000D01*
G75*
G02*
X142832500Y-84004999I0J-249999D01*
G01*
X142832500Y-84905001D01*
G75*
G02*
X142582501Y-85155000I-249999J0D01*
G01*
X142057499Y-85155000D01*
G75*
G02*
X141807500Y-84905001I0J249999D01*
G01*
G37*
G36*
G01*
X124582500Y-104590001D02*
X124582500Y-103689999D01*
G75*
G02*
X124832499Y-103440000I249999J0D01*
G01*
X125357501Y-103440000D01*
G75*
G02*
X125607500Y-103689999I0J-249999D01*
G01*
X125607500Y-104590001D01*
G75*
G02*
X125357501Y-104840000I-249999J0D01*
G01*
X124832499Y-104840000D01*
G75*
G02*
X124582500Y-104590001I0J249999D01*
G01*
G37*
G36*
G01*
X122757500Y-104590001D02*
X122757500Y-103689999D01*
G75*
G02*
X123007499Y-103440000I249999J0D01*
G01*
X123532501Y-103440000D01*
G75*
G02*
X123782500Y-103689999I0J-249999D01*
G01*
X123782500Y-104590001D01*
G75*
G02*
X123532501Y-104840000I-249999J0D01*
G01*
X123007499Y-104840000D01*
G75*
G02*
X122757500Y-104590001I0J249999D01*
G01*
G37*
G36*
G01*
X125137500Y-84905001D02*
X125137500Y-84004999D01*
G75*
G02*
X125387499Y-83755000I249999J0D01*
G01*
X125912501Y-83755000D01*
G75*
G02*
X126162500Y-84004999I0J-249999D01*
G01*
X126162500Y-84905001D01*
G75*
G02*
X125912501Y-85155000I-249999J0D01*
G01*
X125387499Y-85155000D01*
G75*
G02*
X125137500Y-84905001I0J249999D01*
G01*
G37*
G36*
G01*
X123312500Y-84905001D02*
X123312500Y-84004999D01*
G75*
G02*
X123562499Y-83755000I249999J0D01*
G01*
X124087501Y-83755000D01*
G75*
G02*
X124337500Y-84004999I0J-249999D01*
G01*
X124337500Y-84905001D01*
G75*
G02*
X124087501Y-85155000I-249999J0D01*
G01*
X123562499Y-85155000D01*
G75*
G02*
X123312500Y-84905001I0J249999D01*
G01*
G37*
D19*
X94640000Y-91200000D03*
X94640000Y-86600000D03*
X94640000Y-88900000D03*
D20*
X100940000Y-88900000D03*
D10*
X189865000Y-110490000D03*
X200025000Y-110490000D03*
D11*
X193675000Y-105410000D03*
D12*
X196215000Y-105410000D03*
D13*
X198755000Y-113030000D03*
D14*
X194945000Y-110490000D03*
D13*
X192405000Y-115570000D03*
D10*
X189865000Y-91440000D03*
X200025000Y-91440000D03*
D11*
X193675000Y-86360000D03*
D12*
X196215000Y-86360000D03*
D13*
X198755000Y-93980000D03*
D14*
X194945000Y-91440000D03*
D13*
X192405000Y-96520000D03*
D10*
X170815000Y-110490000D03*
X180975000Y-110490000D03*
D11*
X174625000Y-105410000D03*
D12*
X177165000Y-105410000D03*
D13*
X179705000Y-113030000D03*
D14*
X175895000Y-110490000D03*
D13*
X173355000Y-115570000D03*
D10*
X170815000Y-91440000D03*
X180975000Y-91440000D03*
D11*
X174625000Y-86360000D03*
D12*
X177165000Y-86360000D03*
D13*
X179705000Y-93980000D03*
D14*
X175895000Y-91440000D03*
D13*
X173355000Y-96520000D03*
D10*
X151765000Y-110490000D03*
X161925000Y-110490000D03*
D11*
X155575000Y-105410000D03*
D12*
X158115000Y-105410000D03*
D13*
X160655000Y-113030000D03*
D14*
X156845000Y-110490000D03*
D13*
X154305000Y-115570000D03*
D10*
X151765000Y-91440000D03*
X161925000Y-91440000D03*
D11*
X155575000Y-86360000D03*
D12*
X158115000Y-86360000D03*
D13*
X160655000Y-93980000D03*
D14*
X156845000Y-91440000D03*
D13*
X154305000Y-96520000D03*
D10*
X132715000Y-110490000D03*
X142875000Y-110490000D03*
D11*
X136525000Y-105410000D03*
D12*
X139065000Y-105410000D03*
D13*
X141605000Y-113030000D03*
D14*
X137795000Y-110490000D03*
D13*
X135255000Y-115570000D03*
D10*
X113665000Y-110490000D03*
X123825000Y-110490000D03*
D11*
X117475000Y-105410000D03*
D12*
X120015000Y-105410000D03*
D13*
X122555000Y-113030000D03*
D14*
X118745000Y-110490000D03*
D13*
X116205000Y-115570000D03*
D10*
X113665000Y-91440000D03*
X123825000Y-91440000D03*
D11*
X117475000Y-86360000D03*
D12*
X120015000Y-86360000D03*
D13*
X122555000Y-93980000D03*
D14*
X118745000Y-91440000D03*
D13*
X116205000Y-96520000D03*
D21*
G36*
X102250000Y-94500602D02*
G01*
X102274534Y-94500602D01*
X102323365Y-94505412D01*
X102371490Y-94514984D01*
X102418445Y-94529228D01*
X102463778Y-94548005D01*
X102507051Y-94571136D01*
X102547850Y-94598396D01*
X102585779Y-94629524D01*
X102620476Y-94664221D01*
X102651604Y-94702150D01*
X102678864Y-94742949D01*
X102701995Y-94786222D01*
X102720772Y-94831555D01*
X102735016Y-94878510D01*
X102744588Y-94926635D01*
X102749398Y-94975466D01*
X102749398Y-95000000D01*
X102750000Y-95000000D01*
X102750000Y-95500000D01*
X102749398Y-95500000D01*
X102749398Y-95524534D01*
X102744588Y-95573365D01*
X102735016Y-95621490D01*
X102720772Y-95668445D01*
X102701995Y-95713778D01*
X102678864Y-95757051D01*
X102651604Y-95797850D01*
X102620476Y-95835779D01*
X102585779Y-95870476D01*
X102547850Y-95901604D01*
X102507051Y-95928864D01*
X102463778Y-95951995D01*
X102418445Y-95970772D01*
X102371490Y-95985016D01*
X102323365Y-95994588D01*
X102274534Y-95999398D01*
X102250000Y-95999398D01*
X102250000Y-96000000D01*
X101750000Y-96000000D01*
X101750000Y-94500000D01*
X102250000Y-94500000D01*
X102250000Y-94500602D01*
G37*
G36*
X101450000Y-96000000D02*
G01*
X100950000Y-96000000D01*
X100950000Y-95999398D01*
X100925466Y-95999398D01*
X100876635Y-95994588D01*
X100828510Y-95985016D01*
X100781555Y-95970772D01*
X100736222Y-95951995D01*
X100692949Y-95928864D01*
X100652150Y-95901604D01*
X100614221Y-95870476D01*
X100579524Y-95835779D01*
X100548396Y-95797850D01*
X100521136Y-95757051D01*
X100498005Y-95713778D01*
X100479228Y-95668445D01*
X100464984Y-95621490D01*
X100455412Y-95573365D01*
X100450602Y-95524534D01*
X100450602Y-95500000D01*
X100450000Y-95500000D01*
X100450000Y-95000000D01*
X100450602Y-95000000D01*
X100450602Y-94975466D01*
X100455412Y-94926635D01*
X100464984Y-94878510D01*
X100479228Y-94831555D01*
X100498005Y-94786222D01*
X100521136Y-94742949D01*
X100548396Y-94702150D01*
X100579524Y-94664221D01*
X100614221Y-94629524D01*
X100652150Y-94598396D01*
X100692949Y-94571136D01*
X100736222Y-94548005D01*
X100781555Y-94529228D01*
X100828510Y-94514984D01*
X100876635Y-94505412D01*
X100925466Y-94500602D01*
X100950000Y-94500602D01*
X100950000Y-94500000D01*
X101450000Y-94500000D01*
X101450000Y-96000000D01*
G37*
G36*
X111790000Y-83070602D02*
G01*
X111814534Y-83070602D01*
X111863365Y-83075412D01*
X111911490Y-83084984D01*
X111958445Y-83099228D01*
X112003778Y-83118005D01*
X112047051Y-83141136D01*
X112087850Y-83168396D01*
X112125779Y-83199524D01*
X112160476Y-83234221D01*
X112191604Y-83272150D01*
X112218864Y-83312949D01*
X112241995Y-83356222D01*
X112260772Y-83401555D01*
X112275016Y-83448510D01*
X112284588Y-83496635D01*
X112289398Y-83545466D01*
X112289398Y-83570000D01*
X112290000Y-83570000D01*
X112290000Y-84070000D01*
X112289398Y-84070000D01*
X112289398Y-84094534D01*
X112284588Y-84143365D01*
X112275016Y-84191490D01*
X112260772Y-84238445D01*
X112241995Y-84283778D01*
X112218864Y-84327051D01*
X112191604Y-84367850D01*
X112160476Y-84405779D01*
X112125779Y-84440476D01*
X112087850Y-84471604D01*
X112047051Y-84498864D01*
X112003778Y-84521995D01*
X111958445Y-84540772D01*
X111911490Y-84555016D01*
X111863365Y-84564588D01*
X111814534Y-84569398D01*
X111790000Y-84569398D01*
X111790000Y-84570000D01*
X111290000Y-84570000D01*
X111290000Y-83070000D01*
X111790000Y-83070000D01*
X111790000Y-83070602D01*
G37*
G36*
X110990000Y-84570000D02*
G01*
X110490000Y-84570000D01*
X110490000Y-84569398D01*
X110465466Y-84569398D01*
X110416635Y-84564588D01*
X110368510Y-84555016D01*
X110321555Y-84540772D01*
X110276222Y-84521995D01*
X110232949Y-84498864D01*
X110192150Y-84471604D01*
X110154221Y-84440476D01*
X110119524Y-84405779D01*
X110088396Y-84367850D01*
X110061136Y-84327051D01*
X110038005Y-84283778D01*
X110019228Y-84238445D01*
X110004984Y-84191490D01*
X109995412Y-84143365D01*
X109990602Y-84094534D01*
X109990602Y-84070000D01*
X109990000Y-84070000D01*
X109990000Y-83570000D01*
X109990602Y-83570000D01*
X109990602Y-83545466D01*
X109995412Y-83496635D01*
X110004984Y-83448510D01*
X110019228Y-83401555D01*
X110038005Y-83356222D01*
X110061136Y-83312949D01*
X110088396Y-83272150D01*
X110119524Y-83234221D01*
X110154221Y-83199524D01*
X110192150Y-83168396D01*
X110232949Y-83141136D01*
X110276222Y-83118005D01*
X110321555Y-83099228D01*
X110368510Y-83084984D01*
X110416635Y-83075412D01*
X110465466Y-83070602D01*
X110490000Y-83070602D01*
X110490000Y-83070000D01*
X110990000Y-83070000D01*
X110990000Y-84570000D01*
G37*
G36*
X96550000Y-105930602D02*
G01*
X96574534Y-105930602D01*
X96623365Y-105935412D01*
X96671490Y-105944984D01*
X96718445Y-105959228D01*
X96763778Y-105978005D01*
X96807051Y-106001136D01*
X96847850Y-106028396D01*
X96885779Y-106059524D01*
X96920476Y-106094221D01*
X96951604Y-106132150D01*
X96978864Y-106172949D01*
X97001995Y-106216222D01*
X97020772Y-106261555D01*
X97035016Y-106308510D01*
X97044588Y-106356635D01*
X97049398Y-106405466D01*
X97049398Y-106430000D01*
X97050000Y-106430000D01*
X97050000Y-106930000D01*
X97049398Y-106930000D01*
X97049398Y-106954534D01*
X97044588Y-107003365D01*
X97035016Y-107051490D01*
X97020772Y-107098445D01*
X97001995Y-107143778D01*
X96978864Y-107187051D01*
X96951604Y-107227850D01*
X96920476Y-107265779D01*
X96885779Y-107300476D01*
X96847850Y-107331604D01*
X96807051Y-107358864D01*
X96763778Y-107381995D01*
X96718445Y-107400772D01*
X96671490Y-107415016D01*
X96623365Y-107424588D01*
X96574534Y-107429398D01*
X96550000Y-107429398D01*
X96550000Y-107430000D01*
X96050000Y-107430000D01*
X96050000Y-105930000D01*
X96550000Y-105930000D01*
X96550000Y-105930602D01*
G37*
G36*
X95750000Y-107430000D02*
G01*
X95250000Y-107430000D01*
X95250000Y-107429398D01*
X95225466Y-107429398D01*
X95176635Y-107424588D01*
X95128510Y-107415016D01*
X95081555Y-107400772D01*
X95036222Y-107381995D01*
X94992949Y-107358864D01*
X94952150Y-107331604D01*
X94914221Y-107300476D01*
X94879524Y-107265779D01*
X94848396Y-107227850D01*
X94821136Y-107187051D01*
X94798005Y-107143778D01*
X94779228Y-107098445D01*
X94764984Y-107051490D01*
X94755412Y-107003365D01*
X94750602Y-106954534D01*
X94750602Y-106930000D01*
X94750000Y-106930000D01*
X94750000Y-106430000D01*
X94750602Y-106430000D01*
X94750602Y-106405466D01*
X94755412Y-106356635D01*
X94764984Y-106308510D01*
X94779228Y-106261555D01*
X94798005Y-106216222D01*
X94821136Y-106172949D01*
X94848396Y-106132150D01*
X94879524Y-106094221D01*
X94914221Y-106059524D01*
X94952150Y-106028396D01*
X94992949Y-106001136D01*
X95036222Y-105978005D01*
X95081555Y-105959228D01*
X95128510Y-105944984D01*
X95176635Y-105935412D01*
X95225466Y-105930602D01*
X95250000Y-105930602D01*
X95250000Y-105930000D01*
X95750000Y-105930000D01*
X95750000Y-107430000D01*
G37*
G36*
X95250000Y-103619398D02*
G01*
X95225466Y-103619398D01*
X95176635Y-103614588D01*
X95128510Y-103605016D01*
X95081555Y-103590772D01*
X95036222Y-103571995D01*
X94992949Y-103548864D01*
X94952150Y-103521604D01*
X94914221Y-103490476D01*
X94879524Y-103455779D01*
X94848396Y-103417850D01*
X94821136Y-103377051D01*
X94798005Y-103333778D01*
X94779228Y-103288445D01*
X94764984Y-103241490D01*
X94755412Y-103193365D01*
X94750602Y-103144534D01*
X94750602Y-103120000D01*
X94750000Y-103120000D01*
X94750000Y-102620000D01*
X94750602Y-102620000D01*
X94750602Y-102595466D01*
X94755412Y-102546635D01*
X94764984Y-102498510D01*
X94779228Y-102451555D01*
X94798005Y-102406222D01*
X94821136Y-102362949D01*
X94848396Y-102322150D01*
X94879524Y-102284221D01*
X94914221Y-102249524D01*
X94952150Y-102218396D01*
X94992949Y-102191136D01*
X95036222Y-102168005D01*
X95081555Y-102149228D01*
X95128510Y-102134984D01*
X95176635Y-102125412D01*
X95225466Y-102120602D01*
X95250000Y-102120602D01*
X95250000Y-102120000D01*
X95750000Y-102120000D01*
X95750000Y-103620000D01*
X95250000Y-103620000D01*
X95250000Y-103619398D01*
G37*
G36*
X96050000Y-102120000D02*
G01*
X96550000Y-102120000D01*
X96550000Y-102120602D01*
X96574534Y-102120602D01*
X96623365Y-102125412D01*
X96671490Y-102134984D01*
X96718445Y-102149228D01*
X96763778Y-102168005D01*
X96807051Y-102191136D01*
X96847850Y-102218396D01*
X96885779Y-102249524D01*
X96920476Y-102284221D01*
X96951604Y-102322150D01*
X96978864Y-102362949D01*
X97001995Y-102406222D01*
X97020772Y-102451555D01*
X97035016Y-102498510D01*
X97044588Y-102546635D01*
X97049398Y-102595466D01*
X97049398Y-102620000D01*
X97050000Y-102620000D01*
X97050000Y-103120000D01*
X97049398Y-103120000D01*
X97049398Y-103144534D01*
X97044588Y-103193365D01*
X97035016Y-103241490D01*
X97020772Y-103288445D01*
X97001995Y-103333778D01*
X96978864Y-103377051D01*
X96951604Y-103417850D01*
X96920476Y-103455779D01*
X96885779Y-103490476D01*
X96847850Y-103521604D01*
X96807051Y-103548864D01*
X96763778Y-103571995D01*
X96718445Y-103590772D01*
X96671490Y-103605016D01*
X96623365Y-103614588D01*
X96574534Y-103619398D01*
X96550000Y-103619398D01*
X96550000Y-103620000D01*
X96050000Y-103620000D01*
X96050000Y-102120000D01*
G37*
D15*
X187230000Y-116520000D03*
X189230000Y-117470000D03*
X189230000Y-115570000D03*
X187230000Y-97470000D03*
X189230000Y-98420000D03*
X189230000Y-96520000D03*
X168180000Y-97470000D03*
X170180000Y-98420000D03*
X170180000Y-96520000D03*
X149130000Y-116520000D03*
X151130000Y-117470000D03*
X151130000Y-115570000D03*
X149130000Y-97470000D03*
X151130000Y-98420000D03*
X151130000Y-96520000D03*
X130080000Y-116520000D03*
X132080000Y-117470000D03*
X132080000Y-115570000D03*
X130080000Y-97470000D03*
X132080000Y-98420000D03*
X132080000Y-96520000D03*
X111030000Y-116520000D03*
X113030000Y-117470000D03*
X113030000Y-115570000D03*
X111030000Y-97470000D03*
X113030000Y-98420000D03*
X113030000Y-96520000D03*
M02*
