%FSLAX45Y45*%
G04 Gerber Fmt 4.5, Leading zero omitted, Abs format (unit mm)*
G04 Created by KiCad (PCBNEW (5.1.10)-1) date 2022-01-19 18:15:39*
%MOMM*%
%LPD*%
G01*
G04 APERTURE LIST*
%TA.AperFunction,Profile*%
%ADD10C,0.100000*%
%TD*%
%ADD11C,0.200000*%
%ADD12C,0.300000*%
G04 APERTURE END LIST*
D10*
X21590000Y-8001000D02*
X21590000Y-12192000D01*
X7874000Y-8001000D02*
X21590000Y-8001000D01*
X7874000Y-12192000D02*
X7874000Y-8001000D01*
X21590000Y-12192000D02*
X7874000Y-12192000D01*
D11*
X11279000Y-9056500D02*
X11454000Y-9231500D01*
X11454000Y-9056500D02*
X11279000Y-9231500D01*
X11279000Y-10961500D02*
X11454000Y-11136500D01*
X11454000Y-10961500D02*
X11279000Y-11136500D01*
X12295000Y-9056500D02*
X12470000Y-9231500D01*
X12470000Y-9056500D02*
X12295000Y-9231500D01*
X12295000Y-10961500D02*
X12470000Y-11136500D01*
X12470000Y-10961500D02*
X12295000Y-11136500D01*
X13184000Y-9056500D02*
X13359000Y-9231500D01*
X13359000Y-9056500D02*
X13184000Y-9231500D01*
X13184000Y-10961500D02*
X13359000Y-11136500D01*
X13359000Y-10961500D02*
X13184000Y-11136500D01*
X14200000Y-9056500D02*
X14375000Y-9231500D01*
X14375000Y-9056500D02*
X14200000Y-9231500D01*
X14200000Y-10961500D02*
X14375000Y-11136500D01*
X14375000Y-10961500D02*
X14200000Y-11136500D01*
X15089000Y-9056500D02*
X15264000Y-9231500D01*
X15264000Y-9056500D02*
X15089000Y-9231500D01*
X15089000Y-10961500D02*
X15264000Y-11136500D01*
X15264000Y-10961500D02*
X15089000Y-11136500D01*
X16105000Y-9056500D02*
X16280000Y-9231500D01*
X16280000Y-9056500D02*
X16105000Y-9231500D01*
X16105000Y-10961500D02*
X16280000Y-11136500D01*
X16280000Y-10961500D02*
X16105000Y-11136500D01*
X16994000Y-9056500D02*
X17169000Y-9231500D01*
X17169000Y-9056500D02*
X16994000Y-9231500D01*
X16994000Y-10961500D02*
X17169000Y-11136500D01*
X17169000Y-10961500D02*
X16994000Y-11136500D01*
X18010000Y-9056500D02*
X18185000Y-9231500D01*
X18185000Y-9056500D02*
X18010000Y-9231500D01*
X18010000Y-10961500D02*
X18185000Y-11136500D01*
X18185000Y-10961500D02*
X18010000Y-11136500D01*
X18899000Y-9056500D02*
X19074000Y-9231500D01*
X19074000Y-9056500D02*
X18899000Y-9231500D01*
X18899000Y-10961500D02*
X19074000Y-11136500D01*
X19074000Y-10961500D02*
X18899000Y-11136500D01*
X19915000Y-9056500D02*
X20090000Y-9231500D01*
X20090000Y-9056500D02*
X19915000Y-9231500D01*
X19915000Y-10961500D02*
X20090000Y-11136500D01*
X20090000Y-10961500D02*
X19915000Y-11136500D01*
X8542000Y-8636000D02*
G75*
G03*
X8542000Y-8636000I-160000J0D01*
G01*
X8542000Y-11684000D02*
G75*
G03*
X8542000Y-11684000I-160000J0D01*
G01*
X21114500Y-8602500D02*
G75*
G03*
X21114500Y-8602500I-160000J0D01*
G01*
X21115000Y-11557000D02*
G75*
G03*
X21115000Y-11557000I-160000J0D01*
G01*
X11874500Y-8944610D02*
X11874500Y-9343390D01*
X11675110Y-9144000D02*
X12073890Y-9144000D01*
X11874500Y-10849610D02*
X11874500Y-11248390D01*
X11675110Y-11049000D02*
X12073890Y-11049000D01*
X13779500Y-8944610D02*
X13779500Y-9343390D01*
X13580110Y-9144000D02*
X13978890Y-9144000D01*
X13779500Y-10849610D02*
X13779500Y-11248390D01*
X13580110Y-11049000D02*
X13978890Y-11049000D01*
X15684500Y-8944610D02*
X15684500Y-9343390D01*
X15485110Y-9144000D02*
X15883890Y-9144000D01*
X15684500Y-10849610D02*
X15684500Y-11248390D01*
X15485110Y-11049000D02*
X15883890Y-11049000D01*
X17589500Y-8944610D02*
X17589500Y-9343390D01*
X17390110Y-9144000D02*
X17788890Y-9144000D01*
X17589500Y-10849610D02*
X17589500Y-11248390D01*
X17390110Y-11049000D02*
X17788890Y-11049000D01*
X19494500Y-8944610D02*
X19494500Y-9343390D01*
X19295110Y-9144000D02*
X19693890Y-9144000D01*
X19494500Y-10849610D02*
X19494500Y-11248390D01*
X19295110Y-11049000D02*
X19693890Y-11049000D01*
D12*
X8155428Y-12662714D02*
X8155428Y-12362714D01*
X8226857Y-12362714D01*
X8269714Y-12377000D01*
X8298286Y-12405571D01*
X8312571Y-12434143D01*
X8326857Y-12491286D01*
X8326857Y-12534143D01*
X8312571Y-12591286D01*
X8298286Y-12619857D01*
X8269714Y-12648429D01*
X8226857Y-12662714D01*
X8155428Y-12662714D01*
X8455428Y-12662714D02*
X8455428Y-12462714D01*
X8455428Y-12519857D02*
X8469714Y-12491286D01*
X8484000Y-12477000D01*
X8512571Y-12462714D01*
X8541143Y-12462714D01*
X8641143Y-12662714D02*
X8641143Y-12462714D01*
X8641143Y-12362714D02*
X8626857Y-12377000D01*
X8641143Y-12391286D01*
X8655428Y-12377000D01*
X8641143Y-12362714D01*
X8641143Y-12391286D01*
X8826857Y-12662714D02*
X8798286Y-12648429D01*
X8784000Y-12619857D01*
X8784000Y-12362714D01*
X8984000Y-12662714D02*
X8955428Y-12648429D01*
X8941143Y-12619857D01*
X8941143Y-12362714D01*
X9326857Y-12662714D02*
X9326857Y-12362714D01*
X9426857Y-12577000D01*
X9526857Y-12362714D01*
X9526857Y-12662714D01*
X9798286Y-12662714D02*
X9798286Y-12505571D01*
X9784000Y-12477000D01*
X9755428Y-12462714D01*
X9698286Y-12462714D01*
X9669714Y-12477000D01*
X9798286Y-12648429D02*
X9769714Y-12662714D01*
X9698286Y-12662714D01*
X9669714Y-12648429D01*
X9655428Y-12619857D01*
X9655428Y-12591286D01*
X9669714Y-12562714D01*
X9698286Y-12548429D01*
X9769714Y-12548429D01*
X9798286Y-12534143D01*
X9941143Y-12462714D02*
X9941143Y-12762714D01*
X9941143Y-12477000D02*
X9969714Y-12462714D01*
X10026857Y-12462714D01*
X10055428Y-12477000D01*
X10069714Y-12491286D01*
X10084000Y-12519857D01*
X10084000Y-12605571D01*
X10069714Y-12634143D01*
X10055428Y-12648429D01*
X10026857Y-12662714D01*
X9969714Y-12662714D01*
X9941143Y-12648429D01*
X10212571Y-12634143D02*
X10226857Y-12648429D01*
X10212571Y-12662714D01*
X10198286Y-12648429D01*
X10212571Y-12634143D01*
X10212571Y-12662714D01*
X10212571Y-12477000D02*
X10226857Y-12491286D01*
X10212571Y-12505571D01*
X10198286Y-12491286D01*
X10212571Y-12477000D01*
X10212571Y-12505571D01*
X7694000Y-13069500D02*
X7869000Y-13244500D01*
X7869000Y-13069500D02*
X7694000Y-13244500D01*
X8312571Y-13292714D02*
X8141143Y-13292714D01*
X8226857Y-13292714D02*
X8226857Y-12992714D01*
X8198286Y-13035571D01*
X8169714Y-13064143D01*
X8141143Y-13078429D01*
X8441143Y-13264143D02*
X8455428Y-13278429D01*
X8441143Y-13292714D01*
X8426857Y-13278429D01*
X8441143Y-13264143D01*
X8441143Y-13292714D01*
X8555428Y-12992714D02*
X8755428Y-12992714D01*
X8626857Y-13292714D01*
X9012571Y-12992714D02*
X8869714Y-12992714D01*
X8855428Y-13135571D01*
X8869714Y-13121286D01*
X8898286Y-13107000D01*
X8969714Y-13107000D01*
X8998286Y-13121286D01*
X9012571Y-13135571D01*
X9026857Y-13164143D01*
X9026857Y-13235571D01*
X9012571Y-13264143D01*
X8998286Y-13278429D01*
X8969714Y-13292714D01*
X8898286Y-13292714D01*
X8869714Y-13278429D01*
X8855428Y-13264143D01*
X9212571Y-12992714D02*
X9241143Y-12992714D01*
X9269714Y-13007000D01*
X9284000Y-13021286D01*
X9298286Y-13049857D01*
X9312571Y-13107000D01*
X9312571Y-13178429D01*
X9298286Y-13235571D01*
X9284000Y-13264143D01*
X9269714Y-13278429D01*
X9241143Y-13292714D01*
X9212571Y-13292714D01*
X9184000Y-13278429D01*
X9169714Y-13264143D01*
X9155428Y-13235571D01*
X9141143Y-13178429D01*
X9141143Y-13107000D01*
X9155428Y-13049857D01*
X9169714Y-13021286D01*
X9184000Y-13007000D01*
X9212571Y-12992714D01*
X9441143Y-13292714D02*
X9441143Y-13092714D01*
X9441143Y-13121286D02*
X9455428Y-13107000D01*
X9484000Y-13092714D01*
X9526857Y-13092714D01*
X9555428Y-13107000D01*
X9569714Y-13135571D01*
X9569714Y-13292714D01*
X9569714Y-13135571D02*
X9584000Y-13107000D01*
X9612571Y-13092714D01*
X9655428Y-13092714D01*
X9684000Y-13107000D01*
X9698286Y-13135571D01*
X9698286Y-13292714D01*
X9841143Y-13292714D02*
X9841143Y-13092714D01*
X9841143Y-13121286D02*
X9855428Y-13107000D01*
X9884000Y-13092714D01*
X9926857Y-13092714D01*
X9955428Y-13107000D01*
X9969714Y-13135571D01*
X9969714Y-13292714D01*
X9969714Y-13135571D02*
X9984000Y-13107000D01*
X10012571Y-13092714D01*
X10055428Y-13092714D01*
X10084000Y-13107000D01*
X10098286Y-13135571D01*
X10098286Y-13292714D01*
X10684000Y-12978429D02*
X10426857Y-13364143D01*
X11069714Y-12992714D02*
X11098286Y-12992714D01*
X11126857Y-13007000D01*
X11141143Y-13021286D01*
X11155428Y-13049857D01*
X11169714Y-13107000D01*
X11169714Y-13178429D01*
X11155428Y-13235571D01*
X11141143Y-13264143D01*
X11126857Y-13278429D01*
X11098286Y-13292714D01*
X11069714Y-13292714D01*
X11041143Y-13278429D01*
X11026857Y-13264143D01*
X11012571Y-13235571D01*
X10998286Y-13178429D01*
X10998286Y-13107000D01*
X11012571Y-13049857D01*
X11026857Y-13021286D01*
X11041143Y-13007000D01*
X11069714Y-12992714D01*
X11298286Y-13264143D02*
X11312571Y-13278429D01*
X11298286Y-13292714D01*
X11284000Y-13278429D01*
X11298286Y-13264143D01*
X11298286Y-13292714D01*
X11498286Y-12992714D02*
X11526857Y-12992714D01*
X11555428Y-13007000D01*
X11569714Y-13021286D01*
X11584000Y-13049857D01*
X11598286Y-13107000D01*
X11598286Y-13178429D01*
X11584000Y-13235571D01*
X11569714Y-13264143D01*
X11555428Y-13278429D01*
X11526857Y-13292714D01*
X11498286Y-13292714D01*
X11469714Y-13278429D01*
X11455428Y-13264143D01*
X11441143Y-13235571D01*
X11426857Y-13178429D01*
X11426857Y-13107000D01*
X11441143Y-13049857D01*
X11455428Y-13021286D01*
X11469714Y-13007000D01*
X11498286Y-12992714D01*
X11855428Y-12992714D02*
X11798286Y-12992714D01*
X11769714Y-13007000D01*
X11755428Y-13021286D01*
X11726857Y-13064143D01*
X11712571Y-13121286D01*
X11712571Y-13235571D01*
X11726857Y-13264143D01*
X11741143Y-13278429D01*
X11769714Y-13292714D01*
X11826857Y-13292714D01*
X11855428Y-13278429D01*
X11869714Y-13264143D01*
X11884000Y-13235571D01*
X11884000Y-13164143D01*
X11869714Y-13135571D01*
X11855428Y-13121286D01*
X11826857Y-13107000D01*
X11769714Y-13107000D01*
X11741143Y-13121286D01*
X11726857Y-13135571D01*
X11712571Y-13164143D01*
X12055428Y-13121286D02*
X12026857Y-13107000D01*
X12012571Y-13092714D01*
X11998286Y-13064143D01*
X11998286Y-13049857D01*
X12012571Y-13021286D01*
X12026857Y-13007000D01*
X12055428Y-12992714D01*
X12112571Y-12992714D01*
X12141143Y-13007000D01*
X12155428Y-13021286D01*
X12169714Y-13049857D01*
X12169714Y-13064143D01*
X12155428Y-13092714D01*
X12141143Y-13107000D01*
X12112571Y-13121286D01*
X12055428Y-13121286D01*
X12026857Y-13135571D01*
X12012571Y-13149857D01*
X11998286Y-13178429D01*
X11998286Y-13235571D01*
X12012571Y-13264143D01*
X12026857Y-13278429D01*
X12055428Y-13292714D01*
X12112571Y-13292714D01*
X12141143Y-13278429D01*
X12155428Y-13264143D01*
X12169714Y-13235571D01*
X12169714Y-13178429D01*
X12155428Y-13149857D01*
X12141143Y-13135571D01*
X12112571Y-13121286D01*
X12312571Y-13292714D02*
X12369714Y-13292714D01*
X12398286Y-13278429D01*
X12412571Y-13264143D01*
X12441143Y-13221286D01*
X12455428Y-13164143D01*
X12455428Y-13049857D01*
X12441143Y-13021286D01*
X12426857Y-13007000D01*
X12398286Y-12992714D01*
X12341143Y-12992714D01*
X12312571Y-13007000D01*
X12298286Y-13021286D01*
X12284000Y-13049857D01*
X12284000Y-13121286D01*
X12298286Y-13149857D01*
X12312571Y-13164143D01*
X12341143Y-13178429D01*
X12398286Y-13178429D01*
X12426857Y-13164143D01*
X12441143Y-13149857D01*
X12455428Y-13121286D01*
X12569714Y-12992714D02*
X12569714Y-13049857D01*
X12684000Y-12992714D02*
X12684000Y-13049857D01*
X13126857Y-13407000D02*
X13112571Y-13392714D01*
X13084000Y-13349857D01*
X13069714Y-13321286D01*
X13055428Y-13278429D01*
X13041143Y-13207000D01*
X13041143Y-13149857D01*
X13055428Y-13078429D01*
X13069714Y-13035571D01*
X13084000Y-13007000D01*
X13112571Y-12964143D01*
X13126857Y-12949857D01*
X13226857Y-13021286D02*
X13241143Y-13007000D01*
X13269714Y-12992714D01*
X13341143Y-12992714D01*
X13369714Y-13007000D01*
X13384000Y-13021286D01*
X13398286Y-13049857D01*
X13398286Y-13078429D01*
X13384000Y-13121286D01*
X13212571Y-13292714D01*
X13398286Y-13292714D01*
X13584000Y-12992714D02*
X13612571Y-12992714D01*
X13641143Y-13007000D01*
X13655428Y-13021286D01*
X13669714Y-13049857D01*
X13684000Y-13107000D01*
X13684000Y-13178429D01*
X13669714Y-13235571D01*
X13655428Y-13264143D01*
X13641143Y-13278429D01*
X13612571Y-13292714D01*
X13584000Y-13292714D01*
X13555428Y-13278429D01*
X13541143Y-13264143D01*
X13526857Y-13235571D01*
X13512571Y-13178429D01*
X13512571Y-13107000D01*
X13526857Y-13049857D01*
X13541143Y-13021286D01*
X13555428Y-13007000D01*
X13584000Y-12992714D01*
X14041143Y-13292714D02*
X14041143Y-12992714D01*
X14169714Y-13292714D02*
X14169714Y-13135571D01*
X14155428Y-13107000D01*
X14126857Y-13092714D01*
X14084000Y-13092714D01*
X14055428Y-13107000D01*
X14041143Y-13121286D01*
X14355428Y-13292714D02*
X14326857Y-13278429D01*
X14312571Y-13264143D01*
X14298286Y-13235571D01*
X14298286Y-13149857D01*
X14312571Y-13121286D01*
X14326857Y-13107000D01*
X14355428Y-13092714D01*
X14398286Y-13092714D01*
X14426857Y-13107000D01*
X14441143Y-13121286D01*
X14455428Y-13149857D01*
X14455428Y-13235571D01*
X14441143Y-13264143D01*
X14426857Y-13278429D01*
X14398286Y-13292714D01*
X14355428Y-13292714D01*
X14626857Y-13292714D02*
X14598286Y-13278429D01*
X14584000Y-13249857D01*
X14584000Y-12992714D01*
X14855428Y-13278429D02*
X14826857Y-13292714D01*
X14769714Y-13292714D01*
X14741143Y-13278429D01*
X14726857Y-13249857D01*
X14726857Y-13135571D01*
X14741143Y-13107000D01*
X14769714Y-13092714D01*
X14826857Y-13092714D01*
X14855428Y-13107000D01*
X14869714Y-13135571D01*
X14869714Y-13164143D01*
X14726857Y-13192714D01*
X14984000Y-13278429D02*
X15012571Y-13292714D01*
X15069714Y-13292714D01*
X15098286Y-13278429D01*
X15112571Y-13249857D01*
X15112571Y-13235571D01*
X15098286Y-13207000D01*
X15069714Y-13192714D01*
X15026857Y-13192714D01*
X14998286Y-13178429D01*
X14984000Y-13149857D01*
X14984000Y-13135571D01*
X14998286Y-13107000D01*
X15026857Y-13092714D01*
X15069714Y-13092714D01*
X15098286Y-13107000D01*
X15212571Y-13407000D02*
X15226857Y-13392714D01*
X15255428Y-13349857D01*
X15269714Y-13321286D01*
X15284000Y-13278429D01*
X15298286Y-13207000D01*
X15298286Y-13149857D01*
X15284000Y-13078429D01*
X15269714Y-13035571D01*
X15255428Y-13007000D01*
X15226857Y-12964143D01*
X15212571Y-12949857D01*
X15755428Y-13407000D02*
X15741143Y-13392714D01*
X15712571Y-13349857D01*
X15698286Y-13321286D01*
X15684000Y-13278429D01*
X15669714Y-13207000D01*
X15669714Y-13149857D01*
X15684000Y-13078429D01*
X15698286Y-13035571D01*
X15712571Y-13007000D01*
X15741143Y-12964143D01*
X15755428Y-12949857D01*
X15869714Y-13092714D02*
X15869714Y-13292714D01*
X15869714Y-13121286D02*
X15884000Y-13107000D01*
X15912571Y-13092714D01*
X15955428Y-13092714D01*
X15984000Y-13107000D01*
X15998286Y-13135571D01*
X15998286Y-13292714D01*
X16184000Y-13292714D02*
X16155428Y-13278429D01*
X16141143Y-13264143D01*
X16126857Y-13235571D01*
X16126857Y-13149857D01*
X16141143Y-13121286D01*
X16155428Y-13107000D01*
X16184000Y-13092714D01*
X16226857Y-13092714D01*
X16255428Y-13107000D01*
X16269714Y-13121286D01*
X16284000Y-13149857D01*
X16284000Y-13235571D01*
X16269714Y-13264143D01*
X16255428Y-13278429D01*
X16226857Y-13292714D01*
X16184000Y-13292714D01*
X16369714Y-13092714D02*
X16484000Y-13092714D01*
X16412571Y-12992714D02*
X16412571Y-13249857D01*
X16426857Y-13278429D01*
X16455428Y-13292714D01*
X16484000Y-13292714D01*
X16812571Y-13092714D02*
X16812571Y-13392714D01*
X16812571Y-13107000D02*
X16841143Y-13092714D01*
X16898286Y-13092714D01*
X16926857Y-13107000D01*
X16941143Y-13121286D01*
X16955428Y-13149857D01*
X16955428Y-13235571D01*
X16941143Y-13264143D01*
X16926857Y-13278429D01*
X16898286Y-13292714D01*
X16841143Y-13292714D01*
X16812571Y-13278429D01*
X17126857Y-13292714D02*
X17098286Y-13278429D01*
X17084000Y-13249857D01*
X17084000Y-12992714D01*
X17369714Y-13292714D02*
X17369714Y-13135571D01*
X17355428Y-13107000D01*
X17326857Y-13092714D01*
X17269714Y-13092714D01*
X17241143Y-13107000D01*
X17369714Y-13278429D02*
X17341143Y-13292714D01*
X17269714Y-13292714D01*
X17241143Y-13278429D01*
X17226857Y-13249857D01*
X17226857Y-13221286D01*
X17241143Y-13192714D01*
X17269714Y-13178429D01*
X17341143Y-13178429D01*
X17369714Y-13164143D01*
X17469714Y-13092714D02*
X17584000Y-13092714D01*
X17512571Y-12992714D02*
X17512571Y-13249857D01*
X17526857Y-13278429D01*
X17555428Y-13292714D01*
X17584000Y-13292714D01*
X17798286Y-13278429D02*
X17769714Y-13292714D01*
X17712571Y-13292714D01*
X17684000Y-13278429D01*
X17669714Y-13249857D01*
X17669714Y-13135571D01*
X17684000Y-13107000D01*
X17712571Y-13092714D01*
X17769714Y-13092714D01*
X17798286Y-13107000D01*
X17812571Y-13135571D01*
X17812571Y-13164143D01*
X17669714Y-13192714D01*
X18069714Y-13292714D02*
X18069714Y-12992714D01*
X18069714Y-13278429D02*
X18041143Y-13292714D01*
X17984000Y-13292714D01*
X17955428Y-13278429D01*
X17941143Y-13264143D01*
X17926857Y-13235571D01*
X17926857Y-13149857D01*
X17941143Y-13121286D01*
X17955428Y-13107000D01*
X17984000Y-13092714D01*
X18041143Y-13092714D01*
X18069714Y-13107000D01*
X18184000Y-13407000D02*
X18198286Y-13392714D01*
X18226857Y-13349857D01*
X18241143Y-13321286D01*
X18255428Y-13278429D01*
X18269714Y-13207000D01*
X18269714Y-13149857D01*
X18255428Y-13078429D01*
X18241143Y-13035571D01*
X18226857Y-13007000D01*
X18198286Y-12964143D01*
X18184000Y-12949857D01*
X7869000Y-13553000D02*
G75*
G03*
X7869000Y-13553000I-160000J0D01*
G01*
X8126857Y-13388714D02*
X8312571Y-13388714D01*
X8212571Y-13503000D01*
X8255428Y-13503000D01*
X8284000Y-13517286D01*
X8298286Y-13531571D01*
X8312571Y-13560143D01*
X8312571Y-13631571D01*
X8298286Y-13660143D01*
X8284000Y-13674429D01*
X8255428Y-13688714D01*
X8169714Y-13688714D01*
X8141143Y-13674429D01*
X8126857Y-13660143D01*
X8441143Y-13660143D02*
X8455428Y-13674429D01*
X8441143Y-13688714D01*
X8426857Y-13674429D01*
X8441143Y-13660143D01*
X8441143Y-13688714D01*
X8569714Y-13417286D02*
X8584000Y-13403000D01*
X8612571Y-13388714D01*
X8684000Y-13388714D01*
X8712571Y-13403000D01*
X8726857Y-13417286D01*
X8741143Y-13445857D01*
X8741143Y-13474429D01*
X8726857Y-13517286D01*
X8555428Y-13688714D01*
X8741143Y-13688714D01*
X8926857Y-13388714D02*
X8955428Y-13388714D01*
X8984000Y-13403000D01*
X8998286Y-13417286D01*
X9012571Y-13445857D01*
X9026857Y-13503000D01*
X9026857Y-13574429D01*
X9012571Y-13631571D01*
X8998286Y-13660143D01*
X8984000Y-13674429D01*
X8955428Y-13688714D01*
X8926857Y-13688714D01*
X8898286Y-13674429D01*
X8884000Y-13660143D01*
X8869714Y-13631571D01*
X8855428Y-13574429D01*
X8855428Y-13503000D01*
X8869714Y-13445857D01*
X8884000Y-13417286D01*
X8898286Y-13403000D01*
X8926857Y-13388714D01*
X9212571Y-13388714D02*
X9241143Y-13388714D01*
X9269714Y-13403000D01*
X9284000Y-13417286D01*
X9298286Y-13445857D01*
X9312571Y-13503000D01*
X9312571Y-13574429D01*
X9298286Y-13631571D01*
X9284000Y-13660143D01*
X9269714Y-13674429D01*
X9241143Y-13688714D01*
X9212571Y-13688714D01*
X9184000Y-13674429D01*
X9169714Y-13660143D01*
X9155428Y-13631571D01*
X9141143Y-13574429D01*
X9141143Y-13503000D01*
X9155428Y-13445857D01*
X9169714Y-13417286D01*
X9184000Y-13403000D01*
X9212571Y-13388714D01*
X9441143Y-13688714D02*
X9441143Y-13488714D01*
X9441143Y-13517286D02*
X9455428Y-13503000D01*
X9484000Y-13488714D01*
X9526857Y-13488714D01*
X9555428Y-13503000D01*
X9569714Y-13531571D01*
X9569714Y-13688714D01*
X9569714Y-13531571D02*
X9584000Y-13503000D01*
X9612571Y-13488714D01*
X9655428Y-13488714D01*
X9684000Y-13503000D01*
X9698286Y-13531571D01*
X9698286Y-13688714D01*
X9841143Y-13688714D02*
X9841143Y-13488714D01*
X9841143Y-13517286D02*
X9855428Y-13503000D01*
X9884000Y-13488714D01*
X9926857Y-13488714D01*
X9955428Y-13503000D01*
X9969714Y-13531571D01*
X9969714Y-13688714D01*
X9969714Y-13531571D02*
X9984000Y-13503000D01*
X10012571Y-13488714D01*
X10055428Y-13488714D01*
X10084000Y-13503000D01*
X10098286Y-13531571D01*
X10098286Y-13688714D01*
X10684000Y-13374429D02*
X10426857Y-13760143D01*
X11069714Y-13388714D02*
X11098286Y-13388714D01*
X11126857Y-13403000D01*
X11141143Y-13417286D01*
X11155428Y-13445857D01*
X11169714Y-13503000D01*
X11169714Y-13574429D01*
X11155428Y-13631571D01*
X11141143Y-13660143D01*
X11126857Y-13674429D01*
X11098286Y-13688714D01*
X11069714Y-13688714D01*
X11041143Y-13674429D01*
X11026857Y-13660143D01*
X11012571Y-13631571D01*
X10998286Y-13574429D01*
X10998286Y-13503000D01*
X11012571Y-13445857D01*
X11026857Y-13417286D01*
X11041143Y-13403000D01*
X11069714Y-13388714D01*
X11298286Y-13660143D02*
X11312571Y-13674429D01*
X11298286Y-13688714D01*
X11284000Y-13674429D01*
X11298286Y-13660143D01*
X11298286Y-13688714D01*
X11598286Y-13688714D02*
X11426857Y-13688714D01*
X11512571Y-13688714D02*
X11512571Y-13388714D01*
X11484000Y-13431571D01*
X11455428Y-13460143D01*
X11426857Y-13474429D01*
X11712571Y-13417286D02*
X11726857Y-13403000D01*
X11755428Y-13388714D01*
X11826857Y-13388714D01*
X11855428Y-13403000D01*
X11869714Y-13417286D01*
X11884000Y-13445857D01*
X11884000Y-13474429D01*
X11869714Y-13517286D01*
X11698286Y-13688714D01*
X11884000Y-13688714D01*
X12141143Y-13388714D02*
X12084000Y-13388714D01*
X12055428Y-13403000D01*
X12041143Y-13417286D01*
X12012571Y-13460143D01*
X11998286Y-13517286D01*
X11998286Y-13631571D01*
X12012571Y-13660143D01*
X12026857Y-13674429D01*
X12055428Y-13688714D01*
X12112571Y-13688714D01*
X12141143Y-13674429D01*
X12155428Y-13660143D01*
X12169714Y-13631571D01*
X12169714Y-13560143D01*
X12155428Y-13531571D01*
X12141143Y-13517286D01*
X12112571Y-13503000D01*
X12055428Y-13503000D01*
X12026857Y-13517286D01*
X12012571Y-13531571D01*
X11998286Y-13560143D01*
X12355428Y-13388714D02*
X12384000Y-13388714D01*
X12412571Y-13403000D01*
X12426857Y-13417286D01*
X12441143Y-13445857D01*
X12455428Y-13503000D01*
X12455428Y-13574429D01*
X12441143Y-13631571D01*
X12426857Y-13660143D01*
X12412571Y-13674429D01*
X12384000Y-13688714D01*
X12355428Y-13688714D01*
X12326857Y-13674429D01*
X12312571Y-13660143D01*
X12298286Y-13631571D01*
X12284000Y-13574429D01*
X12284000Y-13503000D01*
X12298286Y-13445857D01*
X12312571Y-13417286D01*
X12326857Y-13403000D01*
X12355428Y-13388714D01*
X12569714Y-13388714D02*
X12569714Y-13445857D01*
X12684000Y-13388714D02*
X12684000Y-13445857D01*
X13126857Y-13803000D02*
X13112571Y-13788714D01*
X13084000Y-13745857D01*
X13069714Y-13717286D01*
X13055428Y-13674429D01*
X13041143Y-13603000D01*
X13041143Y-13545857D01*
X13055428Y-13474429D01*
X13069714Y-13431571D01*
X13084000Y-13403000D01*
X13112571Y-13360143D01*
X13126857Y-13345857D01*
X13369714Y-13488714D02*
X13369714Y-13688714D01*
X13298286Y-13374429D02*
X13226857Y-13588714D01*
X13412571Y-13588714D01*
X13755428Y-13688714D02*
X13755428Y-13388714D01*
X13884000Y-13688714D02*
X13884000Y-13531571D01*
X13869714Y-13503000D01*
X13841143Y-13488714D01*
X13798286Y-13488714D01*
X13769714Y-13503000D01*
X13755428Y-13517286D01*
X14069714Y-13688714D02*
X14041143Y-13674429D01*
X14026857Y-13660143D01*
X14012571Y-13631571D01*
X14012571Y-13545857D01*
X14026857Y-13517286D01*
X14041143Y-13503000D01*
X14069714Y-13488714D01*
X14112571Y-13488714D01*
X14141143Y-13503000D01*
X14155428Y-13517286D01*
X14169714Y-13545857D01*
X14169714Y-13631571D01*
X14155428Y-13660143D01*
X14141143Y-13674429D01*
X14112571Y-13688714D01*
X14069714Y-13688714D01*
X14341143Y-13688714D02*
X14312571Y-13674429D01*
X14298286Y-13645857D01*
X14298286Y-13388714D01*
X14569714Y-13674429D02*
X14541143Y-13688714D01*
X14484000Y-13688714D01*
X14455428Y-13674429D01*
X14441143Y-13645857D01*
X14441143Y-13531571D01*
X14455428Y-13503000D01*
X14484000Y-13488714D01*
X14541143Y-13488714D01*
X14569714Y-13503000D01*
X14584000Y-13531571D01*
X14584000Y-13560143D01*
X14441143Y-13588714D01*
X14698286Y-13674429D02*
X14726857Y-13688714D01*
X14784000Y-13688714D01*
X14812571Y-13674429D01*
X14826857Y-13645857D01*
X14826857Y-13631571D01*
X14812571Y-13603000D01*
X14784000Y-13588714D01*
X14741143Y-13588714D01*
X14712571Y-13574429D01*
X14698286Y-13545857D01*
X14698286Y-13531571D01*
X14712571Y-13503000D01*
X14741143Y-13488714D01*
X14784000Y-13488714D01*
X14812571Y-13503000D01*
X14926857Y-13803000D02*
X14941143Y-13788714D01*
X14969714Y-13745857D01*
X14984000Y-13717286D01*
X14998286Y-13674429D01*
X15012571Y-13603000D01*
X15012571Y-13545857D01*
X14998286Y-13474429D01*
X14984000Y-13431571D01*
X14969714Y-13403000D01*
X14941143Y-13360143D01*
X14926857Y-13345857D01*
X15469714Y-13803000D02*
X15455428Y-13788714D01*
X15426857Y-13745857D01*
X15412571Y-13717286D01*
X15398286Y-13674429D01*
X15384000Y-13603000D01*
X15384000Y-13545857D01*
X15398286Y-13474429D01*
X15412571Y-13431571D01*
X15426857Y-13403000D01*
X15455428Y-13360143D01*
X15469714Y-13345857D01*
X15584000Y-13488714D02*
X15584000Y-13688714D01*
X15584000Y-13517286D02*
X15598286Y-13503000D01*
X15626857Y-13488714D01*
X15669714Y-13488714D01*
X15698286Y-13503000D01*
X15712571Y-13531571D01*
X15712571Y-13688714D01*
X15898286Y-13688714D02*
X15869714Y-13674429D01*
X15855428Y-13660143D01*
X15841143Y-13631571D01*
X15841143Y-13545857D01*
X15855428Y-13517286D01*
X15869714Y-13503000D01*
X15898286Y-13488714D01*
X15941143Y-13488714D01*
X15969714Y-13503000D01*
X15984000Y-13517286D01*
X15998286Y-13545857D01*
X15998286Y-13631571D01*
X15984000Y-13660143D01*
X15969714Y-13674429D01*
X15941143Y-13688714D01*
X15898286Y-13688714D01*
X16084000Y-13488714D02*
X16198286Y-13488714D01*
X16126857Y-13388714D02*
X16126857Y-13645857D01*
X16141143Y-13674429D01*
X16169714Y-13688714D01*
X16198286Y-13688714D01*
X16526857Y-13488714D02*
X16526857Y-13788714D01*
X16526857Y-13503000D02*
X16555428Y-13488714D01*
X16612571Y-13488714D01*
X16641143Y-13503000D01*
X16655428Y-13517286D01*
X16669714Y-13545857D01*
X16669714Y-13631571D01*
X16655428Y-13660143D01*
X16641143Y-13674429D01*
X16612571Y-13688714D01*
X16555428Y-13688714D01*
X16526857Y-13674429D01*
X16841143Y-13688714D02*
X16812571Y-13674429D01*
X16798286Y-13645857D01*
X16798286Y-13388714D01*
X17084000Y-13688714D02*
X17084000Y-13531571D01*
X17069714Y-13503000D01*
X17041143Y-13488714D01*
X16984000Y-13488714D01*
X16955428Y-13503000D01*
X17084000Y-13674429D02*
X17055428Y-13688714D01*
X16984000Y-13688714D01*
X16955428Y-13674429D01*
X16941143Y-13645857D01*
X16941143Y-13617286D01*
X16955428Y-13588714D01*
X16984000Y-13574429D01*
X17055428Y-13574429D01*
X17084000Y-13560143D01*
X17184000Y-13488714D02*
X17298286Y-13488714D01*
X17226857Y-13388714D02*
X17226857Y-13645857D01*
X17241143Y-13674429D01*
X17269714Y-13688714D01*
X17298286Y-13688714D01*
X17512571Y-13674429D02*
X17484000Y-13688714D01*
X17426857Y-13688714D01*
X17398286Y-13674429D01*
X17384000Y-13645857D01*
X17384000Y-13531571D01*
X17398286Y-13503000D01*
X17426857Y-13488714D01*
X17484000Y-13488714D01*
X17512571Y-13503000D01*
X17526857Y-13531571D01*
X17526857Y-13560143D01*
X17384000Y-13588714D01*
X17784000Y-13688714D02*
X17784000Y-13388714D01*
X17784000Y-13674429D02*
X17755428Y-13688714D01*
X17698286Y-13688714D01*
X17669714Y-13674429D01*
X17655428Y-13660143D01*
X17641143Y-13631571D01*
X17641143Y-13545857D01*
X17655428Y-13517286D01*
X17669714Y-13503000D01*
X17698286Y-13488714D01*
X17755428Y-13488714D01*
X17784000Y-13503000D01*
X17898286Y-13803000D02*
X17912571Y-13788714D01*
X17941143Y-13745857D01*
X17955428Y-13717286D01*
X17969714Y-13674429D01*
X17984000Y-13603000D01*
X17984000Y-13545857D01*
X17969714Y-13474429D01*
X17955428Y-13431571D01*
X17941143Y-13403000D01*
X17912571Y-13360143D01*
X17898286Y-13345857D01*
X7669610Y-13803610D02*
X7669610Y-14202390D01*
X7470220Y-14003000D02*
X7869000Y-14003000D01*
X8126857Y-13838714D02*
X8312571Y-13838714D01*
X8212571Y-13953000D01*
X8255428Y-13953000D01*
X8284000Y-13967286D01*
X8298286Y-13981571D01*
X8312571Y-14010143D01*
X8312571Y-14081571D01*
X8298286Y-14110143D01*
X8284000Y-14124429D01*
X8255428Y-14138714D01*
X8169714Y-14138714D01*
X8141143Y-14124429D01*
X8126857Y-14110143D01*
X8441143Y-14110143D02*
X8455428Y-14124429D01*
X8441143Y-14138714D01*
X8426857Y-14124429D01*
X8441143Y-14110143D01*
X8441143Y-14138714D01*
X8598286Y-14138714D02*
X8655428Y-14138714D01*
X8684000Y-14124429D01*
X8698286Y-14110143D01*
X8726857Y-14067286D01*
X8741143Y-14010143D01*
X8741143Y-13895857D01*
X8726857Y-13867286D01*
X8712571Y-13853000D01*
X8684000Y-13838714D01*
X8626857Y-13838714D01*
X8598286Y-13853000D01*
X8584000Y-13867286D01*
X8569714Y-13895857D01*
X8569714Y-13967286D01*
X8584000Y-13995857D01*
X8598286Y-14010143D01*
X8626857Y-14024429D01*
X8684000Y-14024429D01*
X8712571Y-14010143D01*
X8726857Y-13995857D01*
X8741143Y-13967286D01*
X8912571Y-13967286D02*
X8884000Y-13953000D01*
X8869714Y-13938714D01*
X8855428Y-13910143D01*
X8855428Y-13895857D01*
X8869714Y-13867286D01*
X8884000Y-13853000D01*
X8912571Y-13838714D01*
X8969714Y-13838714D01*
X8998286Y-13853000D01*
X9012571Y-13867286D01*
X9026857Y-13895857D01*
X9026857Y-13910143D01*
X9012571Y-13938714D01*
X8998286Y-13953000D01*
X8969714Y-13967286D01*
X8912571Y-13967286D01*
X8884000Y-13981571D01*
X8869714Y-13995857D01*
X8855428Y-14024429D01*
X8855428Y-14081571D01*
X8869714Y-14110143D01*
X8884000Y-14124429D01*
X8912571Y-14138714D01*
X8969714Y-14138714D01*
X8998286Y-14124429D01*
X9012571Y-14110143D01*
X9026857Y-14081571D01*
X9026857Y-14024429D01*
X9012571Y-13995857D01*
X8998286Y-13981571D01*
X8969714Y-13967286D01*
X9198286Y-13967286D02*
X9169714Y-13953000D01*
X9155428Y-13938714D01*
X9141143Y-13910143D01*
X9141143Y-13895857D01*
X9155428Y-13867286D01*
X9169714Y-13853000D01*
X9198286Y-13838714D01*
X9255428Y-13838714D01*
X9284000Y-13853000D01*
X9298286Y-13867286D01*
X9312571Y-13895857D01*
X9312571Y-13910143D01*
X9298286Y-13938714D01*
X9284000Y-13953000D01*
X9255428Y-13967286D01*
X9198286Y-13967286D01*
X9169714Y-13981571D01*
X9155428Y-13995857D01*
X9141143Y-14024429D01*
X9141143Y-14081571D01*
X9155428Y-14110143D01*
X9169714Y-14124429D01*
X9198286Y-14138714D01*
X9255428Y-14138714D01*
X9284000Y-14124429D01*
X9298286Y-14110143D01*
X9312571Y-14081571D01*
X9312571Y-14024429D01*
X9298286Y-13995857D01*
X9284000Y-13981571D01*
X9255428Y-13967286D01*
X9441143Y-14138714D02*
X9441143Y-13938714D01*
X9441143Y-13967286D02*
X9455428Y-13953000D01*
X9484000Y-13938714D01*
X9526857Y-13938714D01*
X9555428Y-13953000D01*
X9569714Y-13981571D01*
X9569714Y-14138714D01*
X9569714Y-13981571D02*
X9584000Y-13953000D01*
X9612571Y-13938714D01*
X9655428Y-13938714D01*
X9684000Y-13953000D01*
X9698286Y-13981571D01*
X9698286Y-14138714D01*
X9841143Y-14138714D02*
X9841143Y-13938714D01*
X9841143Y-13967286D02*
X9855428Y-13953000D01*
X9884000Y-13938714D01*
X9926857Y-13938714D01*
X9955428Y-13953000D01*
X9969714Y-13981571D01*
X9969714Y-14138714D01*
X9969714Y-13981571D02*
X9984000Y-13953000D01*
X10012571Y-13938714D01*
X10055428Y-13938714D01*
X10084000Y-13953000D01*
X10098286Y-13981571D01*
X10098286Y-14138714D01*
X10684000Y-13824429D02*
X10426857Y-14210143D01*
X11069714Y-13838714D02*
X11098286Y-13838714D01*
X11126857Y-13853000D01*
X11141143Y-13867286D01*
X11155428Y-13895857D01*
X11169714Y-13953000D01*
X11169714Y-14024429D01*
X11155428Y-14081571D01*
X11141143Y-14110143D01*
X11126857Y-14124429D01*
X11098286Y-14138714D01*
X11069714Y-14138714D01*
X11041143Y-14124429D01*
X11026857Y-14110143D01*
X11012571Y-14081571D01*
X10998286Y-14024429D01*
X10998286Y-13953000D01*
X11012571Y-13895857D01*
X11026857Y-13867286D01*
X11041143Y-13853000D01*
X11069714Y-13838714D01*
X11298286Y-14110143D02*
X11312571Y-14124429D01*
X11298286Y-14138714D01*
X11284000Y-14124429D01*
X11298286Y-14110143D01*
X11298286Y-14138714D01*
X11598286Y-14138714D02*
X11426857Y-14138714D01*
X11512571Y-14138714D02*
X11512571Y-13838714D01*
X11484000Y-13881571D01*
X11455428Y-13910143D01*
X11426857Y-13924429D01*
X11869714Y-13838714D02*
X11726857Y-13838714D01*
X11712571Y-13981571D01*
X11726857Y-13967286D01*
X11755428Y-13953000D01*
X11826857Y-13953000D01*
X11855428Y-13967286D01*
X11869714Y-13981571D01*
X11884000Y-14010143D01*
X11884000Y-14081571D01*
X11869714Y-14110143D01*
X11855428Y-14124429D01*
X11826857Y-14138714D01*
X11755428Y-14138714D01*
X11726857Y-14124429D01*
X11712571Y-14110143D01*
X11984000Y-13838714D02*
X12184000Y-13838714D01*
X12055428Y-14138714D01*
X12355428Y-13838714D02*
X12384000Y-13838714D01*
X12412571Y-13853000D01*
X12426857Y-13867286D01*
X12441143Y-13895857D01*
X12455428Y-13953000D01*
X12455428Y-14024429D01*
X12441143Y-14081571D01*
X12426857Y-14110143D01*
X12412571Y-14124429D01*
X12384000Y-14138714D01*
X12355428Y-14138714D01*
X12326857Y-14124429D01*
X12312571Y-14110143D01*
X12298286Y-14081571D01*
X12284000Y-14024429D01*
X12284000Y-13953000D01*
X12298286Y-13895857D01*
X12312571Y-13867286D01*
X12326857Y-13853000D01*
X12355428Y-13838714D01*
X12569714Y-13838714D02*
X12569714Y-13895857D01*
X12684000Y-13838714D02*
X12684000Y-13895857D01*
X13126857Y-14253000D02*
X13112571Y-14238714D01*
X13084000Y-14195857D01*
X13069714Y-14167286D01*
X13055428Y-14124429D01*
X13041143Y-14053000D01*
X13041143Y-13995857D01*
X13055428Y-13924429D01*
X13069714Y-13881571D01*
X13084000Y-13853000D01*
X13112571Y-13810143D01*
X13126857Y-13795857D01*
X13398286Y-14138714D02*
X13226857Y-14138714D01*
X13312571Y-14138714D02*
X13312571Y-13838714D01*
X13284000Y-13881571D01*
X13255428Y-13910143D01*
X13226857Y-13924429D01*
X13584000Y-13838714D02*
X13612571Y-13838714D01*
X13641143Y-13853000D01*
X13655428Y-13867286D01*
X13669714Y-13895857D01*
X13684000Y-13953000D01*
X13684000Y-14024429D01*
X13669714Y-14081571D01*
X13655428Y-14110143D01*
X13641143Y-14124429D01*
X13612571Y-14138714D01*
X13584000Y-14138714D01*
X13555428Y-14124429D01*
X13541143Y-14110143D01*
X13526857Y-14081571D01*
X13512571Y-14024429D01*
X13512571Y-13953000D01*
X13526857Y-13895857D01*
X13541143Y-13867286D01*
X13555428Y-13853000D01*
X13584000Y-13838714D01*
X14041143Y-14138714D02*
X14041143Y-13838714D01*
X14169714Y-14138714D02*
X14169714Y-13981571D01*
X14155428Y-13953000D01*
X14126857Y-13938714D01*
X14084000Y-13938714D01*
X14055428Y-13953000D01*
X14041143Y-13967286D01*
X14355428Y-14138714D02*
X14326857Y-14124429D01*
X14312571Y-14110143D01*
X14298286Y-14081571D01*
X14298286Y-13995857D01*
X14312571Y-13967286D01*
X14326857Y-13953000D01*
X14355428Y-13938714D01*
X14398286Y-13938714D01*
X14426857Y-13953000D01*
X14441143Y-13967286D01*
X14455428Y-13995857D01*
X14455428Y-14081571D01*
X14441143Y-14110143D01*
X14426857Y-14124429D01*
X14398286Y-14138714D01*
X14355428Y-14138714D01*
X14626857Y-14138714D02*
X14598286Y-14124429D01*
X14584000Y-14095857D01*
X14584000Y-13838714D01*
X14855428Y-14124429D02*
X14826857Y-14138714D01*
X14769714Y-14138714D01*
X14741143Y-14124429D01*
X14726857Y-14095857D01*
X14726857Y-13981571D01*
X14741143Y-13953000D01*
X14769714Y-13938714D01*
X14826857Y-13938714D01*
X14855428Y-13953000D01*
X14869714Y-13981571D01*
X14869714Y-14010143D01*
X14726857Y-14038714D01*
X14984000Y-14124429D02*
X15012571Y-14138714D01*
X15069714Y-14138714D01*
X15098286Y-14124429D01*
X15112571Y-14095857D01*
X15112571Y-14081571D01*
X15098286Y-14053000D01*
X15069714Y-14038714D01*
X15026857Y-14038714D01*
X14998286Y-14024429D01*
X14984000Y-13995857D01*
X14984000Y-13981571D01*
X14998286Y-13953000D01*
X15026857Y-13938714D01*
X15069714Y-13938714D01*
X15098286Y-13953000D01*
X15212571Y-14253000D02*
X15226857Y-14238714D01*
X15255428Y-14195857D01*
X15269714Y-14167286D01*
X15284000Y-14124429D01*
X15298286Y-14053000D01*
X15298286Y-13995857D01*
X15284000Y-13924429D01*
X15269714Y-13881571D01*
X15255428Y-13853000D01*
X15226857Y-13810143D01*
X15212571Y-13795857D01*
X15755428Y-14253000D02*
X15741143Y-14238714D01*
X15712571Y-14195857D01*
X15698286Y-14167286D01*
X15684000Y-14124429D01*
X15669714Y-14053000D01*
X15669714Y-13995857D01*
X15684000Y-13924429D01*
X15698286Y-13881571D01*
X15712571Y-13853000D01*
X15741143Y-13810143D01*
X15755428Y-13795857D01*
X15869714Y-13938714D02*
X15869714Y-14138714D01*
X15869714Y-13967286D02*
X15884000Y-13953000D01*
X15912571Y-13938714D01*
X15955428Y-13938714D01*
X15984000Y-13953000D01*
X15998286Y-13981571D01*
X15998286Y-14138714D01*
X16184000Y-14138714D02*
X16155428Y-14124429D01*
X16141143Y-14110143D01*
X16126857Y-14081571D01*
X16126857Y-13995857D01*
X16141143Y-13967286D01*
X16155428Y-13953000D01*
X16184000Y-13938714D01*
X16226857Y-13938714D01*
X16255428Y-13953000D01*
X16269714Y-13967286D01*
X16284000Y-13995857D01*
X16284000Y-14081571D01*
X16269714Y-14110143D01*
X16255428Y-14124429D01*
X16226857Y-14138714D01*
X16184000Y-14138714D01*
X16369714Y-13938714D02*
X16484000Y-13938714D01*
X16412571Y-13838714D02*
X16412571Y-14095857D01*
X16426857Y-14124429D01*
X16455428Y-14138714D01*
X16484000Y-14138714D01*
X16812571Y-13938714D02*
X16812571Y-14238714D01*
X16812571Y-13953000D02*
X16841143Y-13938714D01*
X16898286Y-13938714D01*
X16926857Y-13953000D01*
X16941143Y-13967286D01*
X16955428Y-13995857D01*
X16955428Y-14081571D01*
X16941143Y-14110143D01*
X16926857Y-14124429D01*
X16898286Y-14138714D01*
X16841143Y-14138714D01*
X16812571Y-14124429D01*
X17126857Y-14138714D02*
X17098286Y-14124429D01*
X17084000Y-14095857D01*
X17084000Y-13838714D01*
X17369714Y-14138714D02*
X17369714Y-13981571D01*
X17355428Y-13953000D01*
X17326857Y-13938714D01*
X17269714Y-13938714D01*
X17241143Y-13953000D01*
X17369714Y-14124429D02*
X17341143Y-14138714D01*
X17269714Y-14138714D01*
X17241143Y-14124429D01*
X17226857Y-14095857D01*
X17226857Y-14067286D01*
X17241143Y-14038714D01*
X17269714Y-14024429D01*
X17341143Y-14024429D01*
X17369714Y-14010143D01*
X17469714Y-13938714D02*
X17584000Y-13938714D01*
X17512571Y-13838714D02*
X17512571Y-14095857D01*
X17526857Y-14124429D01*
X17555428Y-14138714D01*
X17584000Y-14138714D01*
X17798286Y-14124429D02*
X17769714Y-14138714D01*
X17712571Y-14138714D01*
X17684000Y-14124429D01*
X17669714Y-14095857D01*
X17669714Y-13981571D01*
X17684000Y-13953000D01*
X17712571Y-13938714D01*
X17769714Y-13938714D01*
X17798286Y-13953000D01*
X17812571Y-13981571D01*
X17812571Y-14010143D01*
X17669714Y-14038714D01*
X18069714Y-14138714D02*
X18069714Y-13838714D01*
X18069714Y-14124429D02*
X18041143Y-14138714D01*
X17984000Y-14138714D01*
X17955428Y-14124429D01*
X17941143Y-14110143D01*
X17926857Y-14081571D01*
X17926857Y-13995857D01*
X17941143Y-13967286D01*
X17955428Y-13953000D01*
X17984000Y-13938714D01*
X18041143Y-13938714D01*
X18069714Y-13953000D01*
X18184000Y-14253000D02*
X18198286Y-14238714D01*
X18226857Y-14195857D01*
X18241143Y-14167286D01*
X18255428Y-14124429D01*
X18269714Y-14053000D01*
X18269714Y-13995857D01*
X18255428Y-13924429D01*
X18241143Y-13881571D01*
X18226857Y-13853000D01*
X18198286Y-13810143D01*
X18184000Y-13795857D01*
M02*
