G04 #@! TF.GenerationSoftware,KiCad,Pcbnew,(5.1.10)-1*
G04 #@! TF.CreationDate,2022-01-19T18:15:33-07:00*
G04 #@! TF.ProjectId,keypad,6b657970-6164-42e6-9b69-6361645f7063,rev?*
G04 #@! TF.SameCoordinates,Original*
G04 #@! TF.FileFunction,Copper,L1,Top*
G04 #@! TF.FilePolarity,Positive*
%FSLAX46Y46*%
G04 Gerber Fmt 4.6, Leading zero omitted, Abs format (unit mm)*
G04 Created by KiCad (PCBNEW (5.1.10)-1) date 2022-01-19 18:15:33*
%MOMM*%
%LPD*%
G01*
G04 APERTURE LIST*
G04 #@! TA.AperFunction,ComponentPad*
%ADD10R,1.905000X1.905000*%
G04 #@! TD*
G04 #@! TA.AperFunction,ComponentPad*
%ADD11C,1.905000*%
G04 #@! TD*
G04 #@! TA.AperFunction,ComponentPad*
%ADD12C,2.250000*%
G04 #@! TD*
G04 #@! TA.AperFunction,ComponentPad*
%ADD13C,1.600000*%
G04 #@! TD*
G04 #@! TA.AperFunction,ComponentPad*
%ADD14R,1.600000X1.600000*%
G04 #@! TD*
G04 #@! TA.AperFunction,ViaPad*
%ADD15C,0.800000*%
G04 #@! TD*
G04 #@! TA.AperFunction,Conductor*
%ADD16C,0.250000*%
G04 #@! TD*
G04 #@! TA.AperFunction,Conductor*
%ADD17C,0.254000*%
G04 #@! TD*
G04 #@! TA.AperFunction,Conductor*
%ADD18C,0.100000*%
G04 #@! TD*
G04 APERTURE END LIST*
D10*
X136525000Y-86360000D03*
D11*
X139065000Y-86360000D03*
D12*
X141605000Y-93980000D03*
X135255000Y-96520000D03*
D13*
X105410000Y-83820000D03*
X105410000Y-86360000D03*
X105410000Y-88900000D03*
X105410000Y-91440000D03*
X105410000Y-93980000D03*
X105410000Y-96520000D03*
X105410000Y-99060000D03*
X105410000Y-101600000D03*
X105410000Y-104140000D03*
X105410000Y-106680000D03*
X105410000Y-109220000D03*
X105410000Y-111760000D03*
X90170000Y-111760000D03*
X90170000Y-109220000D03*
X90170000Y-106680000D03*
X90170000Y-104140000D03*
X90170000Y-101600000D03*
X90170000Y-99060000D03*
X90170000Y-96520000D03*
X90170000Y-93980000D03*
X90170000Y-91440000D03*
X90170000Y-88900000D03*
X90170000Y-86360000D03*
D14*
X90170000Y-83820000D03*
D10*
X193675000Y-105410000D03*
D11*
X196215000Y-105410000D03*
D12*
X198755000Y-113030000D03*
X192405000Y-115570000D03*
D10*
X193675000Y-86360000D03*
D11*
X196215000Y-86360000D03*
D12*
X198755000Y-93980000D03*
X192405000Y-96520000D03*
D10*
X174625000Y-105410000D03*
D11*
X177165000Y-105410000D03*
D12*
X179705000Y-113030000D03*
X173355000Y-115570000D03*
D10*
X174625000Y-86360000D03*
D11*
X177165000Y-86360000D03*
D12*
X179705000Y-93980000D03*
X173355000Y-96520000D03*
D10*
X155575000Y-105410000D03*
D11*
X158115000Y-105410000D03*
D12*
X160655000Y-113030000D03*
X154305000Y-115570000D03*
D10*
X155575000Y-86360000D03*
D11*
X158115000Y-86360000D03*
D12*
X160655000Y-93980000D03*
X154305000Y-96520000D03*
D10*
X136525000Y-105410000D03*
D11*
X139065000Y-105410000D03*
D12*
X141605000Y-113030000D03*
X135255000Y-115570000D03*
D10*
X117475000Y-105410000D03*
D11*
X120015000Y-105410000D03*
D12*
X122555000Y-113030000D03*
X116205000Y-115570000D03*
D10*
X117475000Y-86360000D03*
D11*
X120015000Y-86360000D03*
D12*
X122555000Y-93980000D03*
X116205000Y-96520000D03*
D15*
X104140000Y-115570000D03*
X122555000Y-100330000D03*
X122555000Y-100330000D03*
X141605000Y-100330000D03*
X160655000Y-100330000D03*
D16*
X105410000Y-96520000D02*
X103505000Y-98425000D01*
X103505000Y-98425000D02*
X103505000Y-114935000D01*
X103505000Y-114935000D02*
X104140000Y-115570000D01*
X104140000Y-115570000D02*
X104140000Y-115570000D01*
X116426099Y-92553073D02*
X116426099Y-87408901D01*
X116426099Y-87408901D02*
X117475000Y-86360000D01*
X117655001Y-93781975D02*
X116426099Y-92553073D01*
X117655001Y-105229999D02*
X117655001Y-93781975D01*
X117475000Y-105410000D02*
X117655001Y-105229999D01*
X122555000Y-113030000D02*
X122555000Y-101600000D01*
X122555000Y-101600000D02*
X122555000Y-100330000D01*
X122555000Y-100330000D02*
X122555000Y-100330000D01*
X122555000Y-100330000D02*
X122555000Y-93980000D01*
X141605000Y-113030000D02*
X141605000Y-101600000D01*
X141605000Y-101600000D02*
X141605000Y-100330000D01*
X141605000Y-100330000D02*
X141605000Y-93980000D01*
X160655000Y-113030000D02*
X160655000Y-100330000D01*
X160655000Y-100330000D02*
X160655000Y-93980000D01*
X179705000Y-113030000D02*
X179705000Y-93980000D01*
X198755000Y-113030000D02*
X198755000Y-93980000D01*
D17*
X215215001Y-121235000D02*
X79425000Y-121235000D01*
X79425000Y-118402845D01*
X82436761Y-118402845D01*
X82604802Y-118728643D01*
X82996607Y-118929426D01*
X83420055Y-119049914D01*
X83858873Y-119085476D01*
X84296197Y-119034746D01*
X84715221Y-118899674D01*
X85035198Y-118728643D01*
X85203239Y-118402845D01*
X83820000Y-117019605D01*
X82436761Y-118402845D01*
X79425000Y-118402845D01*
X79425000Y-116878873D01*
X81574524Y-116878873D01*
X81625254Y-117316197D01*
X81760326Y-117735221D01*
X81931357Y-118055198D01*
X82257155Y-118223239D01*
X83640395Y-116840000D01*
X83999605Y-116840000D01*
X85382845Y-118223239D01*
X85708643Y-118055198D01*
X85909426Y-117663393D01*
X86029914Y-117239945D01*
X86065476Y-116801127D01*
X86014746Y-116363803D01*
X85879674Y-115944779D01*
X85708643Y-115624802D01*
X85382845Y-115456761D01*
X83999605Y-116840000D01*
X83640395Y-116840000D01*
X82257155Y-115456761D01*
X81931357Y-115624802D01*
X81730574Y-116016607D01*
X81610086Y-116440055D01*
X81574524Y-116878873D01*
X79425000Y-116878873D01*
X79425000Y-115277155D01*
X82436761Y-115277155D01*
X83820000Y-116660395D01*
X85203239Y-115277155D01*
X85035198Y-114951357D01*
X84643393Y-114750574D01*
X84219945Y-114630086D01*
X83781127Y-114594524D01*
X83343803Y-114645254D01*
X82924779Y-114780326D01*
X82604802Y-114951357D01*
X82436761Y-115277155D01*
X79425000Y-115277155D01*
X79425000Y-93838665D01*
X88735000Y-93838665D01*
X88735000Y-94121335D01*
X88790147Y-94398574D01*
X88898320Y-94659727D01*
X89055363Y-94894759D01*
X89255241Y-95094637D01*
X89487759Y-95250000D01*
X89255241Y-95405363D01*
X89055363Y-95605241D01*
X88898320Y-95840273D01*
X88790147Y-96101426D01*
X88735000Y-96378665D01*
X88735000Y-96661335D01*
X88790147Y-96938574D01*
X88898320Y-97199727D01*
X89055363Y-97434759D01*
X89255241Y-97634637D01*
X89487759Y-97790000D01*
X89255241Y-97945363D01*
X89055363Y-98145241D01*
X88898320Y-98380273D01*
X88790147Y-98641426D01*
X88735000Y-98918665D01*
X88735000Y-99201335D01*
X88790147Y-99478574D01*
X88898320Y-99739727D01*
X89055363Y-99974759D01*
X89255241Y-100174637D01*
X89487759Y-100330000D01*
X89255241Y-100485363D01*
X89055363Y-100685241D01*
X88898320Y-100920273D01*
X88790147Y-101181426D01*
X88735000Y-101458665D01*
X88735000Y-101741335D01*
X88790147Y-102018574D01*
X88898320Y-102279727D01*
X89055363Y-102514759D01*
X89255241Y-102714637D01*
X89487759Y-102870000D01*
X89255241Y-103025363D01*
X89055363Y-103225241D01*
X88898320Y-103460273D01*
X88790147Y-103721426D01*
X88735000Y-103998665D01*
X88735000Y-104281335D01*
X88790147Y-104558574D01*
X88898320Y-104819727D01*
X89055363Y-105054759D01*
X89255241Y-105254637D01*
X89487759Y-105410000D01*
X89255241Y-105565363D01*
X89055363Y-105765241D01*
X88898320Y-106000273D01*
X88790147Y-106261426D01*
X88735000Y-106538665D01*
X88735000Y-106821335D01*
X88790147Y-107098574D01*
X88898320Y-107359727D01*
X89055363Y-107594759D01*
X89255241Y-107794637D01*
X89487759Y-107950000D01*
X89255241Y-108105363D01*
X89055363Y-108305241D01*
X88898320Y-108540273D01*
X88790147Y-108801426D01*
X88735000Y-109078665D01*
X88735000Y-109361335D01*
X88790147Y-109638574D01*
X88898320Y-109899727D01*
X89055363Y-110134759D01*
X89255241Y-110334637D01*
X89487759Y-110490000D01*
X89255241Y-110645363D01*
X89055363Y-110845241D01*
X88898320Y-111080273D01*
X88790147Y-111341426D01*
X88735000Y-111618665D01*
X88735000Y-111901335D01*
X88790147Y-112178574D01*
X88898320Y-112439727D01*
X89055363Y-112674759D01*
X89255241Y-112874637D01*
X89490273Y-113031680D01*
X89751426Y-113139853D01*
X90028665Y-113195000D01*
X90311335Y-113195000D01*
X90588574Y-113139853D01*
X90849727Y-113031680D01*
X91084759Y-112874637D01*
X91284637Y-112674759D01*
X91441680Y-112439727D01*
X91549853Y-112178574D01*
X91605000Y-111901335D01*
X91605000Y-111618665D01*
X91549853Y-111341426D01*
X91441680Y-111080273D01*
X91284637Y-110845241D01*
X91084759Y-110645363D01*
X90852241Y-110490000D01*
X91084759Y-110334637D01*
X91284637Y-110134759D01*
X91441680Y-109899727D01*
X91549853Y-109638574D01*
X91605000Y-109361335D01*
X91605000Y-109078665D01*
X91549853Y-108801426D01*
X91441680Y-108540273D01*
X91284637Y-108305241D01*
X91084759Y-108105363D01*
X90852241Y-107950000D01*
X91084759Y-107794637D01*
X91284637Y-107594759D01*
X91441680Y-107359727D01*
X91549853Y-107098574D01*
X91605000Y-106821335D01*
X91605000Y-106538665D01*
X91549853Y-106261426D01*
X91441680Y-106000273D01*
X91284637Y-105765241D01*
X91084759Y-105565363D01*
X90852241Y-105410000D01*
X91084759Y-105254637D01*
X91284637Y-105054759D01*
X91441680Y-104819727D01*
X91549853Y-104558574D01*
X91605000Y-104281335D01*
X91605000Y-103998665D01*
X91549853Y-103721426D01*
X91441680Y-103460273D01*
X91284637Y-103225241D01*
X91084759Y-103025363D01*
X90852241Y-102870000D01*
X91084759Y-102714637D01*
X91284637Y-102514759D01*
X91441680Y-102279727D01*
X91549853Y-102018574D01*
X91605000Y-101741335D01*
X91605000Y-101458665D01*
X91549853Y-101181426D01*
X91441680Y-100920273D01*
X91284637Y-100685241D01*
X91084759Y-100485363D01*
X90852241Y-100330000D01*
X91084759Y-100174637D01*
X91284637Y-99974759D01*
X91441680Y-99739727D01*
X91549853Y-99478574D01*
X91605000Y-99201335D01*
X91605000Y-98918665D01*
X91549853Y-98641426D01*
X91460207Y-98425000D01*
X102741324Y-98425000D01*
X102745000Y-98462322D01*
X102745001Y-114897667D01*
X102741324Y-114935000D01*
X102755998Y-115083985D01*
X102799454Y-115227246D01*
X102870026Y-115359276D01*
X102900703Y-115396655D01*
X102965000Y-115475001D01*
X102993998Y-115498799D01*
X103105000Y-115609801D01*
X103105000Y-115671939D01*
X103144774Y-115871898D01*
X103222795Y-116060256D01*
X103336063Y-116229774D01*
X103480226Y-116373937D01*
X103649744Y-116487205D01*
X103838102Y-116565226D01*
X104038061Y-116605000D01*
X104241939Y-116605000D01*
X104441898Y-116565226D01*
X104630256Y-116487205D01*
X104799774Y-116373937D01*
X104943937Y-116229774D01*
X105057205Y-116060256D01*
X105135226Y-115871898D01*
X105175000Y-115671939D01*
X105175000Y-115468061D01*
X105160797Y-115396655D01*
X114445000Y-115396655D01*
X114445000Y-115743345D01*
X114512636Y-116083373D01*
X114645308Y-116403673D01*
X114837919Y-116691935D01*
X115083065Y-116937081D01*
X115371327Y-117129692D01*
X115691627Y-117262364D01*
X116031655Y-117330000D01*
X116378345Y-117330000D01*
X116718373Y-117262364D01*
X117038673Y-117129692D01*
X117326935Y-116937081D01*
X117572081Y-116691935D01*
X117764692Y-116403673D01*
X117897364Y-116083373D01*
X117965000Y-115743345D01*
X117965000Y-115396655D01*
X133495000Y-115396655D01*
X133495000Y-115743345D01*
X133562636Y-116083373D01*
X133695308Y-116403673D01*
X133887919Y-116691935D01*
X134133065Y-116937081D01*
X134421327Y-117129692D01*
X134741627Y-117262364D01*
X135081655Y-117330000D01*
X135428345Y-117330000D01*
X135768373Y-117262364D01*
X136088673Y-117129692D01*
X136376935Y-116937081D01*
X136622081Y-116691935D01*
X136814692Y-116403673D01*
X136947364Y-116083373D01*
X137015000Y-115743345D01*
X137015000Y-115396655D01*
X152545000Y-115396655D01*
X152545000Y-115743345D01*
X152612636Y-116083373D01*
X152745308Y-116403673D01*
X152937919Y-116691935D01*
X153183065Y-116937081D01*
X153471327Y-117129692D01*
X153791627Y-117262364D01*
X154131655Y-117330000D01*
X154478345Y-117330000D01*
X154818373Y-117262364D01*
X155138673Y-117129692D01*
X155426935Y-116937081D01*
X155672081Y-116691935D01*
X155864692Y-116403673D01*
X155997364Y-116083373D01*
X156065000Y-115743345D01*
X156065000Y-115396655D01*
X171595000Y-115396655D01*
X171595000Y-115743345D01*
X171662636Y-116083373D01*
X171795308Y-116403673D01*
X171987919Y-116691935D01*
X172233065Y-116937081D01*
X172521327Y-117129692D01*
X172841627Y-117262364D01*
X173181655Y-117330000D01*
X173528345Y-117330000D01*
X173868373Y-117262364D01*
X174188673Y-117129692D01*
X174476935Y-116937081D01*
X174722081Y-116691935D01*
X174914692Y-116403673D01*
X175047364Y-116083373D01*
X175115000Y-115743345D01*
X175115000Y-115396655D01*
X190645000Y-115396655D01*
X190645000Y-115743345D01*
X190712636Y-116083373D01*
X190845308Y-116403673D01*
X191037919Y-116691935D01*
X191283065Y-116937081D01*
X191571327Y-117129692D01*
X191891627Y-117262364D01*
X192231655Y-117330000D01*
X192578345Y-117330000D01*
X192918373Y-117262364D01*
X193231060Y-117132845D01*
X208166761Y-117132845D01*
X208334802Y-117458643D01*
X208726607Y-117659426D01*
X209150055Y-117779914D01*
X209588873Y-117815476D01*
X210026197Y-117764746D01*
X210445221Y-117629674D01*
X210765198Y-117458643D01*
X210933239Y-117132845D01*
X209550000Y-115749605D01*
X208166761Y-117132845D01*
X193231060Y-117132845D01*
X193238673Y-117129692D01*
X193526935Y-116937081D01*
X193772081Y-116691935D01*
X193964692Y-116403673D01*
X194097364Y-116083373D01*
X194165000Y-115743345D01*
X194165000Y-115608873D01*
X207304524Y-115608873D01*
X207355254Y-116046197D01*
X207490326Y-116465221D01*
X207661357Y-116785198D01*
X207987155Y-116953239D01*
X209370395Y-115570000D01*
X209729605Y-115570000D01*
X211112845Y-116953239D01*
X211438643Y-116785198D01*
X211639426Y-116393393D01*
X211759914Y-115969945D01*
X211795476Y-115531127D01*
X211744746Y-115093803D01*
X211609674Y-114674779D01*
X211438643Y-114354802D01*
X211112845Y-114186761D01*
X209729605Y-115570000D01*
X209370395Y-115570000D01*
X207987155Y-114186761D01*
X207661357Y-114354802D01*
X207460574Y-114746607D01*
X207340086Y-115170055D01*
X207304524Y-115608873D01*
X194165000Y-115608873D01*
X194165000Y-115396655D01*
X194097364Y-115056627D01*
X193964692Y-114736327D01*
X193772081Y-114448065D01*
X193526935Y-114202919D01*
X193238673Y-114010308D01*
X192918373Y-113877636D01*
X192578345Y-113810000D01*
X192231655Y-113810000D01*
X191891627Y-113877636D01*
X191571327Y-114010308D01*
X191283065Y-114202919D01*
X191037919Y-114448065D01*
X190845308Y-114736327D01*
X190712636Y-115056627D01*
X190645000Y-115396655D01*
X175115000Y-115396655D01*
X175047364Y-115056627D01*
X174914692Y-114736327D01*
X174722081Y-114448065D01*
X174476935Y-114202919D01*
X174188673Y-114010308D01*
X173868373Y-113877636D01*
X173528345Y-113810000D01*
X173181655Y-113810000D01*
X172841627Y-113877636D01*
X172521327Y-114010308D01*
X172233065Y-114202919D01*
X171987919Y-114448065D01*
X171795308Y-114736327D01*
X171662636Y-115056627D01*
X171595000Y-115396655D01*
X156065000Y-115396655D01*
X155997364Y-115056627D01*
X155864692Y-114736327D01*
X155672081Y-114448065D01*
X155426935Y-114202919D01*
X155138673Y-114010308D01*
X154818373Y-113877636D01*
X154478345Y-113810000D01*
X154131655Y-113810000D01*
X153791627Y-113877636D01*
X153471327Y-114010308D01*
X153183065Y-114202919D01*
X152937919Y-114448065D01*
X152745308Y-114736327D01*
X152612636Y-115056627D01*
X152545000Y-115396655D01*
X137015000Y-115396655D01*
X136947364Y-115056627D01*
X136814692Y-114736327D01*
X136622081Y-114448065D01*
X136376935Y-114202919D01*
X136088673Y-114010308D01*
X135768373Y-113877636D01*
X135428345Y-113810000D01*
X135081655Y-113810000D01*
X134741627Y-113877636D01*
X134421327Y-114010308D01*
X134133065Y-114202919D01*
X133887919Y-114448065D01*
X133695308Y-114736327D01*
X133562636Y-115056627D01*
X133495000Y-115396655D01*
X117965000Y-115396655D01*
X117897364Y-115056627D01*
X117764692Y-114736327D01*
X117572081Y-114448065D01*
X117326935Y-114202919D01*
X117038673Y-114010308D01*
X116718373Y-113877636D01*
X116378345Y-113810000D01*
X116031655Y-113810000D01*
X115691627Y-113877636D01*
X115371327Y-114010308D01*
X115083065Y-114202919D01*
X114837919Y-114448065D01*
X114645308Y-114736327D01*
X114512636Y-115056627D01*
X114445000Y-115396655D01*
X105160797Y-115396655D01*
X105135226Y-115268102D01*
X105057205Y-115079744D01*
X104943937Y-114910226D01*
X104799774Y-114766063D01*
X104630256Y-114652795D01*
X104441898Y-114574774D01*
X104265000Y-114539587D01*
X104265000Y-112629317D01*
X104295363Y-112674759D01*
X104495241Y-112874637D01*
X104730273Y-113031680D01*
X104991426Y-113139853D01*
X105268665Y-113195000D01*
X105551335Y-113195000D01*
X105828574Y-113139853D01*
X106089727Y-113031680D01*
X106324759Y-112874637D01*
X106524637Y-112674759D01*
X106681680Y-112439727D01*
X106789853Y-112178574D01*
X106845000Y-111901335D01*
X106845000Y-111618665D01*
X106789853Y-111341426D01*
X106681680Y-111080273D01*
X106524637Y-110845241D01*
X106324759Y-110645363D01*
X106092241Y-110490000D01*
X106314820Y-110341278D01*
X112155000Y-110341278D01*
X112155000Y-110638722D01*
X112213029Y-110930451D01*
X112326856Y-111205253D01*
X112492107Y-111452569D01*
X112702431Y-111662893D01*
X112949747Y-111828144D01*
X113224549Y-111941971D01*
X113516278Y-112000000D01*
X113813722Y-112000000D01*
X114105451Y-111941971D01*
X114380253Y-111828144D01*
X114627569Y-111662893D01*
X114837893Y-111452569D01*
X115003144Y-111205253D01*
X115116971Y-110930451D01*
X115175000Y-110638722D01*
X115175000Y-110341278D01*
X115153080Y-110231076D01*
X116116100Y-110231076D01*
X116116100Y-110748924D01*
X116217127Y-111256822D01*
X116415299Y-111735251D01*
X116703000Y-112165826D01*
X117069174Y-112532000D01*
X117499749Y-112819701D01*
X117978178Y-113017873D01*
X118486076Y-113118900D01*
X119003924Y-113118900D01*
X119511822Y-113017873D01*
X119990251Y-112819701D01*
X120420826Y-112532000D01*
X120787000Y-112165826D01*
X121074701Y-111735251D01*
X121272873Y-111256822D01*
X121373900Y-110748924D01*
X121373900Y-110231076D01*
X121272873Y-109723178D01*
X121074701Y-109244749D01*
X120787000Y-108814174D01*
X120420826Y-108448000D01*
X119990251Y-108160299D01*
X119511822Y-107962127D01*
X119003924Y-107861100D01*
X118486076Y-107861100D01*
X117978178Y-107962127D01*
X117499749Y-108160299D01*
X117069174Y-108448000D01*
X116703000Y-108814174D01*
X116415299Y-109244749D01*
X116217127Y-109723178D01*
X116116100Y-110231076D01*
X115153080Y-110231076D01*
X115116971Y-110049549D01*
X115003144Y-109774747D01*
X114837893Y-109527431D01*
X114627569Y-109317107D01*
X114380253Y-109151856D01*
X114105451Y-109038029D01*
X113813722Y-108980000D01*
X113516278Y-108980000D01*
X113224549Y-109038029D01*
X112949747Y-109151856D01*
X112702431Y-109317107D01*
X112492107Y-109527431D01*
X112326856Y-109774747D01*
X112213029Y-110049549D01*
X112155000Y-110341278D01*
X106314820Y-110341278D01*
X106324759Y-110334637D01*
X106524637Y-110134759D01*
X106681680Y-109899727D01*
X106789853Y-109638574D01*
X106845000Y-109361335D01*
X106845000Y-109078665D01*
X106789853Y-108801426D01*
X106681680Y-108540273D01*
X106524637Y-108305241D01*
X106324759Y-108105363D01*
X106092241Y-107950000D01*
X106324759Y-107794637D01*
X106524637Y-107594759D01*
X106681680Y-107359727D01*
X106789853Y-107098574D01*
X106845000Y-106821335D01*
X106845000Y-106538665D01*
X106789853Y-106261426D01*
X106681680Y-106000273D01*
X106524637Y-105765241D01*
X106324759Y-105565363D01*
X106092241Y-105410000D01*
X106324759Y-105254637D01*
X106524637Y-105054759D01*
X106681680Y-104819727D01*
X106789853Y-104558574D01*
X106845000Y-104281335D01*
X106845000Y-103998665D01*
X106789853Y-103721426D01*
X106681680Y-103460273D01*
X106524637Y-103225241D01*
X106324759Y-103025363D01*
X106092241Y-102870000D01*
X106324759Y-102714637D01*
X106524637Y-102514759D01*
X106681680Y-102279727D01*
X106789853Y-102018574D01*
X106845000Y-101741335D01*
X106845000Y-101458665D01*
X106789853Y-101181426D01*
X106681680Y-100920273D01*
X106524637Y-100685241D01*
X106324759Y-100485363D01*
X106092241Y-100330000D01*
X106324759Y-100174637D01*
X106524637Y-99974759D01*
X106681680Y-99739727D01*
X106789853Y-99478574D01*
X106845000Y-99201335D01*
X106845000Y-98918665D01*
X106789853Y-98641426D01*
X106681680Y-98380273D01*
X106524637Y-98145241D01*
X106324759Y-97945363D01*
X106092241Y-97790000D01*
X106324759Y-97634637D01*
X106524637Y-97434759D01*
X106681680Y-97199727D01*
X106789853Y-96938574D01*
X106845000Y-96661335D01*
X106845000Y-96378665D01*
X106838633Y-96346655D01*
X114445000Y-96346655D01*
X114445000Y-96693345D01*
X114512636Y-97033373D01*
X114645308Y-97353673D01*
X114837919Y-97641935D01*
X115083065Y-97887081D01*
X115371327Y-98079692D01*
X115691627Y-98212364D01*
X116031655Y-98280000D01*
X116378345Y-98280000D01*
X116718373Y-98212364D01*
X116895002Y-98139202D01*
X116895001Y-103819428D01*
X116522500Y-103819428D01*
X116398018Y-103831688D01*
X116278320Y-103867998D01*
X116168006Y-103926963D01*
X116071315Y-104006315D01*
X115991963Y-104103006D01*
X115932998Y-104213320D01*
X115896688Y-104333018D01*
X115884428Y-104457500D01*
X115884428Y-106362500D01*
X115896688Y-106486982D01*
X115932998Y-106606680D01*
X115991963Y-106716994D01*
X116071315Y-106813685D01*
X116168006Y-106893037D01*
X116278320Y-106952002D01*
X116398018Y-106988312D01*
X116522500Y-107000572D01*
X118427500Y-107000572D01*
X118551982Y-106988312D01*
X118671680Y-106952002D01*
X118781994Y-106893037D01*
X118878685Y-106813685D01*
X118958037Y-106716994D01*
X118999451Y-106639515D01*
X119003028Y-106643092D01*
X119263037Y-106816824D01*
X119551943Y-106936493D01*
X119858645Y-106997500D01*
X120171355Y-106997500D01*
X120478057Y-106936493D01*
X120766963Y-106816824D01*
X121026972Y-106643092D01*
X121248092Y-106421972D01*
X121421824Y-106161963D01*
X121541493Y-105873057D01*
X121602500Y-105566355D01*
X121602500Y-105253645D01*
X121541493Y-104946943D01*
X121421824Y-104658037D01*
X121248092Y-104398028D01*
X121026972Y-104176908D01*
X120766963Y-104003176D01*
X120478057Y-103883507D01*
X120171355Y-103822500D01*
X119858645Y-103822500D01*
X119551943Y-103883507D01*
X119263037Y-104003176D01*
X119003028Y-104176908D01*
X118999451Y-104180485D01*
X118958037Y-104103006D01*
X118878685Y-104006315D01*
X118781994Y-103926963D01*
X118671680Y-103867998D01*
X118551982Y-103831688D01*
X118427500Y-103819428D01*
X118415001Y-103819428D01*
X118415001Y-94054762D01*
X118486076Y-94068900D01*
X119003924Y-94068900D01*
X119511822Y-93967873D01*
X119901036Y-93806655D01*
X120795000Y-93806655D01*
X120795000Y-94153345D01*
X120862636Y-94493373D01*
X120995308Y-94813673D01*
X121187919Y-95101935D01*
X121433065Y-95347081D01*
X121721327Y-95539692D01*
X121795001Y-95570209D01*
X121795000Y-99626289D01*
X121751063Y-99670226D01*
X121637795Y-99839744D01*
X121559774Y-100028102D01*
X121520000Y-100228061D01*
X121520000Y-100431939D01*
X121559774Y-100631898D01*
X121637795Y-100820256D01*
X121751063Y-100989774D01*
X121795000Y-101033711D01*
X121795000Y-101637332D01*
X121795001Y-101637342D01*
X121795000Y-111439792D01*
X121721327Y-111470308D01*
X121433065Y-111662919D01*
X121187919Y-111908065D01*
X120995308Y-112196327D01*
X120862636Y-112516627D01*
X120795000Y-112856655D01*
X120795000Y-113203345D01*
X120862636Y-113543373D01*
X120995308Y-113863673D01*
X121187919Y-114151935D01*
X121433065Y-114397081D01*
X121721327Y-114589692D01*
X122041627Y-114722364D01*
X122381655Y-114790000D01*
X122728345Y-114790000D01*
X123068373Y-114722364D01*
X123388673Y-114589692D01*
X123676935Y-114397081D01*
X123922081Y-114151935D01*
X124114692Y-113863673D01*
X124247364Y-113543373D01*
X124315000Y-113203345D01*
X124315000Y-112856655D01*
X124247364Y-112516627D01*
X124114692Y-112196327D01*
X123982362Y-111998281D01*
X124265451Y-111941971D01*
X124540253Y-111828144D01*
X124787569Y-111662893D01*
X124997893Y-111452569D01*
X125163144Y-111205253D01*
X125276971Y-110930451D01*
X125335000Y-110638722D01*
X125335000Y-110341278D01*
X131205000Y-110341278D01*
X131205000Y-110638722D01*
X131263029Y-110930451D01*
X131376856Y-111205253D01*
X131542107Y-111452569D01*
X131752431Y-111662893D01*
X131999747Y-111828144D01*
X132274549Y-111941971D01*
X132566278Y-112000000D01*
X132863722Y-112000000D01*
X133155451Y-111941971D01*
X133430253Y-111828144D01*
X133677569Y-111662893D01*
X133887893Y-111452569D01*
X134053144Y-111205253D01*
X134166971Y-110930451D01*
X134225000Y-110638722D01*
X134225000Y-110341278D01*
X134203080Y-110231076D01*
X135166100Y-110231076D01*
X135166100Y-110748924D01*
X135267127Y-111256822D01*
X135465299Y-111735251D01*
X135753000Y-112165826D01*
X136119174Y-112532000D01*
X136549749Y-112819701D01*
X137028178Y-113017873D01*
X137536076Y-113118900D01*
X138053924Y-113118900D01*
X138561822Y-113017873D01*
X139040251Y-112819701D01*
X139470826Y-112532000D01*
X139837000Y-112165826D01*
X140124701Y-111735251D01*
X140322873Y-111256822D01*
X140423900Y-110748924D01*
X140423900Y-110231076D01*
X140322873Y-109723178D01*
X140124701Y-109244749D01*
X139837000Y-108814174D01*
X139470826Y-108448000D01*
X139040251Y-108160299D01*
X138561822Y-107962127D01*
X138053924Y-107861100D01*
X137536076Y-107861100D01*
X137028178Y-107962127D01*
X136549749Y-108160299D01*
X136119174Y-108448000D01*
X135753000Y-108814174D01*
X135465299Y-109244749D01*
X135267127Y-109723178D01*
X135166100Y-110231076D01*
X134203080Y-110231076D01*
X134166971Y-110049549D01*
X134053144Y-109774747D01*
X133887893Y-109527431D01*
X133677569Y-109317107D01*
X133430253Y-109151856D01*
X133155451Y-109038029D01*
X132863722Y-108980000D01*
X132566278Y-108980000D01*
X132274549Y-109038029D01*
X131999747Y-109151856D01*
X131752431Y-109317107D01*
X131542107Y-109527431D01*
X131376856Y-109774747D01*
X131263029Y-110049549D01*
X131205000Y-110341278D01*
X125335000Y-110341278D01*
X125276971Y-110049549D01*
X125163144Y-109774747D01*
X124997893Y-109527431D01*
X124787569Y-109317107D01*
X124540253Y-109151856D01*
X124265451Y-109038029D01*
X123973722Y-108980000D01*
X123676278Y-108980000D01*
X123384549Y-109038029D01*
X123315000Y-109066837D01*
X123315000Y-104457500D01*
X134934428Y-104457500D01*
X134934428Y-106362500D01*
X134946688Y-106486982D01*
X134982998Y-106606680D01*
X135041963Y-106716994D01*
X135121315Y-106813685D01*
X135218006Y-106893037D01*
X135328320Y-106952002D01*
X135448018Y-106988312D01*
X135572500Y-107000572D01*
X137477500Y-107000572D01*
X137601982Y-106988312D01*
X137721680Y-106952002D01*
X137831994Y-106893037D01*
X137928685Y-106813685D01*
X138008037Y-106716994D01*
X138049451Y-106639515D01*
X138053028Y-106643092D01*
X138313037Y-106816824D01*
X138601943Y-106936493D01*
X138908645Y-106997500D01*
X139221355Y-106997500D01*
X139528057Y-106936493D01*
X139816963Y-106816824D01*
X140076972Y-106643092D01*
X140298092Y-106421972D01*
X140471824Y-106161963D01*
X140591493Y-105873057D01*
X140652500Y-105566355D01*
X140652500Y-105253645D01*
X140591493Y-104946943D01*
X140471824Y-104658037D01*
X140298092Y-104398028D01*
X140076972Y-104176908D01*
X139816963Y-104003176D01*
X139528057Y-103883507D01*
X139221355Y-103822500D01*
X138908645Y-103822500D01*
X138601943Y-103883507D01*
X138313037Y-104003176D01*
X138053028Y-104176908D01*
X138049451Y-104180485D01*
X138008037Y-104103006D01*
X137928685Y-104006315D01*
X137831994Y-103926963D01*
X137721680Y-103867998D01*
X137601982Y-103831688D01*
X137477500Y-103819428D01*
X135572500Y-103819428D01*
X135448018Y-103831688D01*
X135328320Y-103867998D01*
X135218006Y-103926963D01*
X135121315Y-104006315D01*
X135041963Y-104103006D01*
X134982998Y-104213320D01*
X134946688Y-104333018D01*
X134934428Y-104457500D01*
X123315000Y-104457500D01*
X123315000Y-101033711D01*
X123358937Y-100989774D01*
X123472205Y-100820256D01*
X123550226Y-100631898D01*
X123590000Y-100431939D01*
X123590000Y-100228061D01*
X123550226Y-100028102D01*
X123472205Y-99839744D01*
X123358937Y-99670226D01*
X123315000Y-99626289D01*
X123315000Y-96346655D01*
X133495000Y-96346655D01*
X133495000Y-96693345D01*
X133562636Y-97033373D01*
X133695308Y-97353673D01*
X133887919Y-97641935D01*
X134133065Y-97887081D01*
X134421327Y-98079692D01*
X134741627Y-98212364D01*
X135081655Y-98280000D01*
X135428345Y-98280000D01*
X135768373Y-98212364D01*
X136088673Y-98079692D01*
X136376935Y-97887081D01*
X136622081Y-97641935D01*
X136814692Y-97353673D01*
X136947364Y-97033373D01*
X137015000Y-96693345D01*
X137015000Y-96346655D01*
X136947364Y-96006627D01*
X136814692Y-95686327D01*
X136622081Y-95398065D01*
X136376935Y-95152919D01*
X136088673Y-94960308D01*
X135768373Y-94827636D01*
X135428345Y-94760000D01*
X135081655Y-94760000D01*
X134741627Y-94827636D01*
X134421327Y-94960308D01*
X134133065Y-95152919D01*
X133887919Y-95398065D01*
X133695308Y-95686327D01*
X133562636Y-96006627D01*
X133495000Y-96346655D01*
X123315000Y-96346655D01*
X123315000Y-95570208D01*
X123388673Y-95539692D01*
X123676935Y-95347081D01*
X123922081Y-95101935D01*
X124114692Y-94813673D01*
X124247364Y-94493373D01*
X124315000Y-94153345D01*
X124315000Y-93806655D01*
X124247364Y-93466627D01*
X124114692Y-93146327D01*
X123982362Y-92948281D01*
X124265451Y-92891971D01*
X124540253Y-92778144D01*
X124787569Y-92612893D01*
X124997893Y-92402569D01*
X125163144Y-92155253D01*
X125276971Y-91880451D01*
X125335000Y-91588722D01*
X125335000Y-91291278D01*
X131205000Y-91291278D01*
X131205000Y-91588722D01*
X131263029Y-91880451D01*
X131376856Y-92155253D01*
X131542107Y-92402569D01*
X131752431Y-92612893D01*
X131999747Y-92778144D01*
X132274549Y-92891971D01*
X132566278Y-92950000D01*
X132863722Y-92950000D01*
X133155451Y-92891971D01*
X133430253Y-92778144D01*
X133677569Y-92612893D01*
X133887893Y-92402569D01*
X134053144Y-92155253D01*
X134166971Y-91880451D01*
X134225000Y-91588722D01*
X134225000Y-91291278D01*
X134203080Y-91181076D01*
X135166100Y-91181076D01*
X135166100Y-91698924D01*
X135267127Y-92206822D01*
X135465299Y-92685251D01*
X135753000Y-93115826D01*
X136119174Y-93482000D01*
X136549749Y-93769701D01*
X137028178Y-93967873D01*
X137536076Y-94068900D01*
X138053924Y-94068900D01*
X138561822Y-93967873D01*
X138951036Y-93806655D01*
X139845000Y-93806655D01*
X139845000Y-94153345D01*
X139912636Y-94493373D01*
X140045308Y-94813673D01*
X140237919Y-95101935D01*
X140483065Y-95347081D01*
X140771327Y-95539692D01*
X140845001Y-95570209D01*
X140845000Y-99626289D01*
X140801063Y-99670226D01*
X140687795Y-99839744D01*
X140609774Y-100028102D01*
X140570000Y-100228061D01*
X140570000Y-100431939D01*
X140609774Y-100631898D01*
X140687795Y-100820256D01*
X140801063Y-100989774D01*
X140845000Y-101033711D01*
X140845000Y-101637332D01*
X140845001Y-101637342D01*
X140845000Y-111439792D01*
X140771327Y-111470308D01*
X140483065Y-111662919D01*
X140237919Y-111908065D01*
X140045308Y-112196327D01*
X139912636Y-112516627D01*
X139845000Y-112856655D01*
X139845000Y-113203345D01*
X139912636Y-113543373D01*
X140045308Y-113863673D01*
X140237919Y-114151935D01*
X140483065Y-114397081D01*
X140771327Y-114589692D01*
X141091627Y-114722364D01*
X141431655Y-114790000D01*
X141778345Y-114790000D01*
X142118373Y-114722364D01*
X142438673Y-114589692D01*
X142726935Y-114397081D01*
X142972081Y-114151935D01*
X143164692Y-113863673D01*
X143297364Y-113543373D01*
X143365000Y-113203345D01*
X143365000Y-112856655D01*
X143297364Y-112516627D01*
X143164692Y-112196327D01*
X143032362Y-111998281D01*
X143315451Y-111941971D01*
X143590253Y-111828144D01*
X143837569Y-111662893D01*
X144047893Y-111452569D01*
X144213144Y-111205253D01*
X144326971Y-110930451D01*
X144385000Y-110638722D01*
X144385000Y-110341278D01*
X150255000Y-110341278D01*
X150255000Y-110638722D01*
X150313029Y-110930451D01*
X150426856Y-111205253D01*
X150592107Y-111452569D01*
X150802431Y-111662893D01*
X151049747Y-111828144D01*
X151324549Y-111941971D01*
X151616278Y-112000000D01*
X151913722Y-112000000D01*
X152205451Y-111941971D01*
X152480253Y-111828144D01*
X152727569Y-111662893D01*
X152937893Y-111452569D01*
X153103144Y-111205253D01*
X153216971Y-110930451D01*
X153275000Y-110638722D01*
X153275000Y-110341278D01*
X153253080Y-110231076D01*
X154216100Y-110231076D01*
X154216100Y-110748924D01*
X154317127Y-111256822D01*
X154515299Y-111735251D01*
X154803000Y-112165826D01*
X155169174Y-112532000D01*
X155599749Y-112819701D01*
X156078178Y-113017873D01*
X156586076Y-113118900D01*
X157103924Y-113118900D01*
X157611822Y-113017873D01*
X158090251Y-112819701D01*
X158520826Y-112532000D01*
X158887000Y-112165826D01*
X159174701Y-111735251D01*
X159372873Y-111256822D01*
X159473900Y-110748924D01*
X159473900Y-110231076D01*
X159372873Y-109723178D01*
X159174701Y-109244749D01*
X158887000Y-108814174D01*
X158520826Y-108448000D01*
X158090251Y-108160299D01*
X157611822Y-107962127D01*
X157103924Y-107861100D01*
X156586076Y-107861100D01*
X156078178Y-107962127D01*
X155599749Y-108160299D01*
X155169174Y-108448000D01*
X154803000Y-108814174D01*
X154515299Y-109244749D01*
X154317127Y-109723178D01*
X154216100Y-110231076D01*
X153253080Y-110231076D01*
X153216971Y-110049549D01*
X153103144Y-109774747D01*
X152937893Y-109527431D01*
X152727569Y-109317107D01*
X152480253Y-109151856D01*
X152205451Y-109038029D01*
X151913722Y-108980000D01*
X151616278Y-108980000D01*
X151324549Y-109038029D01*
X151049747Y-109151856D01*
X150802431Y-109317107D01*
X150592107Y-109527431D01*
X150426856Y-109774747D01*
X150313029Y-110049549D01*
X150255000Y-110341278D01*
X144385000Y-110341278D01*
X144326971Y-110049549D01*
X144213144Y-109774747D01*
X144047893Y-109527431D01*
X143837569Y-109317107D01*
X143590253Y-109151856D01*
X143315451Y-109038029D01*
X143023722Y-108980000D01*
X142726278Y-108980000D01*
X142434549Y-109038029D01*
X142365000Y-109066837D01*
X142365000Y-104457500D01*
X153984428Y-104457500D01*
X153984428Y-106362500D01*
X153996688Y-106486982D01*
X154032998Y-106606680D01*
X154091963Y-106716994D01*
X154171315Y-106813685D01*
X154268006Y-106893037D01*
X154378320Y-106952002D01*
X154498018Y-106988312D01*
X154622500Y-107000572D01*
X156527500Y-107000572D01*
X156651982Y-106988312D01*
X156771680Y-106952002D01*
X156881994Y-106893037D01*
X156978685Y-106813685D01*
X157058037Y-106716994D01*
X157099451Y-106639515D01*
X157103028Y-106643092D01*
X157363037Y-106816824D01*
X157651943Y-106936493D01*
X157958645Y-106997500D01*
X158271355Y-106997500D01*
X158578057Y-106936493D01*
X158866963Y-106816824D01*
X159126972Y-106643092D01*
X159348092Y-106421972D01*
X159521824Y-106161963D01*
X159641493Y-105873057D01*
X159702500Y-105566355D01*
X159702500Y-105253645D01*
X159641493Y-104946943D01*
X159521824Y-104658037D01*
X159348092Y-104398028D01*
X159126972Y-104176908D01*
X158866963Y-104003176D01*
X158578057Y-103883507D01*
X158271355Y-103822500D01*
X157958645Y-103822500D01*
X157651943Y-103883507D01*
X157363037Y-104003176D01*
X157103028Y-104176908D01*
X157099451Y-104180485D01*
X157058037Y-104103006D01*
X156978685Y-104006315D01*
X156881994Y-103926963D01*
X156771680Y-103867998D01*
X156651982Y-103831688D01*
X156527500Y-103819428D01*
X154622500Y-103819428D01*
X154498018Y-103831688D01*
X154378320Y-103867998D01*
X154268006Y-103926963D01*
X154171315Y-104006315D01*
X154091963Y-104103006D01*
X154032998Y-104213320D01*
X153996688Y-104333018D01*
X153984428Y-104457500D01*
X142365000Y-104457500D01*
X142365000Y-101033711D01*
X142408937Y-100989774D01*
X142522205Y-100820256D01*
X142600226Y-100631898D01*
X142640000Y-100431939D01*
X142640000Y-100228061D01*
X142600226Y-100028102D01*
X142522205Y-99839744D01*
X142408937Y-99670226D01*
X142365000Y-99626289D01*
X142365000Y-96346655D01*
X152545000Y-96346655D01*
X152545000Y-96693345D01*
X152612636Y-97033373D01*
X152745308Y-97353673D01*
X152937919Y-97641935D01*
X153183065Y-97887081D01*
X153471327Y-98079692D01*
X153791627Y-98212364D01*
X154131655Y-98280000D01*
X154478345Y-98280000D01*
X154818373Y-98212364D01*
X155138673Y-98079692D01*
X155426935Y-97887081D01*
X155672081Y-97641935D01*
X155864692Y-97353673D01*
X155997364Y-97033373D01*
X156065000Y-96693345D01*
X156065000Y-96346655D01*
X155997364Y-96006627D01*
X155864692Y-95686327D01*
X155672081Y-95398065D01*
X155426935Y-95152919D01*
X155138673Y-94960308D01*
X154818373Y-94827636D01*
X154478345Y-94760000D01*
X154131655Y-94760000D01*
X153791627Y-94827636D01*
X153471327Y-94960308D01*
X153183065Y-95152919D01*
X152937919Y-95398065D01*
X152745308Y-95686327D01*
X152612636Y-96006627D01*
X152545000Y-96346655D01*
X142365000Y-96346655D01*
X142365000Y-95570208D01*
X142438673Y-95539692D01*
X142726935Y-95347081D01*
X142972081Y-95101935D01*
X143164692Y-94813673D01*
X143297364Y-94493373D01*
X143365000Y-94153345D01*
X143365000Y-93806655D01*
X143297364Y-93466627D01*
X143164692Y-93146327D01*
X143032362Y-92948281D01*
X143315451Y-92891971D01*
X143590253Y-92778144D01*
X143837569Y-92612893D01*
X144047893Y-92402569D01*
X144213144Y-92155253D01*
X144326971Y-91880451D01*
X144385000Y-91588722D01*
X144385000Y-91291278D01*
X150255000Y-91291278D01*
X150255000Y-91588722D01*
X150313029Y-91880451D01*
X150426856Y-92155253D01*
X150592107Y-92402569D01*
X150802431Y-92612893D01*
X151049747Y-92778144D01*
X151324549Y-92891971D01*
X151616278Y-92950000D01*
X151913722Y-92950000D01*
X152205451Y-92891971D01*
X152480253Y-92778144D01*
X152727569Y-92612893D01*
X152937893Y-92402569D01*
X153103144Y-92155253D01*
X153216971Y-91880451D01*
X153275000Y-91588722D01*
X153275000Y-91291278D01*
X153253080Y-91181076D01*
X154216100Y-91181076D01*
X154216100Y-91698924D01*
X154317127Y-92206822D01*
X154515299Y-92685251D01*
X154803000Y-93115826D01*
X155169174Y-93482000D01*
X155599749Y-93769701D01*
X156078178Y-93967873D01*
X156586076Y-94068900D01*
X157103924Y-94068900D01*
X157611822Y-93967873D01*
X158001036Y-93806655D01*
X158895000Y-93806655D01*
X158895000Y-94153345D01*
X158962636Y-94493373D01*
X159095308Y-94813673D01*
X159287919Y-95101935D01*
X159533065Y-95347081D01*
X159821327Y-95539692D01*
X159895001Y-95570209D01*
X159895000Y-99626289D01*
X159851063Y-99670226D01*
X159737795Y-99839744D01*
X159659774Y-100028102D01*
X159620000Y-100228061D01*
X159620000Y-100431939D01*
X159659774Y-100631898D01*
X159737795Y-100820256D01*
X159851063Y-100989774D01*
X159895001Y-101033712D01*
X159895000Y-111439792D01*
X159821327Y-111470308D01*
X159533065Y-111662919D01*
X159287919Y-111908065D01*
X159095308Y-112196327D01*
X158962636Y-112516627D01*
X158895000Y-112856655D01*
X158895000Y-113203345D01*
X158962636Y-113543373D01*
X159095308Y-113863673D01*
X159287919Y-114151935D01*
X159533065Y-114397081D01*
X159821327Y-114589692D01*
X160141627Y-114722364D01*
X160481655Y-114790000D01*
X160828345Y-114790000D01*
X161168373Y-114722364D01*
X161488673Y-114589692D01*
X161776935Y-114397081D01*
X162022081Y-114151935D01*
X162214692Y-113863673D01*
X162347364Y-113543373D01*
X162415000Y-113203345D01*
X162415000Y-112856655D01*
X162347364Y-112516627D01*
X162214692Y-112196327D01*
X162082362Y-111998281D01*
X162365451Y-111941971D01*
X162640253Y-111828144D01*
X162887569Y-111662893D01*
X163097893Y-111452569D01*
X163263144Y-111205253D01*
X163376971Y-110930451D01*
X163435000Y-110638722D01*
X163435000Y-110341278D01*
X169305000Y-110341278D01*
X169305000Y-110638722D01*
X169363029Y-110930451D01*
X169476856Y-111205253D01*
X169642107Y-111452569D01*
X169852431Y-111662893D01*
X170099747Y-111828144D01*
X170374549Y-111941971D01*
X170666278Y-112000000D01*
X170963722Y-112000000D01*
X171255451Y-111941971D01*
X171530253Y-111828144D01*
X171777569Y-111662893D01*
X171987893Y-111452569D01*
X172153144Y-111205253D01*
X172266971Y-110930451D01*
X172325000Y-110638722D01*
X172325000Y-110341278D01*
X172303080Y-110231076D01*
X173266100Y-110231076D01*
X173266100Y-110748924D01*
X173367127Y-111256822D01*
X173565299Y-111735251D01*
X173853000Y-112165826D01*
X174219174Y-112532000D01*
X174649749Y-112819701D01*
X175128178Y-113017873D01*
X175636076Y-113118900D01*
X176153924Y-113118900D01*
X176661822Y-113017873D01*
X177140251Y-112819701D01*
X177570826Y-112532000D01*
X177937000Y-112165826D01*
X178224701Y-111735251D01*
X178422873Y-111256822D01*
X178523900Y-110748924D01*
X178523900Y-110231076D01*
X178422873Y-109723178D01*
X178224701Y-109244749D01*
X177937000Y-108814174D01*
X177570826Y-108448000D01*
X177140251Y-108160299D01*
X176661822Y-107962127D01*
X176153924Y-107861100D01*
X175636076Y-107861100D01*
X175128178Y-107962127D01*
X174649749Y-108160299D01*
X174219174Y-108448000D01*
X173853000Y-108814174D01*
X173565299Y-109244749D01*
X173367127Y-109723178D01*
X173266100Y-110231076D01*
X172303080Y-110231076D01*
X172266971Y-110049549D01*
X172153144Y-109774747D01*
X171987893Y-109527431D01*
X171777569Y-109317107D01*
X171530253Y-109151856D01*
X171255451Y-109038029D01*
X170963722Y-108980000D01*
X170666278Y-108980000D01*
X170374549Y-109038029D01*
X170099747Y-109151856D01*
X169852431Y-109317107D01*
X169642107Y-109527431D01*
X169476856Y-109774747D01*
X169363029Y-110049549D01*
X169305000Y-110341278D01*
X163435000Y-110341278D01*
X163376971Y-110049549D01*
X163263144Y-109774747D01*
X163097893Y-109527431D01*
X162887569Y-109317107D01*
X162640253Y-109151856D01*
X162365451Y-109038029D01*
X162073722Y-108980000D01*
X161776278Y-108980000D01*
X161484549Y-109038029D01*
X161415000Y-109066837D01*
X161415000Y-104457500D01*
X173034428Y-104457500D01*
X173034428Y-106362500D01*
X173046688Y-106486982D01*
X173082998Y-106606680D01*
X173141963Y-106716994D01*
X173221315Y-106813685D01*
X173318006Y-106893037D01*
X173428320Y-106952002D01*
X173548018Y-106988312D01*
X173672500Y-107000572D01*
X175577500Y-107000572D01*
X175701982Y-106988312D01*
X175821680Y-106952002D01*
X175931994Y-106893037D01*
X176028685Y-106813685D01*
X176108037Y-106716994D01*
X176149451Y-106639515D01*
X176153028Y-106643092D01*
X176413037Y-106816824D01*
X176701943Y-106936493D01*
X177008645Y-106997500D01*
X177321355Y-106997500D01*
X177628057Y-106936493D01*
X177916963Y-106816824D01*
X178176972Y-106643092D01*
X178398092Y-106421972D01*
X178571824Y-106161963D01*
X178691493Y-105873057D01*
X178752500Y-105566355D01*
X178752500Y-105253645D01*
X178691493Y-104946943D01*
X178571824Y-104658037D01*
X178398092Y-104398028D01*
X178176972Y-104176908D01*
X177916963Y-104003176D01*
X177628057Y-103883507D01*
X177321355Y-103822500D01*
X177008645Y-103822500D01*
X176701943Y-103883507D01*
X176413037Y-104003176D01*
X176153028Y-104176908D01*
X176149451Y-104180485D01*
X176108037Y-104103006D01*
X176028685Y-104006315D01*
X175931994Y-103926963D01*
X175821680Y-103867998D01*
X175701982Y-103831688D01*
X175577500Y-103819428D01*
X173672500Y-103819428D01*
X173548018Y-103831688D01*
X173428320Y-103867998D01*
X173318006Y-103926963D01*
X173221315Y-104006315D01*
X173141963Y-104103006D01*
X173082998Y-104213320D01*
X173046688Y-104333018D01*
X173034428Y-104457500D01*
X161415000Y-104457500D01*
X161415000Y-101033711D01*
X161458937Y-100989774D01*
X161572205Y-100820256D01*
X161650226Y-100631898D01*
X161690000Y-100431939D01*
X161690000Y-100228061D01*
X161650226Y-100028102D01*
X161572205Y-99839744D01*
X161458937Y-99670226D01*
X161415000Y-99626289D01*
X161415000Y-96346655D01*
X171595000Y-96346655D01*
X171595000Y-96693345D01*
X171662636Y-97033373D01*
X171795308Y-97353673D01*
X171987919Y-97641935D01*
X172233065Y-97887081D01*
X172521327Y-98079692D01*
X172841627Y-98212364D01*
X173181655Y-98280000D01*
X173528345Y-98280000D01*
X173868373Y-98212364D01*
X174188673Y-98079692D01*
X174476935Y-97887081D01*
X174722081Y-97641935D01*
X174914692Y-97353673D01*
X175047364Y-97033373D01*
X175115000Y-96693345D01*
X175115000Y-96346655D01*
X175047364Y-96006627D01*
X174914692Y-95686327D01*
X174722081Y-95398065D01*
X174476935Y-95152919D01*
X174188673Y-94960308D01*
X173868373Y-94827636D01*
X173528345Y-94760000D01*
X173181655Y-94760000D01*
X172841627Y-94827636D01*
X172521327Y-94960308D01*
X172233065Y-95152919D01*
X171987919Y-95398065D01*
X171795308Y-95686327D01*
X171662636Y-96006627D01*
X171595000Y-96346655D01*
X161415000Y-96346655D01*
X161415000Y-95570208D01*
X161488673Y-95539692D01*
X161776935Y-95347081D01*
X162022081Y-95101935D01*
X162214692Y-94813673D01*
X162347364Y-94493373D01*
X162415000Y-94153345D01*
X162415000Y-93806655D01*
X162347364Y-93466627D01*
X162214692Y-93146327D01*
X162082362Y-92948281D01*
X162365451Y-92891971D01*
X162640253Y-92778144D01*
X162887569Y-92612893D01*
X163097893Y-92402569D01*
X163263144Y-92155253D01*
X163376971Y-91880451D01*
X163435000Y-91588722D01*
X163435000Y-91291278D01*
X169305000Y-91291278D01*
X169305000Y-91588722D01*
X169363029Y-91880451D01*
X169476856Y-92155253D01*
X169642107Y-92402569D01*
X169852431Y-92612893D01*
X170099747Y-92778144D01*
X170374549Y-92891971D01*
X170666278Y-92950000D01*
X170963722Y-92950000D01*
X171255451Y-92891971D01*
X171530253Y-92778144D01*
X171777569Y-92612893D01*
X171987893Y-92402569D01*
X172153144Y-92155253D01*
X172266971Y-91880451D01*
X172325000Y-91588722D01*
X172325000Y-91291278D01*
X172303080Y-91181076D01*
X173266100Y-91181076D01*
X173266100Y-91698924D01*
X173367127Y-92206822D01*
X173565299Y-92685251D01*
X173853000Y-93115826D01*
X174219174Y-93482000D01*
X174649749Y-93769701D01*
X175128178Y-93967873D01*
X175636076Y-94068900D01*
X176153924Y-94068900D01*
X176661822Y-93967873D01*
X177051036Y-93806655D01*
X177945000Y-93806655D01*
X177945000Y-94153345D01*
X178012636Y-94493373D01*
X178145308Y-94813673D01*
X178337919Y-95101935D01*
X178583065Y-95347081D01*
X178871327Y-95539692D01*
X178945001Y-95570209D01*
X178945000Y-111439792D01*
X178871327Y-111470308D01*
X178583065Y-111662919D01*
X178337919Y-111908065D01*
X178145308Y-112196327D01*
X178012636Y-112516627D01*
X177945000Y-112856655D01*
X177945000Y-113203345D01*
X178012636Y-113543373D01*
X178145308Y-113863673D01*
X178337919Y-114151935D01*
X178583065Y-114397081D01*
X178871327Y-114589692D01*
X179191627Y-114722364D01*
X179531655Y-114790000D01*
X179878345Y-114790000D01*
X180218373Y-114722364D01*
X180538673Y-114589692D01*
X180826935Y-114397081D01*
X181072081Y-114151935D01*
X181264692Y-113863673D01*
X181397364Y-113543373D01*
X181465000Y-113203345D01*
X181465000Y-112856655D01*
X181397364Y-112516627D01*
X181264692Y-112196327D01*
X181132362Y-111998281D01*
X181415451Y-111941971D01*
X181690253Y-111828144D01*
X181937569Y-111662893D01*
X182147893Y-111452569D01*
X182313144Y-111205253D01*
X182426971Y-110930451D01*
X182485000Y-110638722D01*
X182485000Y-110341278D01*
X188355000Y-110341278D01*
X188355000Y-110638722D01*
X188413029Y-110930451D01*
X188526856Y-111205253D01*
X188692107Y-111452569D01*
X188902431Y-111662893D01*
X189149747Y-111828144D01*
X189424549Y-111941971D01*
X189716278Y-112000000D01*
X190013722Y-112000000D01*
X190305451Y-111941971D01*
X190580253Y-111828144D01*
X190827569Y-111662893D01*
X191037893Y-111452569D01*
X191203144Y-111205253D01*
X191316971Y-110930451D01*
X191375000Y-110638722D01*
X191375000Y-110341278D01*
X191353080Y-110231076D01*
X192316100Y-110231076D01*
X192316100Y-110748924D01*
X192417127Y-111256822D01*
X192615299Y-111735251D01*
X192903000Y-112165826D01*
X193269174Y-112532000D01*
X193699749Y-112819701D01*
X194178178Y-113017873D01*
X194686076Y-113118900D01*
X195203924Y-113118900D01*
X195711822Y-113017873D01*
X196190251Y-112819701D01*
X196620826Y-112532000D01*
X196987000Y-112165826D01*
X197274701Y-111735251D01*
X197472873Y-111256822D01*
X197573900Y-110748924D01*
X197573900Y-110231076D01*
X197472873Y-109723178D01*
X197274701Y-109244749D01*
X196987000Y-108814174D01*
X196620826Y-108448000D01*
X196190251Y-108160299D01*
X195711822Y-107962127D01*
X195203924Y-107861100D01*
X194686076Y-107861100D01*
X194178178Y-107962127D01*
X193699749Y-108160299D01*
X193269174Y-108448000D01*
X192903000Y-108814174D01*
X192615299Y-109244749D01*
X192417127Y-109723178D01*
X192316100Y-110231076D01*
X191353080Y-110231076D01*
X191316971Y-110049549D01*
X191203144Y-109774747D01*
X191037893Y-109527431D01*
X190827569Y-109317107D01*
X190580253Y-109151856D01*
X190305451Y-109038029D01*
X190013722Y-108980000D01*
X189716278Y-108980000D01*
X189424549Y-109038029D01*
X189149747Y-109151856D01*
X188902431Y-109317107D01*
X188692107Y-109527431D01*
X188526856Y-109774747D01*
X188413029Y-110049549D01*
X188355000Y-110341278D01*
X182485000Y-110341278D01*
X182426971Y-110049549D01*
X182313144Y-109774747D01*
X182147893Y-109527431D01*
X181937569Y-109317107D01*
X181690253Y-109151856D01*
X181415451Y-109038029D01*
X181123722Y-108980000D01*
X180826278Y-108980000D01*
X180534549Y-109038029D01*
X180465000Y-109066837D01*
X180465000Y-104457500D01*
X192084428Y-104457500D01*
X192084428Y-106362500D01*
X192096688Y-106486982D01*
X192132998Y-106606680D01*
X192191963Y-106716994D01*
X192271315Y-106813685D01*
X192368006Y-106893037D01*
X192478320Y-106952002D01*
X192598018Y-106988312D01*
X192722500Y-107000572D01*
X194627500Y-107000572D01*
X194751982Y-106988312D01*
X194871680Y-106952002D01*
X194981994Y-106893037D01*
X195078685Y-106813685D01*
X195158037Y-106716994D01*
X195199451Y-106639515D01*
X195203028Y-106643092D01*
X195463037Y-106816824D01*
X195751943Y-106936493D01*
X196058645Y-106997500D01*
X196371355Y-106997500D01*
X196678057Y-106936493D01*
X196966963Y-106816824D01*
X197226972Y-106643092D01*
X197448092Y-106421972D01*
X197621824Y-106161963D01*
X197741493Y-105873057D01*
X197802500Y-105566355D01*
X197802500Y-105253645D01*
X197741493Y-104946943D01*
X197621824Y-104658037D01*
X197448092Y-104398028D01*
X197226972Y-104176908D01*
X196966963Y-104003176D01*
X196678057Y-103883507D01*
X196371355Y-103822500D01*
X196058645Y-103822500D01*
X195751943Y-103883507D01*
X195463037Y-104003176D01*
X195203028Y-104176908D01*
X195199451Y-104180485D01*
X195158037Y-104103006D01*
X195078685Y-104006315D01*
X194981994Y-103926963D01*
X194871680Y-103867998D01*
X194751982Y-103831688D01*
X194627500Y-103819428D01*
X192722500Y-103819428D01*
X192598018Y-103831688D01*
X192478320Y-103867998D01*
X192368006Y-103926963D01*
X192271315Y-104006315D01*
X192191963Y-104103006D01*
X192132998Y-104213320D01*
X192096688Y-104333018D01*
X192084428Y-104457500D01*
X180465000Y-104457500D01*
X180465000Y-96346655D01*
X190645000Y-96346655D01*
X190645000Y-96693345D01*
X190712636Y-97033373D01*
X190845308Y-97353673D01*
X191037919Y-97641935D01*
X191283065Y-97887081D01*
X191571327Y-98079692D01*
X191891627Y-98212364D01*
X192231655Y-98280000D01*
X192578345Y-98280000D01*
X192918373Y-98212364D01*
X193238673Y-98079692D01*
X193526935Y-97887081D01*
X193772081Y-97641935D01*
X193964692Y-97353673D01*
X194097364Y-97033373D01*
X194165000Y-96693345D01*
X194165000Y-96346655D01*
X194097364Y-96006627D01*
X193964692Y-95686327D01*
X193772081Y-95398065D01*
X193526935Y-95152919D01*
X193238673Y-94960308D01*
X192918373Y-94827636D01*
X192578345Y-94760000D01*
X192231655Y-94760000D01*
X191891627Y-94827636D01*
X191571327Y-94960308D01*
X191283065Y-95152919D01*
X191037919Y-95398065D01*
X190845308Y-95686327D01*
X190712636Y-96006627D01*
X190645000Y-96346655D01*
X180465000Y-96346655D01*
X180465000Y-95570208D01*
X180538673Y-95539692D01*
X180826935Y-95347081D01*
X181072081Y-95101935D01*
X181264692Y-94813673D01*
X181397364Y-94493373D01*
X181465000Y-94153345D01*
X181465000Y-93806655D01*
X181397364Y-93466627D01*
X181264692Y-93146327D01*
X181132362Y-92948281D01*
X181415451Y-92891971D01*
X181690253Y-92778144D01*
X181937569Y-92612893D01*
X182147893Y-92402569D01*
X182313144Y-92155253D01*
X182426971Y-91880451D01*
X182485000Y-91588722D01*
X182485000Y-91291278D01*
X188355000Y-91291278D01*
X188355000Y-91588722D01*
X188413029Y-91880451D01*
X188526856Y-92155253D01*
X188692107Y-92402569D01*
X188902431Y-92612893D01*
X189149747Y-92778144D01*
X189424549Y-92891971D01*
X189716278Y-92950000D01*
X190013722Y-92950000D01*
X190305451Y-92891971D01*
X190580253Y-92778144D01*
X190827569Y-92612893D01*
X191037893Y-92402569D01*
X191203144Y-92155253D01*
X191316971Y-91880451D01*
X191375000Y-91588722D01*
X191375000Y-91291278D01*
X191353080Y-91181076D01*
X192316100Y-91181076D01*
X192316100Y-91698924D01*
X192417127Y-92206822D01*
X192615299Y-92685251D01*
X192903000Y-93115826D01*
X193269174Y-93482000D01*
X193699749Y-93769701D01*
X194178178Y-93967873D01*
X194686076Y-94068900D01*
X195203924Y-94068900D01*
X195711822Y-93967873D01*
X196101036Y-93806655D01*
X196995000Y-93806655D01*
X196995000Y-94153345D01*
X197062636Y-94493373D01*
X197195308Y-94813673D01*
X197387919Y-95101935D01*
X197633065Y-95347081D01*
X197921327Y-95539692D01*
X197995001Y-95570209D01*
X197995000Y-111439792D01*
X197921327Y-111470308D01*
X197633065Y-111662919D01*
X197387919Y-111908065D01*
X197195308Y-112196327D01*
X197062636Y-112516627D01*
X196995000Y-112856655D01*
X196995000Y-113203345D01*
X197062636Y-113543373D01*
X197195308Y-113863673D01*
X197387919Y-114151935D01*
X197633065Y-114397081D01*
X197921327Y-114589692D01*
X198241627Y-114722364D01*
X198581655Y-114790000D01*
X198928345Y-114790000D01*
X199268373Y-114722364D01*
X199588673Y-114589692D01*
X199876935Y-114397081D01*
X200122081Y-114151935D01*
X200218820Y-114007155D01*
X208166761Y-114007155D01*
X209550000Y-115390395D01*
X210933239Y-114007155D01*
X210765198Y-113681357D01*
X210373393Y-113480574D01*
X209949945Y-113360086D01*
X209511127Y-113324524D01*
X209073803Y-113375254D01*
X208654779Y-113510326D01*
X208334802Y-113681357D01*
X208166761Y-114007155D01*
X200218820Y-114007155D01*
X200314692Y-113863673D01*
X200447364Y-113543373D01*
X200515000Y-113203345D01*
X200515000Y-112856655D01*
X200447364Y-112516627D01*
X200314692Y-112196327D01*
X200182362Y-111998281D01*
X200465451Y-111941971D01*
X200740253Y-111828144D01*
X200987569Y-111662893D01*
X201197893Y-111452569D01*
X201363144Y-111205253D01*
X201476971Y-110930451D01*
X201535000Y-110638722D01*
X201535000Y-110341278D01*
X201476971Y-110049549D01*
X201363144Y-109774747D01*
X201197893Y-109527431D01*
X200987569Y-109317107D01*
X200740253Y-109151856D01*
X200465451Y-109038029D01*
X200173722Y-108980000D01*
X199876278Y-108980000D01*
X199584549Y-109038029D01*
X199515000Y-109066837D01*
X199515000Y-95570208D01*
X199588673Y-95539692D01*
X199876935Y-95347081D01*
X200122081Y-95101935D01*
X200314692Y-94813673D01*
X200447364Y-94493373D01*
X200515000Y-94153345D01*
X200515000Y-93806655D01*
X200447364Y-93466627D01*
X200314692Y-93146327D01*
X200182362Y-92948281D01*
X200465451Y-92891971D01*
X200740253Y-92778144D01*
X200987569Y-92612893D01*
X201197893Y-92402569D01*
X201363144Y-92155253D01*
X201476971Y-91880451D01*
X201535000Y-91588722D01*
X201535000Y-91291278D01*
X201476971Y-90999549D01*
X201363144Y-90724747D01*
X201197893Y-90477431D01*
X200987569Y-90267107D01*
X200740253Y-90101856D01*
X200465451Y-89988029D01*
X200173722Y-89930000D01*
X199876278Y-89930000D01*
X199584549Y-89988029D01*
X199309747Y-90101856D01*
X199062431Y-90267107D01*
X198852107Y-90477431D01*
X198686856Y-90724747D01*
X198573029Y-90999549D01*
X198515000Y-91291278D01*
X198515000Y-91588722D01*
X198573029Y-91880451D01*
X198686856Y-92155253D01*
X198730118Y-92220000D01*
X198581655Y-92220000D01*
X198241627Y-92287636D01*
X197921327Y-92420308D01*
X197633065Y-92612919D01*
X197387919Y-92858065D01*
X197195308Y-93146327D01*
X197062636Y-93466627D01*
X196995000Y-93806655D01*
X196101036Y-93806655D01*
X196190251Y-93769701D01*
X196620826Y-93482000D01*
X196987000Y-93115826D01*
X197274701Y-92685251D01*
X197472873Y-92206822D01*
X197573900Y-91698924D01*
X197573900Y-91181076D01*
X197472873Y-90673178D01*
X197274701Y-90194749D01*
X196987000Y-89764174D01*
X196620826Y-89398000D01*
X196190251Y-89110299D01*
X195711822Y-88912127D01*
X195203924Y-88811100D01*
X194686076Y-88811100D01*
X194178178Y-88912127D01*
X193699749Y-89110299D01*
X193269174Y-89398000D01*
X192903000Y-89764174D01*
X192615299Y-90194749D01*
X192417127Y-90673178D01*
X192316100Y-91181076D01*
X191353080Y-91181076D01*
X191316971Y-90999549D01*
X191203144Y-90724747D01*
X191037893Y-90477431D01*
X190827569Y-90267107D01*
X190580253Y-90101856D01*
X190305451Y-89988029D01*
X190013722Y-89930000D01*
X189716278Y-89930000D01*
X189424549Y-89988029D01*
X189149747Y-90101856D01*
X188902431Y-90267107D01*
X188692107Y-90477431D01*
X188526856Y-90724747D01*
X188413029Y-90999549D01*
X188355000Y-91291278D01*
X182485000Y-91291278D01*
X182426971Y-90999549D01*
X182313144Y-90724747D01*
X182147893Y-90477431D01*
X181937569Y-90267107D01*
X181690253Y-90101856D01*
X181415451Y-89988029D01*
X181123722Y-89930000D01*
X180826278Y-89930000D01*
X180534549Y-89988029D01*
X180259747Y-90101856D01*
X180012431Y-90267107D01*
X179802107Y-90477431D01*
X179636856Y-90724747D01*
X179523029Y-90999549D01*
X179465000Y-91291278D01*
X179465000Y-91588722D01*
X179523029Y-91880451D01*
X179636856Y-92155253D01*
X179680118Y-92220000D01*
X179531655Y-92220000D01*
X179191627Y-92287636D01*
X178871327Y-92420308D01*
X178583065Y-92612919D01*
X178337919Y-92858065D01*
X178145308Y-93146327D01*
X178012636Y-93466627D01*
X177945000Y-93806655D01*
X177051036Y-93806655D01*
X177140251Y-93769701D01*
X177570826Y-93482000D01*
X177937000Y-93115826D01*
X178224701Y-92685251D01*
X178422873Y-92206822D01*
X178523900Y-91698924D01*
X178523900Y-91181076D01*
X178422873Y-90673178D01*
X178224701Y-90194749D01*
X177937000Y-89764174D01*
X177570826Y-89398000D01*
X177140251Y-89110299D01*
X176661822Y-88912127D01*
X176153924Y-88811100D01*
X175636076Y-88811100D01*
X175128178Y-88912127D01*
X174649749Y-89110299D01*
X174219174Y-89398000D01*
X173853000Y-89764174D01*
X173565299Y-90194749D01*
X173367127Y-90673178D01*
X173266100Y-91181076D01*
X172303080Y-91181076D01*
X172266971Y-90999549D01*
X172153144Y-90724747D01*
X171987893Y-90477431D01*
X171777569Y-90267107D01*
X171530253Y-90101856D01*
X171255451Y-89988029D01*
X170963722Y-89930000D01*
X170666278Y-89930000D01*
X170374549Y-89988029D01*
X170099747Y-90101856D01*
X169852431Y-90267107D01*
X169642107Y-90477431D01*
X169476856Y-90724747D01*
X169363029Y-90999549D01*
X169305000Y-91291278D01*
X163435000Y-91291278D01*
X163376971Y-90999549D01*
X163263144Y-90724747D01*
X163097893Y-90477431D01*
X162887569Y-90267107D01*
X162640253Y-90101856D01*
X162365451Y-89988029D01*
X162073722Y-89930000D01*
X161776278Y-89930000D01*
X161484549Y-89988029D01*
X161209747Y-90101856D01*
X160962431Y-90267107D01*
X160752107Y-90477431D01*
X160586856Y-90724747D01*
X160473029Y-90999549D01*
X160415000Y-91291278D01*
X160415000Y-91588722D01*
X160473029Y-91880451D01*
X160586856Y-92155253D01*
X160630118Y-92220000D01*
X160481655Y-92220000D01*
X160141627Y-92287636D01*
X159821327Y-92420308D01*
X159533065Y-92612919D01*
X159287919Y-92858065D01*
X159095308Y-93146327D01*
X158962636Y-93466627D01*
X158895000Y-93806655D01*
X158001036Y-93806655D01*
X158090251Y-93769701D01*
X158520826Y-93482000D01*
X158887000Y-93115826D01*
X159174701Y-92685251D01*
X159372873Y-92206822D01*
X159473900Y-91698924D01*
X159473900Y-91181076D01*
X159372873Y-90673178D01*
X159174701Y-90194749D01*
X158887000Y-89764174D01*
X158520826Y-89398000D01*
X158090251Y-89110299D01*
X157611822Y-88912127D01*
X157103924Y-88811100D01*
X156586076Y-88811100D01*
X156078178Y-88912127D01*
X155599749Y-89110299D01*
X155169174Y-89398000D01*
X154803000Y-89764174D01*
X154515299Y-90194749D01*
X154317127Y-90673178D01*
X154216100Y-91181076D01*
X153253080Y-91181076D01*
X153216971Y-90999549D01*
X153103144Y-90724747D01*
X152937893Y-90477431D01*
X152727569Y-90267107D01*
X152480253Y-90101856D01*
X152205451Y-89988029D01*
X151913722Y-89930000D01*
X151616278Y-89930000D01*
X151324549Y-89988029D01*
X151049747Y-90101856D01*
X150802431Y-90267107D01*
X150592107Y-90477431D01*
X150426856Y-90724747D01*
X150313029Y-90999549D01*
X150255000Y-91291278D01*
X144385000Y-91291278D01*
X144326971Y-90999549D01*
X144213144Y-90724747D01*
X144047893Y-90477431D01*
X143837569Y-90267107D01*
X143590253Y-90101856D01*
X143315451Y-89988029D01*
X143023722Y-89930000D01*
X142726278Y-89930000D01*
X142434549Y-89988029D01*
X142159747Y-90101856D01*
X141912431Y-90267107D01*
X141702107Y-90477431D01*
X141536856Y-90724747D01*
X141423029Y-90999549D01*
X141365000Y-91291278D01*
X141365000Y-91588722D01*
X141423029Y-91880451D01*
X141536856Y-92155253D01*
X141580118Y-92220000D01*
X141431655Y-92220000D01*
X141091627Y-92287636D01*
X140771327Y-92420308D01*
X140483065Y-92612919D01*
X140237919Y-92858065D01*
X140045308Y-93146327D01*
X139912636Y-93466627D01*
X139845000Y-93806655D01*
X138951036Y-93806655D01*
X139040251Y-93769701D01*
X139470826Y-93482000D01*
X139837000Y-93115826D01*
X140124701Y-92685251D01*
X140322873Y-92206822D01*
X140423900Y-91698924D01*
X140423900Y-91181076D01*
X140322873Y-90673178D01*
X140124701Y-90194749D01*
X139837000Y-89764174D01*
X139470826Y-89398000D01*
X139040251Y-89110299D01*
X138561822Y-88912127D01*
X138053924Y-88811100D01*
X137536076Y-88811100D01*
X137028178Y-88912127D01*
X136549749Y-89110299D01*
X136119174Y-89398000D01*
X135753000Y-89764174D01*
X135465299Y-90194749D01*
X135267127Y-90673178D01*
X135166100Y-91181076D01*
X134203080Y-91181076D01*
X134166971Y-90999549D01*
X134053144Y-90724747D01*
X133887893Y-90477431D01*
X133677569Y-90267107D01*
X133430253Y-90101856D01*
X133155451Y-89988029D01*
X132863722Y-89930000D01*
X132566278Y-89930000D01*
X132274549Y-89988029D01*
X131999747Y-90101856D01*
X131752431Y-90267107D01*
X131542107Y-90477431D01*
X131376856Y-90724747D01*
X131263029Y-90999549D01*
X131205000Y-91291278D01*
X125335000Y-91291278D01*
X125276971Y-90999549D01*
X125163144Y-90724747D01*
X124997893Y-90477431D01*
X124787569Y-90267107D01*
X124540253Y-90101856D01*
X124265451Y-89988029D01*
X123973722Y-89930000D01*
X123676278Y-89930000D01*
X123384549Y-89988029D01*
X123109747Y-90101856D01*
X122862431Y-90267107D01*
X122652107Y-90477431D01*
X122486856Y-90724747D01*
X122373029Y-90999549D01*
X122315000Y-91291278D01*
X122315000Y-91588722D01*
X122373029Y-91880451D01*
X122486856Y-92155253D01*
X122530118Y-92220000D01*
X122381655Y-92220000D01*
X122041627Y-92287636D01*
X121721327Y-92420308D01*
X121433065Y-92612919D01*
X121187919Y-92858065D01*
X120995308Y-93146327D01*
X120862636Y-93466627D01*
X120795000Y-93806655D01*
X119901036Y-93806655D01*
X119990251Y-93769701D01*
X120420826Y-93482000D01*
X120787000Y-93115826D01*
X121074701Y-92685251D01*
X121272873Y-92206822D01*
X121373900Y-91698924D01*
X121373900Y-91181076D01*
X121272873Y-90673178D01*
X121074701Y-90194749D01*
X120787000Y-89764174D01*
X120420826Y-89398000D01*
X119990251Y-89110299D01*
X119511822Y-88912127D01*
X119003924Y-88811100D01*
X118486076Y-88811100D01*
X117978178Y-88912127D01*
X117499749Y-89110299D01*
X117186099Y-89319873D01*
X117186099Y-87950572D01*
X118427500Y-87950572D01*
X118551982Y-87938312D01*
X118671680Y-87902002D01*
X118781994Y-87843037D01*
X118878685Y-87763685D01*
X118958037Y-87666994D01*
X118999451Y-87589515D01*
X119003028Y-87593092D01*
X119263037Y-87766824D01*
X119551943Y-87886493D01*
X119858645Y-87947500D01*
X120171355Y-87947500D01*
X120478057Y-87886493D01*
X120766963Y-87766824D01*
X121026972Y-87593092D01*
X121248092Y-87371972D01*
X121421824Y-87111963D01*
X121541493Y-86823057D01*
X121602500Y-86516355D01*
X121602500Y-86203645D01*
X121541493Y-85896943D01*
X121421824Y-85608037D01*
X121287830Y-85407500D01*
X134934428Y-85407500D01*
X134934428Y-87312500D01*
X134946688Y-87436982D01*
X134982998Y-87556680D01*
X135041963Y-87666994D01*
X135121315Y-87763685D01*
X135218006Y-87843037D01*
X135328320Y-87902002D01*
X135448018Y-87938312D01*
X135572500Y-87950572D01*
X137477500Y-87950572D01*
X137601982Y-87938312D01*
X137721680Y-87902002D01*
X137831994Y-87843037D01*
X137928685Y-87763685D01*
X138008037Y-87666994D01*
X138049451Y-87589515D01*
X138053028Y-87593092D01*
X138313037Y-87766824D01*
X138601943Y-87886493D01*
X138908645Y-87947500D01*
X139221355Y-87947500D01*
X139528057Y-87886493D01*
X139816963Y-87766824D01*
X140076972Y-87593092D01*
X140298092Y-87371972D01*
X140471824Y-87111963D01*
X140591493Y-86823057D01*
X140652500Y-86516355D01*
X140652500Y-86203645D01*
X140591493Y-85896943D01*
X140471824Y-85608037D01*
X140337830Y-85407500D01*
X153984428Y-85407500D01*
X153984428Y-87312500D01*
X153996688Y-87436982D01*
X154032998Y-87556680D01*
X154091963Y-87666994D01*
X154171315Y-87763685D01*
X154268006Y-87843037D01*
X154378320Y-87902002D01*
X154498018Y-87938312D01*
X154622500Y-87950572D01*
X156527500Y-87950572D01*
X156651982Y-87938312D01*
X156771680Y-87902002D01*
X156881994Y-87843037D01*
X156978685Y-87763685D01*
X157058037Y-87666994D01*
X157099451Y-87589515D01*
X157103028Y-87593092D01*
X157363037Y-87766824D01*
X157651943Y-87886493D01*
X157958645Y-87947500D01*
X158271355Y-87947500D01*
X158578057Y-87886493D01*
X158866963Y-87766824D01*
X159126972Y-87593092D01*
X159348092Y-87371972D01*
X159521824Y-87111963D01*
X159641493Y-86823057D01*
X159702500Y-86516355D01*
X159702500Y-86203645D01*
X159641493Y-85896943D01*
X159521824Y-85608037D01*
X159387830Y-85407500D01*
X173034428Y-85407500D01*
X173034428Y-87312500D01*
X173046688Y-87436982D01*
X173082998Y-87556680D01*
X173141963Y-87666994D01*
X173221315Y-87763685D01*
X173318006Y-87843037D01*
X173428320Y-87902002D01*
X173548018Y-87938312D01*
X173672500Y-87950572D01*
X175577500Y-87950572D01*
X175701982Y-87938312D01*
X175821680Y-87902002D01*
X175931994Y-87843037D01*
X176028685Y-87763685D01*
X176108037Y-87666994D01*
X176149451Y-87589515D01*
X176153028Y-87593092D01*
X176413037Y-87766824D01*
X176701943Y-87886493D01*
X177008645Y-87947500D01*
X177321355Y-87947500D01*
X177628057Y-87886493D01*
X177916963Y-87766824D01*
X178176972Y-87593092D01*
X178398092Y-87371972D01*
X178571824Y-87111963D01*
X178691493Y-86823057D01*
X178752500Y-86516355D01*
X178752500Y-86203645D01*
X178691493Y-85896943D01*
X178571824Y-85608037D01*
X178437830Y-85407500D01*
X192084428Y-85407500D01*
X192084428Y-87312500D01*
X192096688Y-87436982D01*
X192132998Y-87556680D01*
X192191963Y-87666994D01*
X192271315Y-87763685D01*
X192368006Y-87843037D01*
X192478320Y-87902002D01*
X192598018Y-87938312D01*
X192722500Y-87950572D01*
X194627500Y-87950572D01*
X194751982Y-87938312D01*
X194871680Y-87902002D01*
X194981994Y-87843037D01*
X195078685Y-87763685D01*
X195158037Y-87666994D01*
X195199451Y-87589515D01*
X195203028Y-87593092D01*
X195463037Y-87766824D01*
X195751943Y-87886493D01*
X196058645Y-87947500D01*
X196371355Y-87947500D01*
X196678057Y-87886493D01*
X196966963Y-87766824D01*
X197226972Y-87593092D01*
X197232218Y-87587846D01*
X208161762Y-87587846D01*
X208329803Y-87913644D01*
X208721608Y-88114427D01*
X209145056Y-88234915D01*
X209583874Y-88270477D01*
X210021198Y-88219747D01*
X210440222Y-88084675D01*
X210760199Y-87913644D01*
X210928240Y-87587846D01*
X209545001Y-86204606D01*
X208161762Y-87587846D01*
X197232218Y-87587846D01*
X197448092Y-87371972D01*
X197621824Y-87111963D01*
X197741493Y-86823057D01*
X197802500Y-86516355D01*
X197802500Y-86203645D01*
X197774698Y-86063874D01*
X207299525Y-86063874D01*
X207350255Y-86501198D01*
X207485327Y-86920222D01*
X207656358Y-87240199D01*
X207982156Y-87408240D01*
X209365396Y-86025001D01*
X209724606Y-86025001D01*
X211107846Y-87408240D01*
X211433644Y-87240199D01*
X211634427Y-86848394D01*
X211754915Y-86424946D01*
X211790477Y-85986128D01*
X211739747Y-85548804D01*
X211604675Y-85129780D01*
X211433644Y-84809803D01*
X211107846Y-84641762D01*
X209724606Y-86025001D01*
X209365396Y-86025001D01*
X207982156Y-84641762D01*
X207656358Y-84809803D01*
X207455575Y-85201608D01*
X207335087Y-85625056D01*
X207299525Y-86063874D01*
X197774698Y-86063874D01*
X197741493Y-85896943D01*
X197621824Y-85608037D01*
X197448092Y-85348028D01*
X197226972Y-85126908D01*
X196966963Y-84953176D01*
X196678057Y-84833507D01*
X196371355Y-84772500D01*
X196058645Y-84772500D01*
X195751943Y-84833507D01*
X195463037Y-84953176D01*
X195203028Y-85126908D01*
X195199451Y-85130485D01*
X195158037Y-85053006D01*
X195078685Y-84956315D01*
X194981994Y-84876963D01*
X194871680Y-84817998D01*
X194751982Y-84781688D01*
X194627500Y-84769428D01*
X192722500Y-84769428D01*
X192598018Y-84781688D01*
X192478320Y-84817998D01*
X192368006Y-84876963D01*
X192271315Y-84956315D01*
X192191963Y-85053006D01*
X192132998Y-85163320D01*
X192096688Y-85283018D01*
X192084428Y-85407500D01*
X178437830Y-85407500D01*
X178398092Y-85348028D01*
X178176972Y-85126908D01*
X177916963Y-84953176D01*
X177628057Y-84833507D01*
X177321355Y-84772500D01*
X177008645Y-84772500D01*
X176701943Y-84833507D01*
X176413037Y-84953176D01*
X176153028Y-85126908D01*
X176149451Y-85130485D01*
X176108037Y-85053006D01*
X176028685Y-84956315D01*
X175931994Y-84876963D01*
X175821680Y-84817998D01*
X175701982Y-84781688D01*
X175577500Y-84769428D01*
X173672500Y-84769428D01*
X173548018Y-84781688D01*
X173428320Y-84817998D01*
X173318006Y-84876963D01*
X173221315Y-84956315D01*
X173141963Y-85053006D01*
X173082998Y-85163320D01*
X173046688Y-85283018D01*
X173034428Y-85407500D01*
X159387830Y-85407500D01*
X159348092Y-85348028D01*
X159126972Y-85126908D01*
X158866963Y-84953176D01*
X158578057Y-84833507D01*
X158271355Y-84772500D01*
X157958645Y-84772500D01*
X157651943Y-84833507D01*
X157363037Y-84953176D01*
X157103028Y-85126908D01*
X157099451Y-85130485D01*
X157058037Y-85053006D01*
X156978685Y-84956315D01*
X156881994Y-84876963D01*
X156771680Y-84817998D01*
X156651982Y-84781688D01*
X156527500Y-84769428D01*
X154622500Y-84769428D01*
X154498018Y-84781688D01*
X154378320Y-84817998D01*
X154268006Y-84876963D01*
X154171315Y-84956315D01*
X154091963Y-85053006D01*
X154032998Y-85163320D01*
X153996688Y-85283018D01*
X153984428Y-85407500D01*
X140337830Y-85407500D01*
X140298092Y-85348028D01*
X140076972Y-85126908D01*
X139816963Y-84953176D01*
X139528057Y-84833507D01*
X139221355Y-84772500D01*
X138908645Y-84772500D01*
X138601943Y-84833507D01*
X138313037Y-84953176D01*
X138053028Y-85126908D01*
X138049451Y-85130485D01*
X138008037Y-85053006D01*
X137928685Y-84956315D01*
X137831994Y-84876963D01*
X137721680Y-84817998D01*
X137601982Y-84781688D01*
X137477500Y-84769428D01*
X135572500Y-84769428D01*
X135448018Y-84781688D01*
X135328320Y-84817998D01*
X135218006Y-84876963D01*
X135121315Y-84956315D01*
X135041963Y-85053006D01*
X134982998Y-85163320D01*
X134946688Y-85283018D01*
X134934428Y-85407500D01*
X121287830Y-85407500D01*
X121248092Y-85348028D01*
X121026972Y-85126908D01*
X120766963Y-84953176D01*
X120478057Y-84833507D01*
X120171355Y-84772500D01*
X119858645Y-84772500D01*
X119551943Y-84833507D01*
X119263037Y-84953176D01*
X119003028Y-85126908D01*
X118999451Y-85130485D01*
X118958037Y-85053006D01*
X118878685Y-84956315D01*
X118781994Y-84876963D01*
X118671680Y-84817998D01*
X118551982Y-84781688D01*
X118427500Y-84769428D01*
X116522500Y-84769428D01*
X116398018Y-84781688D01*
X116278320Y-84817998D01*
X116168006Y-84876963D01*
X116071315Y-84956315D01*
X115991963Y-85053006D01*
X115932998Y-85163320D01*
X115896688Y-85283018D01*
X115884428Y-85407500D01*
X115884428Y-86870936D01*
X115862301Y-86897898D01*
X115862300Y-86897899D01*
X115791125Y-86984625D01*
X115720553Y-87116655D01*
X115677097Y-87259916D01*
X115662423Y-87408901D01*
X115666100Y-87446233D01*
X115666099Y-92515750D01*
X115662423Y-92553073D01*
X115666099Y-92590395D01*
X115666099Y-92590405D01*
X115677096Y-92702058D01*
X115706069Y-92797571D01*
X115720553Y-92845319D01*
X115791125Y-92977349D01*
X115824731Y-93018298D01*
X115886098Y-93093074D01*
X115915102Y-93116877D01*
X116895002Y-94096778D01*
X116895002Y-94900798D01*
X116718373Y-94827636D01*
X116378345Y-94760000D01*
X116031655Y-94760000D01*
X115691627Y-94827636D01*
X115371327Y-94960308D01*
X115083065Y-95152919D01*
X114837919Y-95398065D01*
X114645308Y-95686327D01*
X114512636Y-96006627D01*
X114445000Y-96346655D01*
X106838633Y-96346655D01*
X106789853Y-96101426D01*
X106681680Y-95840273D01*
X106524637Y-95605241D01*
X106324759Y-95405363D01*
X106092241Y-95250000D01*
X106324759Y-95094637D01*
X106524637Y-94894759D01*
X106681680Y-94659727D01*
X106789853Y-94398574D01*
X106845000Y-94121335D01*
X106845000Y-93838665D01*
X106789853Y-93561426D01*
X106681680Y-93300273D01*
X106524637Y-93065241D01*
X106324759Y-92865363D01*
X106092241Y-92710000D01*
X106324759Y-92554637D01*
X106524637Y-92354759D01*
X106681680Y-92119727D01*
X106789853Y-91858574D01*
X106845000Y-91581335D01*
X106845000Y-91298665D01*
X106843531Y-91291278D01*
X112155000Y-91291278D01*
X112155000Y-91588722D01*
X112213029Y-91880451D01*
X112326856Y-92155253D01*
X112492107Y-92402569D01*
X112702431Y-92612893D01*
X112949747Y-92778144D01*
X113224549Y-92891971D01*
X113516278Y-92950000D01*
X113813722Y-92950000D01*
X114105451Y-92891971D01*
X114380253Y-92778144D01*
X114627569Y-92612893D01*
X114837893Y-92402569D01*
X115003144Y-92155253D01*
X115116971Y-91880451D01*
X115175000Y-91588722D01*
X115175000Y-91291278D01*
X115116971Y-90999549D01*
X115003144Y-90724747D01*
X114837893Y-90477431D01*
X114627569Y-90267107D01*
X114380253Y-90101856D01*
X114105451Y-89988029D01*
X113813722Y-89930000D01*
X113516278Y-89930000D01*
X113224549Y-89988029D01*
X112949747Y-90101856D01*
X112702431Y-90267107D01*
X112492107Y-90477431D01*
X112326856Y-90724747D01*
X112213029Y-90999549D01*
X112155000Y-91291278D01*
X106843531Y-91291278D01*
X106789853Y-91021426D01*
X106681680Y-90760273D01*
X106524637Y-90525241D01*
X106324759Y-90325363D01*
X106092241Y-90170000D01*
X106324759Y-90014637D01*
X106524637Y-89814759D01*
X106681680Y-89579727D01*
X106789853Y-89318574D01*
X106845000Y-89041335D01*
X106845000Y-88758665D01*
X106789853Y-88481426D01*
X106681680Y-88220273D01*
X106524637Y-87985241D01*
X106324759Y-87785363D01*
X106090872Y-87629085D01*
X106151514Y-87596671D01*
X106223097Y-87352702D01*
X105410000Y-86539605D01*
X104596903Y-87352702D01*
X104668486Y-87596671D01*
X104732992Y-87627194D01*
X104730273Y-87628320D01*
X104495241Y-87785363D01*
X104295363Y-87985241D01*
X104138320Y-88220273D01*
X104030147Y-88481426D01*
X103975000Y-88758665D01*
X103975000Y-89041335D01*
X104030147Y-89318574D01*
X104138320Y-89579727D01*
X104295363Y-89814759D01*
X104495241Y-90014637D01*
X104727759Y-90170000D01*
X104495241Y-90325363D01*
X104295363Y-90525241D01*
X104138320Y-90760273D01*
X104030147Y-91021426D01*
X103975000Y-91298665D01*
X103975000Y-91581335D01*
X104030147Y-91858574D01*
X104138320Y-92119727D01*
X104295363Y-92354759D01*
X104495241Y-92554637D01*
X104727759Y-92710000D01*
X104495241Y-92865363D01*
X104295363Y-93065241D01*
X104138320Y-93300273D01*
X104030147Y-93561426D01*
X103975000Y-93838665D01*
X103975000Y-94121335D01*
X104030147Y-94398574D01*
X104138320Y-94659727D01*
X104295363Y-94894759D01*
X104495241Y-95094637D01*
X104727759Y-95250000D01*
X104495241Y-95405363D01*
X104295363Y-95605241D01*
X104138320Y-95840273D01*
X104030147Y-96101426D01*
X103975000Y-96378665D01*
X103975000Y-96661335D01*
X104011312Y-96843886D01*
X102994003Y-97861196D01*
X102964999Y-97884999D01*
X102915460Y-97945363D01*
X102870026Y-98000724D01*
X102799455Y-98132753D01*
X102799454Y-98132754D01*
X102755997Y-98276015D01*
X102745000Y-98387668D01*
X102745000Y-98387678D01*
X102741324Y-98425000D01*
X91460207Y-98425000D01*
X91441680Y-98380273D01*
X91284637Y-98145241D01*
X91084759Y-97945363D01*
X90852241Y-97790000D01*
X91084759Y-97634637D01*
X91284637Y-97434759D01*
X91441680Y-97199727D01*
X91549853Y-96938574D01*
X91605000Y-96661335D01*
X91605000Y-96378665D01*
X91549853Y-96101426D01*
X91441680Y-95840273D01*
X91284637Y-95605241D01*
X91084759Y-95405363D01*
X90852241Y-95250000D01*
X91084759Y-95094637D01*
X91284637Y-94894759D01*
X91441680Y-94659727D01*
X91549853Y-94398574D01*
X91605000Y-94121335D01*
X91605000Y-93838665D01*
X91549853Y-93561426D01*
X91441680Y-93300273D01*
X91284637Y-93065241D01*
X91084759Y-92865363D01*
X90850872Y-92709085D01*
X90911514Y-92676671D01*
X90983097Y-92432702D01*
X90170000Y-91619605D01*
X89356903Y-92432702D01*
X89428486Y-92676671D01*
X89492992Y-92707194D01*
X89490273Y-92708320D01*
X89255241Y-92865363D01*
X89055363Y-93065241D01*
X88898320Y-93300273D01*
X88790147Y-93561426D01*
X88735000Y-93838665D01*
X79425000Y-93838665D01*
X79425000Y-91510512D01*
X88729783Y-91510512D01*
X88771213Y-91790130D01*
X88866397Y-92056292D01*
X88933329Y-92181514D01*
X89177298Y-92253097D01*
X89990395Y-91440000D01*
X90349605Y-91440000D01*
X91162702Y-92253097D01*
X91406671Y-92181514D01*
X91527571Y-91926004D01*
X91596300Y-91651816D01*
X91610217Y-91369488D01*
X91568787Y-91089870D01*
X91473603Y-90823708D01*
X91406671Y-90698486D01*
X91162702Y-90626903D01*
X90349605Y-91440000D01*
X89990395Y-91440000D01*
X89177298Y-90626903D01*
X88933329Y-90698486D01*
X88812429Y-90953996D01*
X88743700Y-91228184D01*
X88729783Y-91510512D01*
X79425000Y-91510512D01*
X79425000Y-89892702D01*
X89356903Y-89892702D01*
X89428486Y-90136671D01*
X89494636Y-90167971D01*
X89428486Y-90203329D01*
X89356903Y-90447298D01*
X90170000Y-91260395D01*
X90983097Y-90447298D01*
X90911514Y-90203329D01*
X90845364Y-90172029D01*
X90911514Y-90136671D01*
X90983097Y-89892702D01*
X90170000Y-89079605D01*
X89356903Y-89892702D01*
X79425000Y-89892702D01*
X79425000Y-88970512D01*
X88729783Y-88970512D01*
X88771213Y-89250130D01*
X88866397Y-89516292D01*
X88933329Y-89641514D01*
X89177298Y-89713097D01*
X89990395Y-88900000D01*
X90349605Y-88900000D01*
X91162702Y-89713097D01*
X91406671Y-89641514D01*
X91527571Y-89386004D01*
X91596300Y-89111816D01*
X91610217Y-88829488D01*
X91568787Y-88549870D01*
X91473603Y-88283708D01*
X91406671Y-88158486D01*
X91162702Y-88086903D01*
X90349605Y-88900000D01*
X89990395Y-88900000D01*
X89177298Y-88086903D01*
X88933329Y-88158486D01*
X88812429Y-88413996D01*
X88743700Y-88688184D01*
X88729783Y-88970512D01*
X79425000Y-88970512D01*
X79425000Y-87922845D01*
X82436761Y-87922845D01*
X82604802Y-88248643D01*
X82996607Y-88449426D01*
X83420055Y-88569914D01*
X83858873Y-88605476D01*
X84296197Y-88554746D01*
X84715221Y-88419674D01*
X85035198Y-88248643D01*
X85203239Y-87922845D01*
X83820000Y-86539605D01*
X82436761Y-87922845D01*
X79425000Y-87922845D01*
X79425000Y-86398873D01*
X81574524Y-86398873D01*
X81625254Y-86836197D01*
X81760326Y-87255221D01*
X81931357Y-87575198D01*
X82257155Y-87743239D01*
X83640395Y-86360000D01*
X83999605Y-86360000D01*
X85382845Y-87743239D01*
X85708643Y-87575198D01*
X85909426Y-87183393D01*
X86029914Y-86759945D01*
X86065476Y-86321127D01*
X86014746Y-85883803D01*
X85879674Y-85464779D01*
X85708643Y-85144802D01*
X85382845Y-84976761D01*
X83999605Y-86360000D01*
X83640395Y-86360000D01*
X82257155Y-84976761D01*
X81931357Y-85144802D01*
X81730574Y-85536607D01*
X81610086Y-85960055D01*
X81574524Y-86398873D01*
X79425000Y-86398873D01*
X79425000Y-84797155D01*
X82436761Y-84797155D01*
X83820000Y-86180395D01*
X85203239Y-84797155D01*
X85035198Y-84471357D01*
X84643393Y-84270574D01*
X84219945Y-84150086D01*
X83781127Y-84114524D01*
X83343803Y-84165254D01*
X82924779Y-84300326D01*
X82604802Y-84471357D01*
X82436761Y-84797155D01*
X79425000Y-84797155D01*
X79425000Y-83020000D01*
X88731928Y-83020000D01*
X88731928Y-84620000D01*
X88744188Y-84744482D01*
X88780498Y-84864180D01*
X88839463Y-84974494D01*
X88918815Y-85071185D01*
X89015506Y-85150537D01*
X89125820Y-85209502D01*
X89245518Y-85245812D01*
X89253961Y-85246643D01*
X89055363Y-85445241D01*
X88898320Y-85680273D01*
X88790147Y-85941426D01*
X88735000Y-86218665D01*
X88735000Y-86501335D01*
X88790147Y-86778574D01*
X88898320Y-87039727D01*
X89055363Y-87274759D01*
X89255241Y-87474637D01*
X89489128Y-87630915D01*
X89428486Y-87663329D01*
X89356903Y-87907298D01*
X90170000Y-88720395D01*
X90983097Y-87907298D01*
X90911514Y-87663329D01*
X90847008Y-87632806D01*
X90849727Y-87631680D01*
X91084759Y-87474637D01*
X91284637Y-87274759D01*
X91441680Y-87039727D01*
X91549853Y-86778574D01*
X91605000Y-86501335D01*
X91605000Y-86430512D01*
X103969783Y-86430512D01*
X104011213Y-86710130D01*
X104106397Y-86976292D01*
X104173329Y-87101514D01*
X104417298Y-87173097D01*
X105230395Y-86360000D01*
X105589605Y-86360000D01*
X106402702Y-87173097D01*
X106646671Y-87101514D01*
X106767571Y-86846004D01*
X106836300Y-86571816D01*
X106850217Y-86289488D01*
X106808787Y-86009870D01*
X106713603Y-85743708D01*
X106646671Y-85618486D01*
X106402702Y-85546903D01*
X105589605Y-86360000D01*
X105230395Y-86360000D01*
X104417298Y-85546903D01*
X104173329Y-85618486D01*
X104052429Y-85873996D01*
X103983700Y-86148184D01*
X103969783Y-86430512D01*
X91605000Y-86430512D01*
X91605000Y-86218665D01*
X91549853Y-85941426D01*
X91441680Y-85680273D01*
X91284637Y-85445241D01*
X91086039Y-85246643D01*
X91094482Y-85245812D01*
X91214180Y-85209502D01*
X91324494Y-85150537D01*
X91421185Y-85071185D01*
X91500537Y-84974494D01*
X91559502Y-84864180D01*
X91595812Y-84744482D01*
X91608072Y-84620000D01*
X91608072Y-83678665D01*
X103975000Y-83678665D01*
X103975000Y-83961335D01*
X104030147Y-84238574D01*
X104138320Y-84499727D01*
X104295363Y-84734759D01*
X104495241Y-84934637D01*
X104729128Y-85090915D01*
X104668486Y-85123329D01*
X104596903Y-85367298D01*
X105410000Y-86180395D01*
X106223097Y-85367298D01*
X106151514Y-85123329D01*
X106087008Y-85092806D01*
X106089727Y-85091680D01*
X106324759Y-84934637D01*
X106524637Y-84734759D01*
X106681680Y-84499727D01*
X106697242Y-84462156D01*
X208161762Y-84462156D01*
X209545001Y-85845396D01*
X210928240Y-84462156D01*
X210760199Y-84136358D01*
X210368394Y-83935575D01*
X209944946Y-83815087D01*
X209506128Y-83779525D01*
X209068804Y-83830255D01*
X208649780Y-83965327D01*
X208329803Y-84136358D01*
X208161762Y-84462156D01*
X106697242Y-84462156D01*
X106789853Y-84238574D01*
X106845000Y-83961335D01*
X106845000Y-83678665D01*
X106789853Y-83401426D01*
X106681680Y-83140273D01*
X106524637Y-82905241D01*
X106324759Y-82705363D01*
X106089727Y-82548320D01*
X105828574Y-82440147D01*
X105551335Y-82385000D01*
X105268665Y-82385000D01*
X104991426Y-82440147D01*
X104730273Y-82548320D01*
X104495241Y-82705363D01*
X104295363Y-82905241D01*
X104138320Y-83140273D01*
X104030147Y-83401426D01*
X103975000Y-83678665D01*
X91608072Y-83678665D01*
X91608072Y-83020000D01*
X91595812Y-82895518D01*
X91559502Y-82775820D01*
X91500537Y-82665506D01*
X91421185Y-82568815D01*
X91324494Y-82489463D01*
X91214180Y-82430498D01*
X91094482Y-82394188D01*
X90970000Y-82381928D01*
X89370000Y-82381928D01*
X89245518Y-82394188D01*
X89125820Y-82430498D01*
X89015506Y-82489463D01*
X88918815Y-82568815D01*
X88839463Y-82665506D01*
X88780498Y-82775820D01*
X88744188Y-82895518D01*
X88731928Y-83020000D01*
X79425000Y-83020000D01*
X79425000Y-80695000D01*
X215215000Y-80695000D01*
X215215001Y-121235000D01*
G04 #@! TA.AperFunction,Conductor*
D18*
G36*
X215215001Y-121235000D02*
G01*
X79425000Y-121235000D01*
X79425000Y-118402845D01*
X82436761Y-118402845D01*
X82604802Y-118728643D01*
X82996607Y-118929426D01*
X83420055Y-119049914D01*
X83858873Y-119085476D01*
X84296197Y-119034746D01*
X84715221Y-118899674D01*
X85035198Y-118728643D01*
X85203239Y-118402845D01*
X83820000Y-117019605D01*
X82436761Y-118402845D01*
X79425000Y-118402845D01*
X79425000Y-116878873D01*
X81574524Y-116878873D01*
X81625254Y-117316197D01*
X81760326Y-117735221D01*
X81931357Y-118055198D01*
X82257155Y-118223239D01*
X83640395Y-116840000D01*
X83999605Y-116840000D01*
X85382845Y-118223239D01*
X85708643Y-118055198D01*
X85909426Y-117663393D01*
X86029914Y-117239945D01*
X86065476Y-116801127D01*
X86014746Y-116363803D01*
X85879674Y-115944779D01*
X85708643Y-115624802D01*
X85382845Y-115456761D01*
X83999605Y-116840000D01*
X83640395Y-116840000D01*
X82257155Y-115456761D01*
X81931357Y-115624802D01*
X81730574Y-116016607D01*
X81610086Y-116440055D01*
X81574524Y-116878873D01*
X79425000Y-116878873D01*
X79425000Y-115277155D01*
X82436761Y-115277155D01*
X83820000Y-116660395D01*
X85203239Y-115277155D01*
X85035198Y-114951357D01*
X84643393Y-114750574D01*
X84219945Y-114630086D01*
X83781127Y-114594524D01*
X83343803Y-114645254D01*
X82924779Y-114780326D01*
X82604802Y-114951357D01*
X82436761Y-115277155D01*
X79425000Y-115277155D01*
X79425000Y-93838665D01*
X88735000Y-93838665D01*
X88735000Y-94121335D01*
X88790147Y-94398574D01*
X88898320Y-94659727D01*
X89055363Y-94894759D01*
X89255241Y-95094637D01*
X89487759Y-95250000D01*
X89255241Y-95405363D01*
X89055363Y-95605241D01*
X88898320Y-95840273D01*
X88790147Y-96101426D01*
X88735000Y-96378665D01*
X88735000Y-96661335D01*
X88790147Y-96938574D01*
X88898320Y-97199727D01*
X89055363Y-97434759D01*
X89255241Y-97634637D01*
X89487759Y-97790000D01*
X89255241Y-97945363D01*
X89055363Y-98145241D01*
X88898320Y-98380273D01*
X88790147Y-98641426D01*
X88735000Y-98918665D01*
X88735000Y-99201335D01*
X88790147Y-99478574D01*
X88898320Y-99739727D01*
X89055363Y-99974759D01*
X89255241Y-100174637D01*
X89487759Y-100330000D01*
X89255241Y-100485363D01*
X89055363Y-100685241D01*
X88898320Y-100920273D01*
X88790147Y-101181426D01*
X88735000Y-101458665D01*
X88735000Y-101741335D01*
X88790147Y-102018574D01*
X88898320Y-102279727D01*
X89055363Y-102514759D01*
X89255241Y-102714637D01*
X89487759Y-102870000D01*
X89255241Y-103025363D01*
X89055363Y-103225241D01*
X88898320Y-103460273D01*
X88790147Y-103721426D01*
X88735000Y-103998665D01*
X88735000Y-104281335D01*
X88790147Y-104558574D01*
X88898320Y-104819727D01*
X89055363Y-105054759D01*
X89255241Y-105254637D01*
X89487759Y-105410000D01*
X89255241Y-105565363D01*
X89055363Y-105765241D01*
X88898320Y-106000273D01*
X88790147Y-106261426D01*
X88735000Y-106538665D01*
X88735000Y-106821335D01*
X88790147Y-107098574D01*
X88898320Y-107359727D01*
X89055363Y-107594759D01*
X89255241Y-107794637D01*
X89487759Y-107950000D01*
X89255241Y-108105363D01*
X89055363Y-108305241D01*
X88898320Y-108540273D01*
X88790147Y-108801426D01*
X88735000Y-109078665D01*
X88735000Y-109361335D01*
X88790147Y-109638574D01*
X88898320Y-109899727D01*
X89055363Y-110134759D01*
X89255241Y-110334637D01*
X89487759Y-110490000D01*
X89255241Y-110645363D01*
X89055363Y-110845241D01*
X88898320Y-111080273D01*
X88790147Y-111341426D01*
X88735000Y-111618665D01*
X88735000Y-111901335D01*
X88790147Y-112178574D01*
X88898320Y-112439727D01*
X89055363Y-112674759D01*
X89255241Y-112874637D01*
X89490273Y-113031680D01*
X89751426Y-113139853D01*
X90028665Y-113195000D01*
X90311335Y-113195000D01*
X90588574Y-113139853D01*
X90849727Y-113031680D01*
X91084759Y-112874637D01*
X91284637Y-112674759D01*
X91441680Y-112439727D01*
X91549853Y-112178574D01*
X91605000Y-111901335D01*
X91605000Y-111618665D01*
X91549853Y-111341426D01*
X91441680Y-111080273D01*
X91284637Y-110845241D01*
X91084759Y-110645363D01*
X90852241Y-110490000D01*
X91084759Y-110334637D01*
X91284637Y-110134759D01*
X91441680Y-109899727D01*
X91549853Y-109638574D01*
X91605000Y-109361335D01*
X91605000Y-109078665D01*
X91549853Y-108801426D01*
X91441680Y-108540273D01*
X91284637Y-108305241D01*
X91084759Y-108105363D01*
X90852241Y-107950000D01*
X91084759Y-107794637D01*
X91284637Y-107594759D01*
X91441680Y-107359727D01*
X91549853Y-107098574D01*
X91605000Y-106821335D01*
X91605000Y-106538665D01*
X91549853Y-106261426D01*
X91441680Y-106000273D01*
X91284637Y-105765241D01*
X91084759Y-105565363D01*
X90852241Y-105410000D01*
X91084759Y-105254637D01*
X91284637Y-105054759D01*
X91441680Y-104819727D01*
X91549853Y-104558574D01*
X91605000Y-104281335D01*
X91605000Y-103998665D01*
X91549853Y-103721426D01*
X91441680Y-103460273D01*
X91284637Y-103225241D01*
X91084759Y-103025363D01*
X90852241Y-102870000D01*
X91084759Y-102714637D01*
X91284637Y-102514759D01*
X91441680Y-102279727D01*
X91549853Y-102018574D01*
X91605000Y-101741335D01*
X91605000Y-101458665D01*
X91549853Y-101181426D01*
X91441680Y-100920273D01*
X91284637Y-100685241D01*
X91084759Y-100485363D01*
X90852241Y-100330000D01*
X91084759Y-100174637D01*
X91284637Y-99974759D01*
X91441680Y-99739727D01*
X91549853Y-99478574D01*
X91605000Y-99201335D01*
X91605000Y-98918665D01*
X91549853Y-98641426D01*
X91460207Y-98425000D01*
X102741324Y-98425000D01*
X102745000Y-98462322D01*
X102745001Y-114897667D01*
X102741324Y-114935000D01*
X102755998Y-115083985D01*
X102799454Y-115227246D01*
X102870026Y-115359276D01*
X102900703Y-115396655D01*
X102965000Y-115475001D01*
X102993998Y-115498799D01*
X103105000Y-115609801D01*
X103105000Y-115671939D01*
X103144774Y-115871898D01*
X103222795Y-116060256D01*
X103336063Y-116229774D01*
X103480226Y-116373937D01*
X103649744Y-116487205D01*
X103838102Y-116565226D01*
X104038061Y-116605000D01*
X104241939Y-116605000D01*
X104441898Y-116565226D01*
X104630256Y-116487205D01*
X104799774Y-116373937D01*
X104943937Y-116229774D01*
X105057205Y-116060256D01*
X105135226Y-115871898D01*
X105175000Y-115671939D01*
X105175000Y-115468061D01*
X105160797Y-115396655D01*
X114445000Y-115396655D01*
X114445000Y-115743345D01*
X114512636Y-116083373D01*
X114645308Y-116403673D01*
X114837919Y-116691935D01*
X115083065Y-116937081D01*
X115371327Y-117129692D01*
X115691627Y-117262364D01*
X116031655Y-117330000D01*
X116378345Y-117330000D01*
X116718373Y-117262364D01*
X117038673Y-117129692D01*
X117326935Y-116937081D01*
X117572081Y-116691935D01*
X117764692Y-116403673D01*
X117897364Y-116083373D01*
X117965000Y-115743345D01*
X117965000Y-115396655D01*
X133495000Y-115396655D01*
X133495000Y-115743345D01*
X133562636Y-116083373D01*
X133695308Y-116403673D01*
X133887919Y-116691935D01*
X134133065Y-116937081D01*
X134421327Y-117129692D01*
X134741627Y-117262364D01*
X135081655Y-117330000D01*
X135428345Y-117330000D01*
X135768373Y-117262364D01*
X136088673Y-117129692D01*
X136376935Y-116937081D01*
X136622081Y-116691935D01*
X136814692Y-116403673D01*
X136947364Y-116083373D01*
X137015000Y-115743345D01*
X137015000Y-115396655D01*
X152545000Y-115396655D01*
X152545000Y-115743345D01*
X152612636Y-116083373D01*
X152745308Y-116403673D01*
X152937919Y-116691935D01*
X153183065Y-116937081D01*
X153471327Y-117129692D01*
X153791627Y-117262364D01*
X154131655Y-117330000D01*
X154478345Y-117330000D01*
X154818373Y-117262364D01*
X155138673Y-117129692D01*
X155426935Y-116937081D01*
X155672081Y-116691935D01*
X155864692Y-116403673D01*
X155997364Y-116083373D01*
X156065000Y-115743345D01*
X156065000Y-115396655D01*
X171595000Y-115396655D01*
X171595000Y-115743345D01*
X171662636Y-116083373D01*
X171795308Y-116403673D01*
X171987919Y-116691935D01*
X172233065Y-116937081D01*
X172521327Y-117129692D01*
X172841627Y-117262364D01*
X173181655Y-117330000D01*
X173528345Y-117330000D01*
X173868373Y-117262364D01*
X174188673Y-117129692D01*
X174476935Y-116937081D01*
X174722081Y-116691935D01*
X174914692Y-116403673D01*
X175047364Y-116083373D01*
X175115000Y-115743345D01*
X175115000Y-115396655D01*
X190645000Y-115396655D01*
X190645000Y-115743345D01*
X190712636Y-116083373D01*
X190845308Y-116403673D01*
X191037919Y-116691935D01*
X191283065Y-116937081D01*
X191571327Y-117129692D01*
X191891627Y-117262364D01*
X192231655Y-117330000D01*
X192578345Y-117330000D01*
X192918373Y-117262364D01*
X193231060Y-117132845D01*
X208166761Y-117132845D01*
X208334802Y-117458643D01*
X208726607Y-117659426D01*
X209150055Y-117779914D01*
X209588873Y-117815476D01*
X210026197Y-117764746D01*
X210445221Y-117629674D01*
X210765198Y-117458643D01*
X210933239Y-117132845D01*
X209550000Y-115749605D01*
X208166761Y-117132845D01*
X193231060Y-117132845D01*
X193238673Y-117129692D01*
X193526935Y-116937081D01*
X193772081Y-116691935D01*
X193964692Y-116403673D01*
X194097364Y-116083373D01*
X194165000Y-115743345D01*
X194165000Y-115608873D01*
X207304524Y-115608873D01*
X207355254Y-116046197D01*
X207490326Y-116465221D01*
X207661357Y-116785198D01*
X207987155Y-116953239D01*
X209370395Y-115570000D01*
X209729605Y-115570000D01*
X211112845Y-116953239D01*
X211438643Y-116785198D01*
X211639426Y-116393393D01*
X211759914Y-115969945D01*
X211795476Y-115531127D01*
X211744746Y-115093803D01*
X211609674Y-114674779D01*
X211438643Y-114354802D01*
X211112845Y-114186761D01*
X209729605Y-115570000D01*
X209370395Y-115570000D01*
X207987155Y-114186761D01*
X207661357Y-114354802D01*
X207460574Y-114746607D01*
X207340086Y-115170055D01*
X207304524Y-115608873D01*
X194165000Y-115608873D01*
X194165000Y-115396655D01*
X194097364Y-115056627D01*
X193964692Y-114736327D01*
X193772081Y-114448065D01*
X193526935Y-114202919D01*
X193238673Y-114010308D01*
X192918373Y-113877636D01*
X192578345Y-113810000D01*
X192231655Y-113810000D01*
X191891627Y-113877636D01*
X191571327Y-114010308D01*
X191283065Y-114202919D01*
X191037919Y-114448065D01*
X190845308Y-114736327D01*
X190712636Y-115056627D01*
X190645000Y-115396655D01*
X175115000Y-115396655D01*
X175047364Y-115056627D01*
X174914692Y-114736327D01*
X174722081Y-114448065D01*
X174476935Y-114202919D01*
X174188673Y-114010308D01*
X173868373Y-113877636D01*
X173528345Y-113810000D01*
X173181655Y-113810000D01*
X172841627Y-113877636D01*
X172521327Y-114010308D01*
X172233065Y-114202919D01*
X171987919Y-114448065D01*
X171795308Y-114736327D01*
X171662636Y-115056627D01*
X171595000Y-115396655D01*
X156065000Y-115396655D01*
X155997364Y-115056627D01*
X155864692Y-114736327D01*
X155672081Y-114448065D01*
X155426935Y-114202919D01*
X155138673Y-114010308D01*
X154818373Y-113877636D01*
X154478345Y-113810000D01*
X154131655Y-113810000D01*
X153791627Y-113877636D01*
X153471327Y-114010308D01*
X153183065Y-114202919D01*
X152937919Y-114448065D01*
X152745308Y-114736327D01*
X152612636Y-115056627D01*
X152545000Y-115396655D01*
X137015000Y-115396655D01*
X136947364Y-115056627D01*
X136814692Y-114736327D01*
X136622081Y-114448065D01*
X136376935Y-114202919D01*
X136088673Y-114010308D01*
X135768373Y-113877636D01*
X135428345Y-113810000D01*
X135081655Y-113810000D01*
X134741627Y-113877636D01*
X134421327Y-114010308D01*
X134133065Y-114202919D01*
X133887919Y-114448065D01*
X133695308Y-114736327D01*
X133562636Y-115056627D01*
X133495000Y-115396655D01*
X117965000Y-115396655D01*
X117897364Y-115056627D01*
X117764692Y-114736327D01*
X117572081Y-114448065D01*
X117326935Y-114202919D01*
X117038673Y-114010308D01*
X116718373Y-113877636D01*
X116378345Y-113810000D01*
X116031655Y-113810000D01*
X115691627Y-113877636D01*
X115371327Y-114010308D01*
X115083065Y-114202919D01*
X114837919Y-114448065D01*
X114645308Y-114736327D01*
X114512636Y-115056627D01*
X114445000Y-115396655D01*
X105160797Y-115396655D01*
X105135226Y-115268102D01*
X105057205Y-115079744D01*
X104943937Y-114910226D01*
X104799774Y-114766063D01*
X104630256Y-114652795D01*
X104441898Y-114574774D01*
X104265000Y-114539587D01*
X104265000Y-112629317D01*
X104295363Y-112674759D01*
X104495241Y-112874637D01*
X104730273Y-113031680D01*
X104991426Y-113139853D01*
X105268665Y-113195000D01*
X105551335Y-113195000D01*
X105828574Y-113139853D01*
X106089727Y-113031680D01*
X106324759Y-112874637D01*
X106524637Y-112674759D01*
X106681680Y-112439727D01*
X106789853Y-112178574D01*
X106845000Y-111901335D01*
X106845000Y-111618665D01*
X106789853Y-111341426D01*
X106681680Y-111080273D01*
X106524637Y-110845241D01*
X106324759Y-110645363D01*
X106092241Y-110490000D01*
X106314820Y-110341278D01*
X112155000Y-110341278D01*
X112155000Y-110638722D01*
X112213029Y-110930451D01*
X112326856Y-111205253D01*
X112492107Y-111452569D01*
X112702431Y-111662893D01*
X112949747Y-111828144D01*
X113224549Y-111941971D01*
X113516278Y-112000000D01*
X113813722Y-112000000D01*
X114105451Y-111941971D01*
X114380253Y-111828144D01*
X114627569Y-111662893D01*
X114837893Y-111452569D01*
X115003144Y-111205253D01*
X115116971Y-110930451D01*
X115175000Y-110638722D01*
X115175000Y-110341278D01*
X115153080Y-110231076D01*
X116116100Y-110231076D01*
X116116100Y-110748924D01*
X116217127Y-111256822D01*
X116415299Y-111735251D01*
X116703000Y-112165826D01*
X117069174Y-112532000D01*
X117499749Y-112819701D01*
X117978178Y-113017873D01*
X118486076Y-113118900D01*
X119003924Y-113118900D01*
X119511822Y-113017873D01*
X119990251Y-112819701D01*
X120420826Y-112532000D01*
X120787000Y-112165826D01*
X121074701Y-111735251D01*
X121272873Y-111256822D01*
X121373900Y-110748924D01*
X121373900Y-110231076D01*
X121272873Y-109723178D01*
X121074701Y-109244749D01*
X120787000Y-108814174D01*
X120420826Y-108448000D01*
X119990251Y-108160299D01*
X119511822Y-107962127D01*
X119003924Y-107861100D01*
X118486076Y-107861100D01*
X117978178Y-107962127D01*
X117499749Y-108160299D01*
X117069174Y-108448000D01*
X116703000Y-108814174D01*
X116415299Y-109244749D01*
X116217127Y-109723178D01*
X116116100Y-110231076D01*
X115153080Y-110231076D01*
X115116971Y-110049549D01*
X115003144Y-109774747D01*
X114837893Y-109527431D01*
X114627569Y-109317107D01*
X114380253Y-109151856D01*
X114105451Y-109038029D01*
X113813722Y-108980000D01*
X113516278Y-108980000D01*
X113224549Y-109038029D01*
X112949747Y-109151856D01*
X112702431Y-109317107D01*
X112492107Y-109527431D01*
X112326856Y-109774747D01*
X112213029Y-110049549D01*
X112155000Y-110341278D01*
X106314820Y-110341278D01*
X106324759Y-110334637D01*
X106524637Y-110134759D01*
X106681680Y-109899727D01*
X106789853Y-109638574D01*
X106845000Y-109361335D01*
X106845000Y-109078665D01*
X106789853Y-108801426D01*
X106681680Y-108540273D01*
X106524637Y-108305241D01*
X106324759Y-108105363D01*
X106092241Y-107950000D01*
X106324759Y-107794637D01*
X106524637Y-107594759D01*
X106681680Y-107359727D01*
X106789853Y-107098574D01*
X106845000Y-106821335D01*
X106845000Y-106538665D01*
X106789853Y-106261426D01*
X106681680Y-106000273D01*
X106524637Y-105765241D01*
X106324759Y-105565363D01*
X106092241Y-105410000D01*
X106324759Y-105254637D01*
X106524637Y-105054759D01*
X106681680Y-104819727D01*
X106789853Y-104558574D01*
X106845000Y-104281335D01*
X106845000Y-103998665D01*
X106789853Y-103721426D01*
X106681680Y-103460273D01*
X106524637Y-103225241D01*
X106324759Y-103025363D01*
X106092241Y-102870000D01*
X106324759Y-102714637D01*
X106524637Y-102514759D01*
X106681680Y-102279727D01*
X106789853Y-102018574D01*
X106845000Y-101741335D01*
X106845000Y-101458665D01*
X106789853Y-101181426D01*
X106681680Y-100920273D01*
X106524637Y-100685241D01*
X106324759Y-100485363D01*
X106092241Y-100330000D01*
X106324759Y-100174637D01*
X106524637Y-99974759D01*
X106681680Y-99739727D01*
X106789853Y-99478574D01*
X106845000Y-99201335D01*
X106845000Y-98918665D01*
X106789853Y-98641426D01*
X106681680Y-98380273D01*
X106524637Y-98145241D01*
X106324759Y-97945363D01*
X106092241Y-97790000D01*
X106324759Y-97634637D01*
X106524637Y-97434759D01*
X106681680Y-97199727D01*
X106789853Y-96938574D01*
X106845000Y-96661335D01*
X106845000Y-96378665D01*
X106838633Y-96346655D01*
X114445000Y-96346655D01*
X114445000Y-96693345D01*
X114512636Y-97033373D01*
X114645308Y-97353673D01*
X114837919Y-97641935D01*
X115083065Y-97887081D01*
X115371327Y-98079692D01*
X115691627Y-98212364D01*
X116031655Y-98280000D01*
X116378345Y-98280000D01*
X116718373Y-98212364D01*
X116895002Y-98139202D01*
X116895001Y-103819428D01*
X116522500Y-103819428D01*
X116398018Y-103831688D01*
X116278320Y-103867998D01*
X116168006Y-103926963D01*
X116071315Y-104006315D01*
X115991963Y-104103006D01*
X115932998Y-104213320D01*
X115896688Y-104333018D01*
X115884428Y-104457500D01*
X115884428Y-106362500D01*
X115896688Y-106486982D01*
X115932998Y-106606680D01*
X115991963Y-106716994D01*
X116071315Y-106813685D01*
X116168006Y-106893037D01*
X116278320Y-106952002D01*
X116398018Y-106988312D01*
X116522500Y-107000572D01*
X118427500Y-107000572D01*
X118551982Y-106988312D01*
X118671680Y-106952002D01*
X118781994Y-106893037D01*
X118878685Y-106813685D01*
X118958037Y-106716994D01*
X118999451Y-106639515D01*
X119003028Y-106643092D01*
X119263037Y-106816824D01*
X119551943Y-106936493D01*
X119858645Y-106997500D01*
X120171355Y-106997500D01*
X120478057Y-106936493D01*
X120766963Y-106816824D01*
X121026972Y-106643092D01*
X121248092Y-106421972D01*
X121421824Y-106161963D01*
X121541493Y-105873057D01*
X121602500Y-105566355D01*
X121602500Y-105253645D01*
X121541493Y-104946943D01*
X121421824Y-104658037D01*
X121248092Y-104398028D01*
X121026972Y-104176908D01*
X120766963Y-104003176D01*
X120478057Y-103883507D01*
X120171355Y-103822500D01*
X119858645Y-103822500D01*
X119551943Y-103883507D01*
X119263037Y-104003176D01*
X119003028Y-104176908D01*
X118999451Y-104180485D01*
X118958037Y-104103006D01*
X118878685Y-104006315D01*
X118781994Y-103926963D01*
X118671680Y-103867998D01*
X118551982Y-103831688D01*
X118427500Y-103819428D01*
X118415001Y-103819428D01*
X118415001Y-94054762D01*
X118486076Y-94068900D01*
X119003924Y-94068900D01*
X119511822Y-93967873D01*
X119901036Y-93806655D01*
X120795000Y-93806655D01*
X120795000Y-94153345D01*
X120862636Y-94493373D01*
X120995308Y-94813673D01*
X121187919Y-95101935D01*
X121433065Y-95347081D01*
X121721327Y-95539692D01*
X121795001Y-95570209D01*
X121795000Y-99626289D01*
X121751063Y-99670226D01*
X121637795Y-99839744D01*
X121559774Y-100028102D01*
X121520000Y-100228061D01*
X121520000Y-100431939D01*
X121559774Y-100631898D01*
X121637795Y-100820256D01*
X121751063Y-100989774D01*
X121795000Y-101033711D01*
X121795000Y-101637332D01*
X121795001Y-101637342D01*
X121795000Y-111439792D01*
X121721327Y-111470308D01*
X121433065Y-111662919D01*
X121187919Y-111908065D01*
X120995308Y-112196327D01*
X120862636Y-112516627D01*
X120795000Y-112856655D01*
X120795000Y-113203345D01*
X120862636Y-113543373D01*
X120995308Y-113863673D01*
X121187919Y-114151935D01*
X121433065Y-114397081D01*
X121721327Y-114589692D01*
X122041627Y-114722364D01*
X122381655Y-114790000D01*
X122728345Y-114790000D01*
X123068373Y-114722364D01*
X123388673Y-114589692D01*
X123676935Y-114397081D01*
X123922081Y-114151935D01*
X124114692Y-113863673D01*
X124247364Y-113543373D01*
X124315000Y-113203345D01*
X124315000Y-112856655D01*
X124247364Y-112516627D01*
X124114692Y-112196327D01*
X123982362Y-111998281D01*
X124265451Y-111941971D01*
X124540253Y-111828144D01*
X124787569Y-111662893D01*
X124997893Y-111452569D01*
X125163144Y-111205253D01*
X125276971Y-110930451D01*
X125335000Y-110638722D01*
X125335000Y-110341278D01*
X131205000Y-110341278D01*
X131205000Y-110638722D01*
X131263029Y-110930451D01*
X131376856Y-111205253D01*
X131542107Y-111452569D01*
X131752431Y-111662893D01*
X131999747Y-111828144D01*
X132274549Y-111941971D01*
X132566278Y-112000000D01*
X132863722Y-112000000D01*
X133155451Y-111941971D01*
X133430253Y-111828144D01*
X133677569Y-111662893D01*
X133887893Y-111452569D01*
X134053144Y-111205253D01*
X134166971Y-110930451D01*
X134225000Y-110638722D01*
X134225000Y-110341278D01*
X134203080Y-110231076D01*
X135166100Y-110231076D01*
X135166100Y-110748924D01*
X135267127Y-111256822D01*
X135465299Y-111735251D01*
X135753000Y-112165826D01*
X136119174Y-112532000D01*
X136549749Y-112819701D01*
X137028178Y-113017873D01*
X137536076Y-113118900D01*
X138053924Y-113118900D01*
X138561822Y-113017873D01*
X139040251Y-112819701D01*
X139470826Y-112532000D01*
X139837000Y-112165826D01*
X140124701Y-111735251D01*
X140322873Y-111256822D01*
X140423900Y-110748924D01*
X140423900Y-110231076D01*
X140322873Y-109723178D01*
X140124701Y-109244749D01*
X139837000Y-108814174D01*
X139470826Y-108448000D01*
X139040251Y-108160299D01*
X138561822Y-107962127D01*
X138053924Y-107861100D01*
X137536076Y-107861100D01*
X137028178Y-107962127D01*
X136549749Y-108160299D01*
X136119174Y-108448000D01*
X135753000Y-108814174D01*
X135465299Y-109244749D01*
X135267127Y-109723178D01*
X135166100Y-110231076D01*
X134203080Y-110231076D01*
X134166971Y-110049549D01*
X134053144Y-109774747D01*
X133887893Y-109527431D01*
X133677569Y-109317107D01*
X133430253Y-109151856D01*
X133155451Y-109038029D01*
X132863722Y-108980000D01*
X132566278Y-108980000D01*
X132274549Y-109038029D01*
X131999747Y-109151856D01*
X131752431Y-109317107D01*
X131542107Y-109527431D01*
X131376856Y-109774747D01*
X131263029Y-110049549D01*
X131205000Y-110341278D01*
X125335000Y-110341278D01*
X125276971Y-110049549D01*
X125163144Y-109774747D01*
X124997893Y-109527431D01*
X124787569Y-109317107D01*
X124540253Y-109151856D01*
X124265451Y-109038029D01*
X123973722Y-108980000D01*
X123676278Y-108980000D01*
X123384549Y-109038029D01*
X123315000Y-109066837D01*
X123315000Y-104457500D01*
X134934428Y-104457500D01*
X134934428Y-106362500D01*
X134946688Y-106486982D01*
X134982998Y-106606680D01*
X135041963Y-106716994D01*
X135121315Y-106813685D01*
X135218006Y-106893037D01*
X135328320Y-106952002D01*
X135448018Y-106988312D01*
X135572500Y-107000572D01*
X137477500Y-107000572D01*
X137601982Y-106988312D01*
X137721680Y-106952002D01*
X137831994Y-106893037D01*
X137928685Y-106813685D01*
X138008037Y-106716994D01*
X138049451Y-106639515D01*
X138053028Y-106643092D01*
X138313037Y-106816824D01*
X138601943Y-106936493D01*
X138908645Y-106997500D01*
X139221355Y-106997500D01*
X139528057Y-106936493D01*
X139816963Y-106816824D01*
X140076972Y-106643092D01*
X140298092Y-106421972D01*
X140471824Y-106161963D01*
X140591493Y-105873057D01*
X140652500Y-105566355D01*
X140652500Y-105253645D01*
X140591493Y-104946943D01*
X140471824Y-104658037D01*
X140298092Y-104398028D01*
X140076972Y-104176908D01*
X139816963Y-104003176D01*
X139528057Y-103883507D01*
X139221355Y-103822500D01*
X138908645Y-103822500D01*
X138601943Y-103883507D01*
X138313037Y-104003176D01*
X138053028Y-104176908D01*
X138049451Y-104180485D01*
X138008037Y-104103006D01*
X137928685Y-104006315D01*
X137831994Y-103926963D01*
X137721680Y-103867998D01*
X137601982Y-103831688D01*
X137477500Y-103819428D01*
X135572500Y-103819428D01*
X135448018Y-103831688D01*
X135328320Y-103867998D01*
X135218006Y-103926963D01*
X135121315Y-104006315D01*
X135041963Y-104103006D01*
X134982998Y-104213320D01*
X134946688Y-104333018D01*
X134934428Y-104457500D01*
X123315000Y-104457500D01*
X123315000Y-101033711D01*
X123358937Y-100989774D01*
X123472205Y-100820256D01*
X123550226Y-100631898D01*
X123590000Y-100431939D01*
X123590000Y-100228061D01*
X123550226Y-100028102D01*
X123472205Y-99839744D01*
X123358937Y-99670226D01*
X123315000Y-99626289D01*
X123315000Y-96346655D01*
X133495000Y-96346655D01*
X133495000Y-96693345D01*
X133562636Y-97033373D01*
X133695308Y-97353673D01*
X133887919Y-97641935D01*
X134133065Y-97887081D01*
X134421327Y-98079692D01*
X134741627Y-98212364D01*
X135081655Y-98280000D01*
X135428345Y-98280000D01*
X135768373Y-98212364D01*
X136088673Y-98079692D01*
X136376935Y-97887081D01*
X136622081Y-97641935D01*
X136814692Y-97353673D01*
X136947364Y-97033373D01*
X137015000Y-96693345D01*
X137015000Y-96346655D01*
X136947364Y-96006627D01*
X136814692Y-95686327D01*
X136622081Y-95398065D01*
X136376935Y-95152919D01*
X136088673Y-94960308D01*
X135768373Y-94827636D01*
X135428345Y-94760000D01*
X135081655Y-94760000D01*
X134741627Y-94827636D01*
X134421327Y-94960308D01*
X134133065Y-95152919D01*
X133887919Y-95398065D01*
X133695308Y-95686327D01*
X133562636Y-96006627D01*
X133495000Y-96346655D01*
X123315000Y-96346655D01*
X123315000Y-95570208D01*
X123388673Y-95539692D01*
X123676935Y-95347081D01*
X123922081Y-95101935D01*
X124114692Y-94813673D01*
X124247364Y-94493373D01*
X124315000Y-94153345D01*
X124315000Y-93806655D01*
X124247364Y-93466627D01*
X124114692Y-93146327D01*
X123982362Y-92948281D01*
X124265451Y-92891971D01*
X124540253Y-92778144D01*
X124787569Y-92612893D01*
X124997893Y-92402569D01*
X125163144Y-92155253D01*
X125276971Y-91880451D01*
X125335000Y-91588722D01*
X125335000Y-91291278D01*
X131205000Y-91291278D01*
X131205000Y-91588722D01*
X131263029Y-91880451D01*
X131376856Y-92155253D01*
X131542107Y-92402569D01*
X131752431Y-92612893D01*
X131999747Y-92778144D01*
X132274549Y-92891971D01*
X132566278Y-92950000D01*
X132863722Y-92950000D01*
X133155451Y-92891971D01*
X133430253Y-92778144D01*
X133677569Y-92612893D01*
X133887893Y-92402569D01*
X134053144Y-92155253D01*
X134166971Y-91880451D01*
X134225000Y-91588722D01*
X134225000Y-91291278D01*
X134203080Y-91181076D01*
X135166100Y-91181076D01*
X135166100Y-91698924D01*
X135267127Y-92206822D01*
X135465299Y-92685251D01*
X135753000Y-93115826D01*
X136119174Y-93482000D01*
X136549749Y-93769701D01*
X137028178Y-93967873D01*
X137536076Y-94068900D01*
X138053924Y-94068900D01*
X138561822Y-93967873D01*
X138951036Y-93806655D01*
X139845000Y-93806655D01*
X139845000Y-94153345D01*
X139912636Y-94493373D01*
X140045308Y-94813673D01*
X140237919Y-95101935D01*
X140483065Y-95347081D01*
X140771327Y-95539692D01*
X140845001Y-95570209D01*
X140845000Y-99626289D01*
X140801063Y-99670226D01*
X140687795Y-99839744D01*
X140609774Y-100028102D01*
X140570000Y-100228061D01*
X140570000Y-100431939D01*
X140609774Y-100631898D01*
X140687795Y-100820256D01*
X140801063Y-100989774D01*
X140845000Y-101033711D01*
X140845000Y-101637332D01*
X140845001Y-101637342D01*
X140845000Y-111439792D01*
X140771327Y-111470308D01*
X140483065Y-111662919D01*
X140237919Y-111908065D01*
X140045308Y-112196327D01*
X139912636Y-112516627D01*
X139845000Y-112856655D01*
X139845000Y-113203345D01*
X139912636Y-113543373D01*
X140045308Y-113863673D01*
X140237919Y-114151935D01*
X140483065Y-114397081D01*
X140771327Y-114589692D01*
X141091627Y-114722364D01*
X141431655Y-114790000D01*
X141778345Y-114790000D01*
X142118373Y-114722364D01*
X142438673Y-114589692D01*
X142726935Y-114397081D01*
X142972081Y-114151935D01*
X143164692Y-113863673D01*
X143297364Y-113543373D01*
X143365000Y-113203345D01*
X143365000Y-112856655D01*
X143297364Y-112516627D01*
X143164692Y-112196327D01*
X143032362Y-111998281D01*
X143315451Y-111941971D01*
X143590253Y-111828144D01*
X143837569Y-111662893D01*
X144047893Y-111452569D01*
X144213144Y-111205253D01*
X144326971Y-110930451D01*
X144385000Y-110638722D01*
X144385000Y-110341278D01*
X150255000Y-110341278D01*
X150255000Y-110638722D01*
X150313029Y-110930451D01*
X150426856Y-111205253D01*
X150592107Y-111452569D01*
X150802431Y-111662893D01*
X151049747Y-111828144D01*
X151324549Y-111941971D01*
X151616278Y-112000000D01*
X151913722Y-112000000D01*
X152205451Y-111941971D01*
X152480253Y-111828144D01*
X152727569Y-111662893D01*
X152937893Y-111452569D01*
X153103144Y-111205253D01*
X153216971Y-110930451D01*
X153275000Y-110638722D01*
X153275000Y-110341278D01*
X153253080Y-110231076D01*
X154216100Y-110231076D01*
X154216100Y-110748924D01*
X154317127Y-111256822D01*
X154515299Y-111735251D01*
X154803000Y-112165826D01*
X155169174Y-112532000D01*
X155599749Y-112819701D01*
X156078178Y-113017873D01*
X156586076Y-113118900D01*
X157103924Y-113118900D01*
X157611822Y-113017873D01*
X158090251Y-112819701D01*
X158520826Y-112532000D01*
X158887000Y-112165826D01*
X159174701Y-111735251D01*
X159372873Y-111256822D01*
X159473900Y-110748924D01*
X159473900Y-110231076D01*
X159372873Y-109723178D01*
X159174701Y-109244749D01*
X158887000Y-108814174D01*
X158520826Y-108448000D01*
X158090251Y-108160299D01*
X157611822Y-107962127D01*
X157103924Y-107861100D01*
X156586076Y-107861100D01*
X156078178Y-107962127D01*
X155599749Y-108160299D01*
X155169174Y-108448000D01*
X154803000Y-108814174D01*
X154515299Y-109244749D01*
X154317127Y-109723178D01*
X154216100Y-110231076D01*
X153253080Y-110231076D01*
X153216971Y-110049549D01*
X153103144Y-109774747D01*
X152937893Y-109527431D01*
X152727569Y-109317107D01*
X152480253Y-109151856D01*
X152205451Y-109038029D01*
X151913722Y-108980000D01*
X151616278Y-108980000D01*
X151324549Y-109038029D01*
X151049747Y-109151856D01*
X150802431Y-109317107D01*
X150592107Y-109527431D01*
X150426856Y-109774747D01*
X150313029Y-110049549D01*
X150255000Y-110341278D01*
X144385000Y-110341278D01*
X144326971Y-110049549D01*
X144213144Y-109774747D01*
X144047893Y-109527431D01*
X143837569Y-109317107D01*
X143590253Y-109151856D01*
X143315451Y-109038029D01*
X143023722Y-108980000D01*
X142726278Y-108980000D01*
X142434549Y-109038029D01*
X142365000Y-109066837D01*
X142365000Y-104457500D01*
X153984428Y-104457500D01*
X153984428Y-106362500D01*
X153996688Y-106486982D01*
X154032998Y-106606680D01*
X154091963Y-106716994D01*
X154171315Y-106813685D01*
X154268006Y-106893037D01*
X154378320Y-106952002D01*
X154498018Y-106988312D01*
X154622500Y-107000572D01*
X156527500Y-107000572D01*
X156651982Y-106988312D01*
X156771680Y-106952002D01*
X156881994Y-106893037D01*
X156978685Y-106813685D01*
X157058037Y-106716994D01*
X157099451Y-106639515D01*
X157103028Y-106643092D01*
X157363037Y-106816824D01*
X157651943Y-106936493D01*
X157958645Y-106997500D01*
X158271355Y-106997500D01*
X158578057Y-106936493D01*
X158866963Y-106816824D01*
X159126972Y-106643092D01*
X159348092Y-106421972D01*
X159521824Y-106161963D01*
X159641493Y-105873057D01*
X159702500Y-105566355D01*
X159702500Y-105253645D01*
X159641493Y-104946943D01*
X159521824Y-104658037D01*
X159348092Y-104398028D01*
X159126972Y-104176908D01*
X158866963Y-104003176D01*
X158578057Y-103883507D01*
X158271355Y-103822500D01*
X157958645Y-103822500D01*
X157651943Y-103883507D01*
X157363037Y-104003176D01*
X157103028Y-104176908D01*
X157099451Y-104180485D01*
X157058037Y-104103006D01*
X156978685Y-104006315D01*
X156881994Y-103926963D01*
X156771680Y-103867998D01*
X156651982Y-103831688D01*
X156527500Y-103819428D01*
X154622500Y-103819428D01*
X154498018Y-103831688D01*
X154378320Y-103867998D01*
X154268006Y-103926963D01*
X154171315Y-104006315D01*
X154091963Y-104103006D01*
X154032998Y-104213320D01*
X153996688Y-104333018D01*
X153984428Y-104457500D01*
X142365000Y-104457500D01*
X142365000Y-101033711D01*
X142408937Y-100989774D01*
X142522205Y-100820256D01*
X142600226Y-100631898D01*
X142640000Y-100431939D01*
X142640000Y-100228061D01*
X142600226Y-100028102D01*
X142522205Y-99839744D01*
X142408937Y-99670226D01*
X142365000Y-99626289D01*
X142365000Y-96346655D01*
X152545000Y-96346655D01*
X152545000Y-96693345D01*
X152612636Y-97033373D01*
X152745308Y-97353673D01*
X152937919Y-97641935D01*
X153183065Y-97887081D01*
X153471327Y-98079692D01*
X153791627Y-98212364D01*
X154131655Y-98280000D01*
X154478345Y-98280000D01*
X154818373Y-98212364D01*
X155138673Y-98079692D01*
X155426935Y-97887081D01*
X155672081Y-97641935D01*
X155864692Y-97353673D01*
X155997364Y-97033373D01*
X156065000Y-96693345D01*
X156065000Y-96346655D01*
X155997364Y-96006627D01*
X155864692Y-95686327D01*
X155672081Y-95398065D01*
X155426935Y-95152919D01*
X155138673Y-94960308D01*
X154818373Y-94827636D01*
X154478345Y-94760000D01*
X154131655Y-94760000D01*
X153791627Y-94827636D01*
X153471327Y-94960308D01*
X153183065Y-95152919D01*
X152937919Y-95398065D01*
X152745308Y-95686327D01*
X152612636Y-96006627D01*
X152545000Y-96346655D01*
X142365000Y-96346655D01*
X142365000Y-95570208D01*
X142438673Y-95539692D01*
X142726935Y-95347081D01*
X142972081Y-95101935D01*
X143164692Y-94813673D01*
X143297364Y-94493373D01*
X143365000Y-94153345D01*
X143365000Y-93806655D01*
X143297364Y-93466627D01*
X143164692Y-93146327D01*
X143032362Y-92948281D01*
X143315451Y-92891971D01*
X143590253Y-92778144D01*
X143837569Y-92612893D01*
X144047893Y-92402569D01*
X144213144Y-92155253D01*
X144326971Y-91880451D01*
X144385000Y-91588722D01*
X144385000Y-91291278D01*
X150255000Y-91291278D01*
X150255000Y-91588722D01*
X150313029Y-91880451D01*
X150426856Y-92155253D01*
X150592107Y-92402569D01*
X150802431Y-92612893D01*
X151049747Y-92778144D01*
X151324549Y-92891971D01*
X151616278Y-92950000D01*
X151913722Y-92950000D01*
X152205451Y-92891971D01*
X152480253Y-92778144D01*
X152727569Y-92612893D01*
X152937893Y-92402569D01*
X153103144Y-92155253D01*
X153216971Y-91880451D01*
X153275000Y-91588722D01*
X153275000Y-91291278D01*
X153253080Y-91181076D01*
X154216100Y-91181076D01*
X154216100Y-91698924D01*
X154317127Y-92206822D01*
X154515299Y-92685251D01*
X154803000Y-93115826D01*
X155169174Y-93482000D01*
X155599749Y-93769701D01*
X156078178Y-93967873D01*
X156586076Y-94068900D01*
X157103924Y-94068900D01*
X157611822Y-93967873D01*
X158001036Y-93806655D01*
X158895000Y-93806655D01*
X158895000Y-94153345D01*
X158962636Y-94493373D01*
X159095308Y-94813673D01*
X159287919Y-95101935D01*
X159533065Y-95347081D01*
X159821327Y-95539692D01*
X159895001Y-95570209D01*
X159895000Y-99626289D01*
X159851063Y-99670226D01*
X159737795Y-99839744D01*
X159659774Y-100028102D01*
X159620000Y-100228061D01*
X159620000Y-100431939D01*
X159659774Y-100631898D01*
X159737795Y-100820256D01*
X159851063Y-100989774D01*
X159895001Y-101033712D01*
X159895000Y-111439792D01*
X159821327Y-111470308D01*
X159533065Y-111662919D01*
X159287919Y-111908065D01*
X159095308Y-112196327D01*
X158962636Y-112516627D01*
X158895000Y-112856655D01*
X158895000Y-113203345D01*
X158962636Y-113543373D01*
X159095308Y-113863673D01*
X159287919Y-114151935D01*
X159533065Y-114397081D01*
X159821327Y-114589692D01*
X160141627Y-114722364D01*
X160481655Y-114790000D01*
X160828345Y-114790000D01*
X161168373Y-114722364D01*
X161488673Y-114589692D01*
X161776935Y-114397081D01*
X162022081Y-114151935D01*
X162214692Y-113863673D01*
X162347364Y-113543373D01*
X162415000Y-113203345D01*
X162415000Y-112856655D01*
X162347364Y-112516627D01*
X162214692Y-112196327D01*
X162082362Y-111998281D01*
X162365451Y-111941971D01*
X162640253Y-111828144D01*
X162887569Y-111662893D01*
X163097893Y-111452569D01*
X163263144Y-111205253D01*
X163376971Y-110930451D01*
X163435000Y-110638722D01*
X163435000Y-110341278D01*
X169305000Y-110341278D01*
X169305000Y-110638722D01*
X169363029Y-110930451D01*
X169476856Y-111205253D01*
X169642107Y-111452569D01*
X169852431Y-111662893D01*
X170099747Y-111828144D01*
X170374549Y-111941971D01*
X170666278Y-112000000D01*
X170963722Y-112000000D01*
X171255451Y-111941971D01*
X171530253Y-111828144D01*
X171777569Y-111662893D01*
X171987893Y-111452569D01*
X172153144Y-111205253D01*
X172266971Y-110930451D01*
X172325000Y-110638722D01*
X172325000Y-110341278D01*
X172303080Y-110231076D01*
X173266100Y-110231076D01*
X173266100Y-110748924D01*
X173367127Y-111256822D01*
X173565299Y-111735251D01*
X173853000Y-112165826D01*
X174219174Y-112532000D01*
X174649749Y-112819701D01*
X175128178Y-113017873D01*
X175636076Y-113118900D01*
X176153924Y-113118900D01*
X176661822Y-113017873D01*
X177140251Y-112819701D01*
X177570826Y-112532000D01*
X177937000Y-112165826D01*
X178224701Y-111735251D01*
X178422873Y-111256822D01*
X178523900Y-110748924D01*
X178523900Y-110231076D01*
X178422873Y-109723178D01*
X178224701Y-109244749D01*
X177937000Y-108814174D01*
X177570826Y-108448000D01*
X177140251Y-108160299D01*
X176661822Y-107962127D01*
X176153924Y-107861100D01*
X175636076Y-107861100D01*
X175128178Y-107962127D01*
X174649749Y-108160299D01*
X174219174Y-108448000D01*
X173853000Y-108814174D01*
X173565299Y-109244749D01*
X173367127Y-109723178D01*
X173266100Y-110231076D01*
X172303080Y-110231076D01*
X172266971Y-110049549D01*
X172153144Y-109774747D01*
X171987893Y-109527431D01*
X171777569Y-109317107D01*
X171530253Y-109151856D01*
X171255451Y-109038029D01*
X170963722Y-108980000D01*
X170666278Y-108980000D01*
X170374549Y-109038029D01*
X170099747Y-109151856D01*
X169852431Y-109317107D01*
X169642107Y-109527431D01*
X169476856Y-109774747D01*
X169363029Y-110049549D01*
X169305000Y-110341278D01*
X163435000Y-110341278D01*
X163376971Y-110049549D01*
X163263144Y-109774747D01*
X163097893Y-109527431D01*
X162887569Y-109317107D01*
X162640253Y-109151856D01*
X162365451Y-109038029D01*
X162073722Y-108980000D01*
X161776278Y-108980000D01*
X161484549Y-109038029D01*
X161415000Y-109066837D01*
X161415000Y-104457500D01*
X173034428Y-104457500D01*
X173034428Y-106362500D01*
X173046688Y-106486982D01*
X173082998Y-106606680D01*
X173141963Y-106716994D01*
X173221315Y-106813685D01*
X173318006Y-106893037D01*
X173428320Y-106952002D01*
X173548018Y-106988312D01*
X173672500Y-107000572D01*
X175577500Y-107000572D01*
X175701982Y-106988312D01*
X175821680Y-106952002D01*
X175931994Y-106893037D01*
X176028685Y-106813685D01*
X176108037Y-106716994D01*
X176149451Y-106639515D01*
X176153028Y-106643092D01*
X176413037Y-106816824D01*
X176701943Y-106936493D01*
X177008645Y-106997500D01*
X177321355Y-106997500D01*
X177628057Y-106936493D01*
X177916963Y-106816824D01*
X178176972Y-106643092D01*
X178398092Y-106421972D01*
X178571824Y-106161963D01*
X178691493Y-105873057D01*
X178752500Y-105566355D01*
X178752500Y-105253645D01*
X178691493Y-104946943D01*
X178571824Y-104658037D01*
X178398092Y-104398028D01*
X178176972Y-104176908D01*
X177916963Y-104003176D01*
X177628057Y-103883507D01*
X177321355Y-103822500D01*
X177008645Y-103822500D01*
X176701943Y-103883507D01*
X176413037Y-104003176D01*
X176153028Y-104176908D01*
X176149451Y-104180485D01*
X176108037Y-104103006D01*
X176028685Y-104006315D01*
X175931994Y-103926963D01*
X175821680Y-103867998D01*
X175701982Y-103831688D01*
X175577500Y-103819428D01*
X173672500Y-103819428D01*
X173548018Y-103831688D01*
X173428320Y-103867998D01*
X173318006Y-103926963D01*
X173221315Y-104006315D01*
X173141963Y-104103006D01*
X173082998Y-104213320D01*
X173046688Y-104333018D01*
X173034428Y-104457500D01*
X161415000Y-104457500D01*
X161415000Y-101033711D01*
X161458937Y-100989774D01*
X161572205Y-100820256D01*
X161650226Y-100631898D01*
X161690000Y-100431939D01*
X161690000Y-100228061D01*
X161650226Y-100028102D01*
X161572205Y-99839744D01*
X161458937Y-99670226D01*
X161415000Y-99626289D01*
X161415000Y-96346655D01*
X171595000Y-96346655D01*
X171595000Y-96693345D01*
X171662636Y-97033373D01*
X171795308Y-97353673D01*
X171987919Y-97641935D01*
X172233065Y-97887081D01*
X172521327Y-98079692D01*
X172841627Y-98212364D01*
X173181655Y-98280000D01*
X173528345Y-98280000D01*
X173868373Y-98212364D01*
X174188673Y-98079692D01*
X174476935Y-97887081D01*
X174722081Y-97641935D01*
X174914692Y-97353673D01*
X175047364Y-97033373D01*
X175115000Y-96693345D01*
X175115000Y-96346655D01*
X175047364Y-96006627D01*
X174914692Y-95686327D01*
X174722081Y-95398065D01*
X174476935Y-95152919D01*
X174188673Y-94960308D01*
X173868373Y-94827636D01*
X173528345Y-94760000D01*
X173181655Y-94760000D01*
X172841627Y-94827636D01*
X172521327Y-94960308D01*
X172233065Y-95152919D01*
X171987919Y-95398065D01*
X171795308Y-95686327D01*
X171662636Y-96006627D01*
X171595000Y-96346655D01*
X161415000Y-96346655D01*
X161415000Y-95570208D01*
X161488673Y-95539692D01*
X161776935Y-95347081D01*
X162022081Y-95101935D01*
X162214692Y-94813673D01*
X162347364Y-94493373D01*
X162415000Y-94153345D01*
X162415000Y-93806655D01*
X162347364Y-93466627D01*
X162214692Y-93146327D01*
X162082362Y-92948281D01*
X162365451Y-92891971D01*
X162640253Y-92778144D01*
X162887569Y-92612893D01*
X163097893Y-92402569D01*
X163263144Y-92155253D01*
X163376971Y-91880451D01*
X163435000Y-91588722D01*
X163435000Y-91291278D01*
X169305000Y-91291278D01*
X169305000Y-91588722D01*
X169363029Y-91880451D01*
X169476856Y-92155253D01*
X169642107Y-92402569D01*
X169852431Y-92612893D01*
X170099747Y-92778144D01*
X170374549Y-92891971D01*
X170666278Y-92950000D01*
X170963722Y-92950000D01*
X171255451Y-92891971D01*
X171530253Y-92778144D01*
X171777569Y-92612893D01*
X171987893Y-92402569D01*
X172153144Y-92155253D01*
X172266971Y-91880451D01*
X172325000Y-91588722D01*
X172325000Y-91291278D01*
X172303080Y-91181076D01*
X173266100Y-91181076D01*
X173266100Y-91698924D01*
X173367127Y-92206822D01*
X173565299Y-92685251D01*
X173853000Y-93115826D01*
X174219174Y-93482000D01*
X174649749Y-93769701D01*
X175128178Y-93967873D01*
X175636076Y-94068900D01*
X176153924Y-94068900D01*
X176661822Y-93967873D01*
X177051036Y-93806655D01*
X177945000Y-93806655D01*
X177945000Y-94153345D01*
X178012636Y-94493373D01*
X178145308Y-94813673D01*
X178337919Y-95101935D01*
X178583065Y-95347081D01*
X178871327Y-95539692D01*
X178945001Y-95570209D01*
X178945000Y-111439792D01*
X178871327Y-111470308D01*
X178583065Y-111662919D01*
X178337919Y-111908065D01*
X178145308Y-112196327D01*
X178012636Y-112516627D01*
X177945000Y-112856655D01*
X177945000Y-113203345D01*
X178012636Y-113543373D01*
X178145308Y-113863673D01*
X178337919Y-114151935D01*
X178583065Y-114397081D01*
X178871327Y-114589692D01*
X179191627Y-114722364D01*
X179531655Y-114790000D01*
X179878345Y-114790000D01*
X180218373Y-114722364D01*
X180538673Y-114589692D01*
X180826935Y-114397081D01*
X181072081Y-114151935D01*
X181264692Y-113863673D01*
X181397364Y-113543373D01*
X181465000Y-113203345D01*
X181465000Y-112856655D01*
X181397364Y-112516627D01*
X181264692Y-112196327D01*
X181132362Y-111998281D01*
X181415451Y-111941971D01*
X181690253Y-111828144D01*
X181937569Y-111662893D01*
X182147893Y-111452569D01*
X182313144Y-111205253D01*
X182426971Y-110930451D01*
X182485000Y-110638722D01*
X182485000Y-110341278D01*
X188355000Y-110341278D01*
X188355000Y-110638722D01*
X188413029Y-110930451D01*
X188526856Y-111205253D01*
X188692107Y-111452569D01*
X188902431Y-111662893D01*
X189149747Y-111828144D01*
X189424549Y-111941971D01*
X189716278Y-112000000D01*
X190013722Y-112000000D01*
X190305451Y-111941971D01*
X190580253Y-111828144D01*
X190827569Y-111662893D01*
X191037893Y-111452569D01*
X191203144Y-111205253D01*
X191316971Y-110930451D01*
X191375000Y-110638722D01*
X191375000Y-110341278D01*
X191353080Y-110231076D01*
X192316100Y-110231076D01*
X192316100Y-110748924D01*
X192417127Y-111256822D01*
X192615299Y-111735251D01*
X192903000Y-112165826D01*
X193269174Y-112532000D01*
X193699749Y-112819701D01*
X194178178Y-113017873D01*
X194686076Y-113118900D01*
X195203924Y-113118900D01*
X195711822Y-113017873D01*
X196190251Y-112819701D01*
X196620826Y-112532000D01*
X196987000Y-112165826D01*
X197274701Y-111735251D01*
X197472873Y-111256822D01*
X197573900Y-110748924D01*
X197573900Y-110231076D01*
X197472873Y-109723178D01*
X197274701Y-109244749D01*
X196987000Y-108814174D01*
X196620826Y-108448000D01*
X196190251Y-108160299D01*
X195711822Y-107962127D01*
X195203924Y-107861100D01*
X194686076Y-107861100D01*
X194178178Y-107962127D01*
X193699749Y-108160299D01*
X193269174Y-108448000D01*
X192903000Y-108814174D01*
X192615299Y-109244749D01*
X192417127Y-109723178D01*
X192316100Y-110231076D01*
X191353080Y-110231076D01*
X191316971Y-110049549D01*
X191203144Y-109774747D01*
X191037893Y-109527431D01*
X190827569Y-109317107D01*
X190580253Y-109151856D01*
X190305451Y-109038029D01*
X190013722Y-108980000D01*
X189716278Y-108980000D01*
X189424549Y-109038029D01*
X189149747Y-109151856D01*
X188902431Y-109317107D01*
X188692107Y-109527431D01*
X188526856Y-109774747D01*
X188413029Y-110049549D01*
X188355000Y-110341278D01*
X182485000Y-110341278D01*
X182426971Y-110049549D01*
X182313144Y-109774747D01*
X182147893Y-109527431D01*
X181937569Y-109317107D01*
X181690253Y-109151856D01*
X181415451Y-109038029D01*
X181123722Y-108980000D01*
X180826278Y-108980000D01*
X180534549Y-109038029D01*
X180465000Y-109066837D01*
X180465000Y-104457500D01*
X192084428Y-104457500D01*
X192084428Y-106362500D01*
X192096688Y-106486982D01*
X192132998Y-106606680D01*
X192191963Y-106716994D01*
X192271315Y-106813685D01*
X192368006Y-106893037D01*
X192478320Y-106952002D01*
X192598018Y-106988312D01*
X192722500Y-107000572D01*
X194627500Y-107000572D01*
X194751982Y-106988312D01*
X194871680Y-106952002D01*
X194981994Y-106893037D01*
X195078685Y-106813685D01*
X195158037Y-106716994D01*
X195199451Y-106639515D01*
X195203028Y-106643092D01*
X195463037Y-106816824D01*
X195751943Y-106936493D01*
X196058645Y-106997500D01*
X196371355Y-106997500D01*
X196678057Y-106936493D01*
X196966963Y-106816824D01*
X197226972Y-106643092D01*
X197448092Y-106421972D01*
X197621824Y-106161963D01*
X197741493Y-105873057D01*
X197802500Y-105566355D01*
X197802500Y-105253645D01*
X197741493Y-104946943D01*
X197621824Y-104658037D01*
X197448092Y-104398028D01*
X197226972Y-104176908D01*
X196966963Y-104003176D01*
X196678057Y-103883507D01*
X196371355Y-103822500D01*
X196058645Y-103822500D01*
X195751943Y-103883507D01*
X195463037Y-104003176D01*
X195203028Y-104176908D01*
X195199451Y-104180485D01*
X195158037Y-104103006D01*
X195078685Y-104006315D01*
X194981994Y-103926963D01*
X194871680Y-103867998D01*
X194751982Y-103831688D01*
X194627500Y-103819428D01*
X192722500Y-103819428D01*
X192598018Y-103831688D01*
X192478320Y-103867998D01*
X192368006Y-103926963D01*
X192271315Y-104006315D01*
X192191963Y-104103006D01*
X192132998Y-104213320D01*
X192096688Y-104333018D01*
X192084428Y-104457500D01*
X180465000Y-104457500D01*
X180465000Y-96346655D01*
X190645000Y-96346655D01*
X190645000Y-96693345D01*
X190712636Y-97033373D01*
X190845308Y-97353673D01*
X191037919Y-97641935D01*
X191283065Y-97887081D01*
X191571327Y-98079692D01*
X191891627Y-98212364D01*
X192231655Y-98280000D01*
X192578345Y-98280000D01*
X192918373Y-98212364D01*
X193238673Y-98079692D01*
X193526935Y-97887081D01*
X193772081Y-97641935D01*
X193964692Y-97353673D01*
X194097364Y-97033373D01*
X194165000Y-96693345D01*
X194165000Y-96346655D01*
X194097364Y-96006627D01*
X193964692Y-95686327D01*
X193772081Y-95398065D01*
X193526935Y-95152919D01*
X193238673Y-94960308D01*
X192918373Y-94827636D01*
X192578345Y-94760000D01*
X192231655Y-94760000D01*
X191891627Y-94827636D01*
X191571327Y-94960308D01*
X191283065Y-95152919D01*
X191037919Y-95398065D01*
X190845308Y-95686327D01*
X190712636Y-96006627D01*
X190645000Y-96346655D01*
X180465000Y-96346655D01*
X180465000Y-95570208D01*
X180538673Y-95539692D01*
X180826935Y-95347081D01*
X181072081Y-95101935D01*
X181264692Y-94813673D01*
X181397364Y-94493373D01*
X181465000Y-94153345D01*
X181465000Y-93806655D01*
X181397364Y-93466627D01*
X181264692Y-93146327D01*
X181132362Y-92948281D01*
X181415451Y-92891971D01*
X181690253Y-92778144D01*
X181937569Y-92612893D01*
X182147893Y-92402569D01*
X182313144Y-92155253D01*
X182426971Y-91880451D01*
X182485000Y-91588722D01*
X182485000Y-91291278D01*
X188355000Y-91291278D01*
X188355000Y-91588722D01*
X188413029Y-91880451D01*
X188526856Y-92155253D01*
X188692107Y-92402569D01*
X188902431Y-92612893D01*
X189149747Y-92778144D01*
X189424549Y-92891971D01*
X189716278Y-92950000D01*
X190013722Y-92950000D01*
X190305451Y-92891971D01*
X190580253Y-92778144D01*
X190827569Y-92612893D01*
X191037893Y-92402569D01*
X191203144Y-92155253D01*
X191316971Y-91880451D01*
X191375000Y-91588722D01*
X191375000Y-91291278D01*
X191353080Y-91181076D01*
X192316100Y-91181076D01*
X192316100Y-91698924D01*
X192417127Y-92206822D01*
X192615299Y-92685251D01*
X192903000Y-93115826D01*
X193269174Y-93482000D01*
X193699749Y-93769701D01*
X194178178Y-93967873D01*
X194686076Y-94068900D01*
X195203924Y-94068900D01*
X195711822Y-93967873D01*
X196101036Y-93806655D01*
X196995000Y-93806655D01*
X196995000Y-94153345D01*
X197062636Y-94493373D01*
X197195308Y-94813673D01*
X197387919Y-95101935D01*
X197633065Y-95347081D01*
X197921327Y-95539692D01*
X197995001Y-95570209D01*
X197995000Y-111439792D01*
X197921327Y-111470308D01*
X197633065Y-111662919D01*
X197387919Y-111908065D01*
X197195308Y-112196327D01*
X197062636Y-112516627D01*
X196995000Y-112856655D01*
X196995000Y-113203345D01*
X197062636Y-113543373D01*
X197195308Y-113863673D01*
X197387919Y-114151935D01*
X197633065Y-114397081D01*
X197921327Y-114589692D01*
X198241627Y-114722364D01*
X198581655Y-114790000D01*
X198928345Y-114790000D01*
X199268373Y-114722364D01*
X199588673Y-114589692D01*
X199876935Y-114397081D01*
X200122081Y-114151935D01*
X200218820Y-114007155D01*
X208166761Y-114007155D01*
X209550000Y-115390395D01*
X210933239Y-114007155D01*
X210765198Y-113681357D01*
X210373393Y-113480574D01*
X209949945Y-113360086D01*
X209511127Y-113324524D01*
X209073803Y-113375254D01*
X208654779Y-113510326D01*
X208334802Y-113681357D01*
X208166761Y-114007155D01*
X200218820Y-114007155D01*
X200314692Y-113863673D01*
X200447364Y-113543373D01*
X200515000Y-113203345D01*
X200515000Y-112856655D01*
X200447364Y-112516627D01*
X200314692Y-112196327D01*
X200182362Y-111998281D01*
X200465451Y-111941971D01*
X200740253Y-111828144D01*
X200987569Y-111662893D01*
X201197893Y-111452569D01*
X201363144Y-111205253D01*
X201476971Y-110930451D01*
X201535000Y-110638722D01*
X201535000Y-110341278D01*
X201476971Y-110049549D01*
X201363144Y-109774747D01*
X201197893Y-109527431D01*
X200987569Y-109317107D01*
X200740253Y-109151856D01*
X200465451Y-109038029D01*
X200173722Y-108980000D01*
X199876278Y-108980000D01*
X199584549Y-109038029D01*
X199515000Y-109066837D01*
X199515000Y-95570208D01*
X199588673Y-95539692D01*
X199876935Y-95347081D01*
X200122081Y-95101935D01*
X200314692Y-94813673D01*
X200447364Y-94493373D01*
X200515000Y-94153345D01*
X200515000Y-93806655D01*
X200447364Y-93466627D01*
X200314692Y-93146327D01*
X200182362Y-92948281D01*
X200465451Y-92891971D01*
X200740253Y-92778144D01*
X200987569Y-92612893D01*
X201197893Y-92402569D01*
X201363144Y-92155253D01*
X201476971Y-91880451D01*
X201535000Y-91588722D01*
X201535000Y-91291278D01*
X201476971Y-90999549D01*
X201363144Y-90724747D01*
X201197893Y-90477431D01*
X200987569Y-90267107D01*
X200740253Y-90101856D01*
X200465451Y-89988029D01*
X200173722Y-89930000D01*
X199876278Y-89930000D01*
X199584549Y-89988029D01*
X199309747Y-90101856D01*
X199062431Y-90267107D01*
X198852107Y-90477431D01*
X198686856Y-90724747D01*
X198573029Y-90999549D01*
X198515000Y-91291278D01*
X198515000Y-91588722D01*
X198573029Y-91880451D01*
X198686856Y-92155253D01*
X198730118Y-92220000D01*
X198581655Y-92220000D01*
X198241627Y-92287636D01*
X197921327Y-92420308D01*
X197633065Y-92612919D01*
X197387919Y-92858065D01*
X197195308Y-93146327D01*
X197062636Y-93466627D01*
X196995000Y-93806655D01*
X196101036Y-93806655D01*
X196190251Y-93769701D01*
X196620826Y-93482000D01*
X196987000Y-93115826D01*
X197274701Y-92685251D01*
X197472873Y-92206822D01*
X197573900Y-91698924D01*
X197573900Y-91181076D01*
X197472873Y-90673178D01*
X197274701Y-90194749D01*
X196987000Y-89764174D01*
X196620826Y-89398000D01*
X196190251Y-89110299D01*
X195711822Y-88912127D01*
X195203924Y-88811100D01*
X194686076Y-88811100D01*
X194178178Y-88912127D01*
X193699749Y-89110299D01*
X193269174Y-89398000D01*
X192903000Y-89764174D01*
X192615299Y-90194749D01*
X192417127Y-90673178D01*
X192316100Y-91181076D01*
X191353080Y-91181076D01*
X191316971Y-90999549D01*
X191203144Y-90724747D01*
X191037893Y-90477431D01*
X190827569Y-90267107D01*
X190580253Y-90101856D01*
X190305451Y-89988029D01*
X190013722Y-89930000D01*
X189716278Y-89930000D01*
X189424549Y-89988029D01*
X189149747Y-90101856D01*
X188902431Y-90267107D01*
X188692107Y-90477431D01*
X188526856Y-90724747D01*
X188413029Y-90999549D01*
X188355000Y-91291278D01*
X182485000Y-91291278D01*
X182426971Y-90999549D01*
X182313144Y-90724747D01*
X182147893Y-90477431D01*
X181937569Y-90267107D01*
X181690253Y-90101856D01*
X181415451Y-89988029D01*
X181123722Y-89930000D01*
X180826278Y-89930000D01*
X180534549Y-89988029D01*
X180259747Y-90101856D01*
X180012431Y-90267107D01*
X179802107Y-90477431D01*
X179636856Y-90724747D01*
X179523029Y-90999549D01*
X179465000Y-91291278D01*
X179465000Y-91588722D01*
X179523029Y-91880451D01*
X179636856Y-92155253D01*
X179680118Y-92220000D01*
X179531655Y-92220000D01*
X179191627Y-92287636D01*
X178871327Y-92420308D01*
X178583065Y-92612919D01*
X178337919Y-92858065D01*
X178145308Y-93146327D01*
X178012636Y-93466627D01*
X177945000Y-93806655D01*
X177051036Y-93806655D01*
X177140251Y-93769701D01*
X177570826Y-93482000D01*
X177937000Y-93115826D01*
X178224701Y-92685251D01*
X178422873Y-92206822D01*
X178523900Y-91698924D01*
X178523900Y-91181076D01*
X178422873Y-90673178D01*
X178224701Y-90194749D01*
X177937000Y-89764174D01*
X177570826Y-89398000D01*
X177140251Y-89110299D01*
X176661822Y-88912127D01*
X176153924Y-88811100D01*
X175636076Y-88811100D01*
X175128178Y-88912127D01*
X174649749Y-89110299D01*
X174219174Y-89398000D01*
X173853000Y-89764174D01*
X173565299Y-90194749D01*
X173367127Y-90673178D01*
X173266100Y-91181076D01*
X172303080Y-91181076D01*
X172266971Y-90999549D01*
X172153144Y-90724747D01*
X171987893Y-90477431D01*
X171777569Y-90267107D01*
X171530253Y-90101856D01*
X171255451Y-89988029D01*
X170963722Y-89930000D01*
X170666278Y-89930000D01*
X170374549Y-89988029D01*
X170099747Y-90101856D01*
X169852431Y-90267107D01*
X169642107Y-90477431D01*
X169476856Y-90724747D01*
X169363029Y-90999549D01*
X169305000Y-91291278D01*
X163435000Y-91291278D01*
X163376971Y-90999549D01*
X163263144Y-90724747D01*
X163097893Y-90477431D01*
X162887569Y-90267107D01*
X162640253Y-90101856D01*
X162365451Y-89988029D01*
X162073722Y-89930000D01*
X161776278Y-89930000D01*
X161484549Y-89988029D01*
X161209747Y-90101856D01*
X160962431Y-90267107D01*
X160752107Y-90477431D01*
X160586856Y-90724747D01*
X160473029Y-90999549D01*
X160415000Y-91291278D01*
X160415000Y-91588722D01*
X160473029Y-91880451D01*
X160586856Y-92155253D01*
X160630118Y-92220000D01*
X160481655Y-92220000D01*
X160141627Y-92287636D01*
X159821327Y-92420308D01*
X159533065Y-92612919D01*
X159287919Y-92858065D01*
X159095308Y-93146327D01*
X158962636Y-93466627D01*
X158895000Y-93806655D01*
X158001036Y-93806655D01*
X158090251Y-93769701D01*
X158520826Y-93482000D01*
X158887000Y-93115826D01*
X159174701Y-92685251D01*
X159372873Y-92206822D01*
X159473900Y-91698924D01*
X159473900Y-91181076D01*
X159372873Y-90673178D01*
X159174701Y-90194749D01*
X158887000Y-89764174D01*
X158520826Y-89398000D01*
X158090251Y-89110299D01*
X157611822Y-88912127D01*
X157103924Y-88811100D01*
X156586076Y-88811100D01*
X156078178Y-88912127D01*
X155599749Y-89110299D01*
X155169174Y-89398000D01*
X154803000Y-89764174D01*
X154515299Y-90194749D01*
X154317127Y-90673178D01*
X154216100Y-91181076D01*
X153253080Y-91181076D01*
X153216971Y-90999549D01*
X153103144Y-90724747D01*
X152937893Y-90477431D01*
X152727569Y-90267107D01*
X152480253Y-90101856D01*
X152205451Y-89988029D01*
X151913722Y-89930000D01*
X151616278Y-89930000D01*
X151324549Y-89988029D01*
X151049747Y-90101856D01*
X150802431Y-90267107D01*
X150592107Y-90477431D01*
X150426856Y-90724747D01*
X150313029Y-90999549D01*
X150255000Y-91291278D01*
X144385000Y-91291278D01*
X144326971Y-90999549D01*
X144213144Y-90724747D01*
X144047893Y-90477431D01*
X143837569Y-90267107D01*
X143590253Y-90101856D01*
X143315451Y-89988029D01*
X143023722Y-89930000D01*
X142726278Y-89930000D01*
X142434549Y-89988029D01*
X142159747Y-90101856D01*
X141912431Y-90267107D01*
X141702107Y-90477431D01*
X141536856Y-90724747D01*
X141423029Y-90999549D01*
X141365000Y-91291278D01*
X141365000Y-91588722D01*
X141423029Y-91880451D01*
X141536856Y-92155253D01*
X141580118Y-92220000D01*
X141431655Y-92220000D01*
X141091627Y-92287636D01*
X140771327Y-92420308D01*
X140483065Y-92612919D01*
X140237919Y-92858065D01*
X140045308Y-93146327D01*
X139912636Y-93466627D01*
X139845000Y-93806655D01*
X138951036Y-93806655D01*
X139040251Y-93769701D01*
X139470826Y-93482000D01*
X139837000Y-93115826D01*
X140124701Y-92685251D01*
X140322873Y-92206822D01*
X140423900Y-91698924D01*
X140423900Y-91181076D01*
X140322873Y-90673178D01*
X140124701Y-90194749D01*
X139837000Y-89764174D01*
X139470826Y-89398000D01*
X139040251Y-89110299D01*
X138561822Y-88912127D01*
X138053924Y-88811100D01*
X137536076Y-88811100D01*
X137028178Y-88912127D01*
X136549749Y-89110299D01*
X136119174Y-89398000D01*
X135753000Y-89764174D01*
X135465299Y-90194749D01*
X135267127Y-90673178D01*
X135166100Y-91181076D01*
X134203080Y-91181076D01*
X134166971Y-90999549D01*
X134053144Y-90724747D01*
X133887893Y-90477431D01*
X133677569Y-90267107D01*
X133430253Y-90101856D01*
X133155451Y-89988029D01*
X132863722Y-89930000D01*
X132566278Y-89930000D01*
X132274549Y-89988029D01*
X131999747Y-90101856D01*
X131752431Y-90267107D01*
X131542107Y-90477431D01*
X131376856Y-90724747D01*
X131263029Y-90999549D01*
X131205000Y-91291278D01*
X125335000Y-91291278D01*
X125276971Y-90999549D01*
X125163144Y-90724747D01*
X124997893Y-90477431D01*
X124787569Y-90267107D01*
X124540253Y-90101856D01*
X124265451Y-89988029D01*
X123973722Y-89930000D01*
X123676278Y-89930000D01*
X123384549Y-89988029D01*
X123109747Y-90101856D01*
X122862431Y-90267107D01*
X122652107Y-90477431D01*
X122486856Y-90724747D01*
X122373029Y-90999549D01*
X122315000Y-91291278D01*
X122315000Y-91588722D01*
X122373029Y-91880451D01*
X122486856Y-92155253D01*
X122530118Y-92220000D01*
X122381655Y-92220000D01*
X122041627Y-92287636D01*
X121721327Y-92420308D01*
X121433065Y-92612919D01*
X121187919Y-92858065D01*
X120995308Y-93146327D01*
X120862636Y-93466627D01*
X120795000Y-93806655D01*
X119901036Y-93806655D01*
X119990251Y-93769701D01*
X120420826Y-93482000D01*
X120787000Y-93115826D01*
X121074701Y-92685251D01*
X121272873Y-92206822D01*
X121373900Y-91698924D01*
X121373900Y-91181076D01*
X121272873Y-90673178D01*
X121074701Y-90194749D01*
X120787000Y-89764174D01*
X120420826Y-89398000D01*
X119990251Y-89110299D01*
X119511822Y-88912127D01*
X119003924Y-88811100D01*
X118486076Y-88811100D01*
X117978178Y-88912127D01*
X117499749Y-89110299D01*
X117186099Y-89319873D01*
X117186099Y-87950572D01*
X118427500Y-87950572D01*
X118551982Y-87938312D01*
X118671680Y-87902002D01*
X118781994Y-87843037D01*
X118878685Y-87763685D01*
X118958037Y-87666994D01*
X118999451Y-87589515D01*
X119003028Y-87593092D01*
X119263037Y-87766824D01*
X119551943Y-87886493D01*
X119858645Y-87947500D01*
X120171355Y-87947500D01*
X120478057Y-87886493D01*
X120766963Y-87766824D01*
X121026972Y-87593092D01*
X121248092Y-87371972D01*
X121421824Y-87111963D01*
X121541493Y-86823057D01*
X121602500Y-86516355D01*
X121602500Y-86203645D01*
X121541493Y-85896943D01*
X121421824Y-85608037D01*
X121287830Y-85407500D01*
X134934428Y-85407500D01*
X134934428Y-87312500D01*
X134946688Y-87436982D01*
X134982998Y-87556680D01*
X135041963Y-87666994D01*
X135121315Y-87763685D01*
X135218006Y-87843037D01*
X135328320Y-87902002D01*
X135448018Y-87938312D01*
X135572500Y-87950572D01*
X137477500Y-87950572D01*
X137601982Y-87938312D01*
X137721680Y-87902002D01*
X137831994Y-87843037D01*
X137928685Y-87763685D01*
X138008037Y-87666994D01*
X138049451Y-87589515D01*
X138053028Y-87593092D01*
X138313037Y-87766824D01*
X138601943Y-87886493D01*
X138908645Y-87947500D01*
X139221355Y-87947500D01*
X139528057Y-87886493D01*
X139816963Y-87766824D01*
X140076972Y-87593092D01*
X140298092Y-87371972D01*
X140471824Y-87111963D01*
X140591493Y-86823057D01*
X140652500Y-86516355D01*
X140652500Y-86203645D01*
X140591493Y-85896943D01*
X140471824Y-85608037D01*
X140337830Y-85407500D01*
X153984428Y-85407500D01*
X153984428Y-87312500D01*
X153996688Y-87436982D01*
X154032998Y-87556680D01*
X154091963Y-87666994D01*
X154171315Y-87763685D01*
X154268006Y-87843037D01*
X154378320Y-87902002D01*
X154498018Y-87938312D01*
X154622500Y-87950572D01*
X156527500Y-87950572D01*
X156651982Y-87938312D01*
X156771680Y-87902002D01*
X156881994Y-87843037D01*
X156978685Y-87763685D01*
X157058037Y-87666994D01*
X157099451Y-87589515D01*
X157103028Y-87593092D01*
X157363037Y-87766824D01*
X157651943Y-87886493D01*
X157958645Y-87947500D01*
X158271355Y-87947500D01*
X158578057Y-87886493D01*
X158866963Y-87766824D01*
X159126972Y-87593092D01*
X159348092Y-87371972D01*
X159521824Y-87111963D01*
X159641493Y-86823057D01*
X159702500Y-86516355D01*
X159702500Y-86203645D01*
X159641493Y-85896943D01*
X159521824Y-85608037D01*
X159387830Y-85407500D01*
X173034428Y-85407500D01*
X173034428Y-87312500D01*
X173046688Y-87436982D01*
X173082998Y-87556680D01*
X173141963Y-87666994D01*
X173221315Y-87763685D01*
X173318006Y-87843037D01*
X173428320Y-87902002D01*
X173548018Y-87938312D01*
X173672500Y-87950572D01*
X175577500Y-87950572D01*
X175701982Y-87938312D01*
X175821680Y-87902002D01*
X175931994Y-87843037D01*
X176028685Y-87763685D01*
X176108037Y-87666994D01*
X176149451Y-87589515D01*
X176153028Y-87593092D01*
X176413037Y-87766824D01*
X176701943Y-87886493D01*
X177008645Y-87947500D01*
X177321355Y-87947500D01*
X177628057Y-87886493D01*
X177916963Y-87766824D01*
X178176972Y-87593092D01*
X178398092Y-87371972D01*
X178571824Y-87111963D01*
X178691493Y-86823057D01*
X178752500Y-86516355D01*
X178752500Y-86203645D01*
X178691493Y-85896943D01*
X178571824Y-85608037D01*
X178437830Y-85407500D01*
X192084428Y-85407500D01*
X192084428Y-87312500D01*
X192096688Y-87436982D01*
X192132998Y-87556680D01*
X192191963Y-87666994D01*
X192271315Y-87763685D01*
X192368006Y-87843037D01*
X192478320Y-87902002D01*
X192598018Y-87938312D01*
X192722500Y-87950572D01*
X194627500Y-87950572D01*
X194751982Y-87938312D01*
X194871680Y-87902002D01*
X194981994Y-87843037D01*
X195078685Y-87763685D01*
X195158037Y-87666994D01*
X195199451Y-87589515D01*
X195203028Y-87593092D01*
X195463037Y-87766824D01*
X195751943Y-87886493D01*
X196058645Y-87947500D01*
X196371355Y-87947500D01*
X196678057Y-87886493D01*
X196966963Y-87766824D01*
X197226972Y-87593092D01*
X197232218Y-87587846D01*
X208161762Y-87587846D01*
X208329803Y-87913644D01*
X208721608Y-88114427D01*
X209145056Y-88234915D01*
X209583874Y-88270477D01*
X210021198Y-88219747D01*
X210440222Y-88084675D01*
X210760199Y-87913644D01*
X210928240Y-87587846D01*
X209545001Y-86204606D01*
X208161762Y-87587846D01*
X197232218Y-87587846D01*
X197448092Y-87371972D01*
X197621824Y-87111963D01*
X197741493Y-86823057D01*
X197802500Y-86516355D01*
X197802500Y-86203645D01*
X197774698Y-86063874D01*
X207299525Y-86063874D01*
X207350255Y-86501198D01*
X207485327Y-86920222D01*
X207656358Y-87240199D01*
X207982156Y-87408240D01*
X209365396Y-86025001D01*
X209724606Y-86025001D01*
X211107846Y-87408240D01*
X211433644Y-87240199D01*
X211634427Y-86848394D01*
X211754915Y-86424946D01*
X211790477Y-85986128D01*
X211739747Y-85548804D01*
X211604675Y-85129780D01*
X211433644Y-84809803D01*
X211107846Y-84641762D01*
X209724606Y-86025001D01*
X209365396Y-86025001D01*
X207982156Y-84641762D01*
X207656358Y-84809803D01*
X207455575Y-85201608D01*
X207335087Y-85625056D01*
X207299525Y-86063874D01*
X197774698Y-86063874D01*
X197741493Y-85896943D01*
X197621824Y-85608037D01*
X197448092Y-85348028D01*
X197226972Y-85126908D01*
X196966963Y-84953176D01*
X196678057Y-84833507D01*
X196371355Y-84772500D01*
X196058645Y-84772500D01*
X195751943Y-84833507D01*
X195463037Y-84953176D01*
X195203028Y-85126908D01*
X195199451Y-85130485D01*
X195158037Y-85053006D01*
X195078685Y-84956315D01*
X194981994Y-84876963D01*
X194871680Y-84817998D01*
X194751982Y-84781688D01*
X194627500Y-84769428D01*
X192722500Y-84769428D01*
X192598018Y-84781688D01*
X192478320Y-84817998D01*
X192368006Y-84876963D01*
X192271315Y-84956315D01*
X192191963Y-85053006D01*
X192132998Y-85163320D01*
X192096688Y-85283018D01*
X192084428Y-85407500D01*
X178437830Y-85407500D01*
X178398092Y-85348028D01*
X178176972Y-85126908D01*
X177916963Y-84953176D01*
X177628057Y-84833507D01*
X177321355Y-84772500D01*
X177008645Y-84772500D01*
X176701943Y-84833507D01*
X176413037Y-84953176D01*
X176153028Y-85126908D01*
X176149451Y-85130485D01*
X176108037Y-85053006D01*
X176028685Y-84956315D01*
X175931994Y-84876963D01*
X175821680Y-84817998D01*
X175701982Y-84781688D01*
X175577500Y-84769428D01*
X173672500Y-84769428D01*
X173548018Y-84781688D01*
X173428320Y-84817998D01*
X173318006Y-84876963D01*
X173221315Y-84956315D01*
X173141963Y-85053006D01*
X173082998Y-85163320D01*
X173046688Y-85283018D01*
X173034428Y-85407500D01*
X159387830Y-85407500D01*
X159348092Y-85348028D01*
X159126972Y-85126908D01*
X158866963Y-84953176D01*
X158578057Y-84833507D01*
X158271355Y-84772500D01*
X157958645Y-84772500D01*
X157651943Y-84833507D01*
X157363037Y-84953176D01*
X157103028Y-85126908D01*
X157099451Y-85130485D01*
X157058037Y-85053006D01*
X156978685Y-84956315D01*
X156881994Y-84876963D01*
X156771680Y-84817998D01*
X156651982Y-84781688D01*
X156527500Y-84769428D01*
X154622500Y-84769428D01*
X154498018Y-84781688D01*
X154378320Y-84817998D01*
X154268006Y-84876963D01*
X154171315Y-84956315D01*
X154091963Y-85053006D01*
X154032998Y-85163320D01*
X153996688Y-85283018D01*
X153984428Y-85407500D01*
X140337830Y-85407500D01*
X140298092Y-85348028D01*
X140076972Y-85126908D01*
X139816963Y-84953176D01*
X139528057Y-84833507D01*
X139221355Y-84772500D01*
X138908645Y-84772500D01*
X138601943Y-84833507D01*
X138313037Y-84953176D01*
X138053028Y-85126908D01*
X138049451Y-85130485D01*
X138008037Y-85053006D01*
X137928685Y-84956315D01*
X137831994Y-84876963D01*
X137721680Y-84817998D01*
X137601982Y-84781688D01*
X137477500Y-84769428D01*
X135572500Y-84769428D01*
X135448018Y-84781688D01*
X135328320Y-84817998D01*
X135218006Y-84876963D01*
X135121315Y-84956315D01*
X135041963Y-85053006D01*
X134982998Y-85163320D01*
X134946688Y-85283018D01*
X134934428Y-85407500D01*
X121287830Y-85407500D01*
X121248092Y-85348028D01*
X121026972Y-85126908D01*
X120766963Y-84953176D01*
X120478057Y-84833507D01*
X120171355Y-84772500D01*
X119858645Y-84772500D01*
X119551943Y-84833507D01*
X119263037Y-84953176D01*
X119003028Y-85126908D01*
X118999451Y-85130485D01*
X118958037Y-85053006D01*
X118878685Y-84956315D01*
X118781994Y-84876963D01*
X118671680Y-84817998D01*
X118551982Y-84781688D01*
X118427500Y-84769428D01*
X116522500Y-84769428D01*
X116398018Y-84781688D01*
X116278320Y-84817998D01*
X116168006Y-84876963D01*
X116071315Y-84956315D01*
X115991963Y-85053006D01*
X115932998Y-85163320D01*
X115896688Y-85283018D01*
X115884428Y-85407500D01*
X115884428Y-86870936D01*
X115862301Y-86897898D01*
X115862300Y-86897899D01*
X115791125Y-86984625D01*
X115720553Y-87116655D01*
X115677097Y-87259916D01*
X115662423Y-87408901D01*
X115666100Y-87446233D01*
X115666099Y-92515750D01*
X115662423Y-92553073D01*
X115666099Y-92590395D01*
X115666099Y-92590405D01*
X115677096Y-92702058D01*
X115706069Y-92797571D01*
X115720553Y-92845319D01*
X115791125Y-92977349D01*
X115824731Y-93018298D01*
X115886098Y-93093074D01*
X115915102Y-93116877D01*
X116895002Y-94096778D01*
X116895002Y-94900798D01*
X116718373Y-94827636D01*
X116378345Y-94760000D01*
X116031655Y-94760000D01*
X115691627Y-94827636D01*
X115371327Y-94960308D01*
X115083065Y-95152919D01*
X114837919Y-95398065D01*
X114645308Y-95686327D01*
X114512636Y-96006627D01*
X114445000Y-96346655D01*
X106838633Y-96346655D01*
X106789853Y-96101426D01*
X106681680Y-95840273D01*
X106524637Y-95605241D01*
X106324759Y-95405363D01*
X106092241Y-95250000D01*
X106324759Y-95094637D01*
X106524637Y-94894759D01*
X106681680Y-94659727D01*
X106789853Y-94398574D01*
X106845000Y-94121335D01*
X106845000Y-93838665D01*
X106789853Y-93561426D01*
X106681680Y-93300273D01*
X106524637Y-93065241D01*
X106324759Y-92865363D01*
X106092241Y-92710000D01*
X106324759Y-92554637D01*
X106524637Y-92354759D01*
X106681680Y-92119727D01*
X106789853Y-91858574D01*
X106845000Y-91581335D01*
X106845000Y-91298665D01*
X106843531Y-91291278D01*
X112155000Y-91291278D01*
X112155000Y-91588722D01*
X112213029Y-91880451D01*
X112326856Y-92155253D01*
X112492107Y-92402569D01*
X112702431Y-92612893D01*
X112949747Y-92778144D01*
X113224549Y-92891971D01*
X113516278Y-92950000D01*
X113813722Y-92950000D01*
X114105451Y-92891971D01*
X114380253Y-92778144D01*
X114627569Y-92612893D01*
X114837893Y-92402569D01*
X115003144Y-92155253D01*
X115116971Y-91880451D01*
X115175000Y-91588722D01*
X115175000Y-91291278D01*
X115116971Y-90999549D01*
X115003144Y-90724747D01*
X114837893Y-90477431D01*
X114627569Y-90267107D01*
X114380253Y-90101856D01*
X114105451Y-89988029D01*
X113813722Y-89930000D01*
X113516278Y-89930000D01*
X113224549Y-89988029D01*
X112949747Y-90101856D01*
X112702431Y-90267107D01*
X112492107Y-90477431D01*
X112326856Y-90724747D01*
X112213029Y-90999549D01*
X112155000Y-91291278D01*
X106843531Y-91291278D01*
X106789853Y-91021426D01*
X106681680Y-90760273D01*
X106524637Y-90525241D01*
X106324759Y-90325363D01*
X106092241Y-90170000D01*
X106324759Y-90014637D01*
X106524637Y-89814759D01*
X106681680Y-89579727D01*
X106789853Y-89318574D01*
X106845000Y-89041335D01*
X106845000Y-88758665D01*
X106789853Y-88481426D01*
X106681680Y-88220273D01*
X106524637Y-87985241D01*
X106324759Y-87785363D01*
X106090872Y-87629085D01*
X106151514Y-87596671D01*
X106223097Y-87352702D01*
X105410000Y-86539605D01*
X104596903Y-87352702D01*
X104668486Y-87596671D01*
X104732992Y-87627194D01*
X104730273Y-87628320D01*
X104495241Y-87785363D01*
X104295363Y-87985241D01*
X104138320Y-88220273D01*
X104030147Y-88481426D01*
X103975000Y-88758665D01*
X103975000Y-89041335D01*
X104030147Y-89318574D01*
X104138320Y-89579727D01*
X104295363Y-89814759D01*
X104495241Y-90014637D01*
X104727759Y-90170000D01*
X104495241Y-90325363D01*
X104295363Y-90525241D01*
X104138320Y-90760273D01*
X104030147Y-91021426D01*
X103975000Y-91298665D01*
X103975000Y-91581335D01*
X104030147Y-91858574D01*
X104138320Y-92119727D01*
X104295363Y-92354759D01*
X104495241Y-92554637D01*
X104727759Y-92710000D01*
X104495241Y-92865363D01*
X104295363Y-93065241D01*
X104138320Y-93300273D01*
X104030147Y-93561426D01*
X103975000Y-93838665D01*
X103975000Y-94121335D01*
X104030147Y-94398574D01*
X104138320Y-94659727D01*
X104295363Y-94894759D01*
X104495241Y-95094637D01*
X104727759Y-95250000D01*
X104495241Y-95405363D01*
X104295363Y-95605241D01*
X104138320Y-95840273D01*
X104030147Y-96101426D01*
X103975000Y-96378665D01*
X103975000Y-96661335D01*
X104011312Y-96843886D01*
X102994003Y-97861196D01*
X102964999Y-97884999D01*
X102915460Y-97945363D01*
X102870026Y-98000724D01*
X102799455Y-98132753D01*
X102799454Y-98132754D01*
X102755997Y-98276015D01*
X102745000Y-98387668D01*
X102745000Y-98387678D01*
X102741324Y-98425000D01*
X91460207Y-98425000D01*
X91441680Y-98380273D01*
X91284637Y-98145241D01*
X91084759Y-97945363D01*
X90852241Y-97790000D01*
X91084759Y-97634637D01*
X91284637Y-97434759D01*
X91441680Y-97199727D01*
X91549853Y-96938574D01*
X91605000Y-96661335D01*
X91605000Y-96378665D01*
X91549853Y-96101426D01*
X91441680Y-95840273D01*
X91284637Y-95605241D01*
X91084759Y-95405363D01*
X90852241Y-95250000D01*
X91084759Y-95094637D01*
X91284637Y-94894759D01*
X91441680Y-94659727D01*
X91549853Y-94398574D01*
X91605000Y-94121335D01*
X91605000Y-93838665D01*
X91549853Y-93561426D01*
X91441680Y-93300273D01*
X91284637Y-93065241D01*
X91084759Y-92865363D01*
X90850872Y-92709085D01*
X90911514Y-92676671D01*
X90983097Y-92432702D01*
X90170000Y-91619605D01*
X89356903Y-92432702D01*
X89428486Y-92676671D01*
X89492992Y-92707194D01*
X89490273Y-92708320D01*
X89255241Y-92865363D01*
X89055363Y-93065241D01*
X88898320Y-93300273D01*
X88790147Y-93561426D01*
X88735000Y-93838665D01*
X79425000Y-93838665D01*
X79425000Y-91510512D01*
X88729783Y-91510512D01*
X88771213Y-91790130D01*
X88866397Y-92056292D01*
X88933329Y-92181514D01*
X89177298Y-92253097D01*
X89990395Y-91440000D01*
X90349605Y-91440000D01*
X91162702Y-92253097D01*
X91406671Y-92181514D01*
X91527571Y-91926004D01*
X91596300Y-91651816D01*
X91610217Y-91369488D01*
X91568787Y-91089870D01*
X91473603Y-90823708D01*
X91406671Y-90698486D01*
X91162702Y-90626903D01*
X90349605Y-91440000D01*
X89990395Y-91440000D01*
X89177298Y-90626903D01*
X88933329Y-90698486D01*
X88812429Y-90953996D01*
X88743700Y-91228184D01*
X88729783Y-91510512D01*
X79425000Y-91510512D01*
X79425000Y-89892702D01*
X89356903Y-89892702D01*
X89428486Y-90136671D01*
X89494636Y-90167971D01*
X89428486Y-90203329D01*
X89356903Y-90447298D01*
X90170000Y-91260395D01*
X90983097Y-90447298D01*
X90911514Y-90203329D01*
X90845364Y-90172029D01*
X90911514Y-90136671D01*
X90983097Y-89892702D01*
X90170000Y-89079605D01*
X89356903Y-89892702D01*
X79425000Y-89892702D01*
X79425000Y-88970512D01*
X88729783Y-88970512D01*
X88771213Y-89250130D01*
X88866397Y-89516292D01*
X88933329Y-89641514D01*
X89177298Y-89713097D01*
X89990395Y-88900000D01*
X90349605Y-88900000D01*
X91162702Y-89713097D01*
X91406671Y-89641514D01*
X91527571Y-89386004D01*
X91596300Y-89111816D01*
X91610217Y-88829488D01*
X91568787Y-88549870D01*
X91473603Y-88283708D01*
X91406671Y-88158486D01*
X91162702Y-88086903D01*
X90349605Y-88900000D01*
X89990395Y-88900000D01*
X89177298Y-88086903D01*
X88933329Y-88158486D01*
X88812429Y-88413996D01*
X88743700Y-88688184D01*
X88729783Y-88970512D01*
X79425000Y-88970512D01*
X79425000Y-87922845D01*
X82436761Y-87922845D01*
X82604802Y-88248643D01*
X82996607Y-88449426D01*
X83420055Y-88569914D01*
X83858873Y-88605476D01*
X84296197Y-88554746D01*
X84715221Y-88419674D01*
X85035198Y-88248643D01*
X85203239Y-87922845D01*
X83820000Y-86539605D01*
X82436761Y-87922845D01*
X79425000Y-87922845D01*
X79425000Y-86398873D01*
X81574524Y-86398873D01*
X81625254Y-86836197D01*
X81760326Y-87255221D01*
X81931357Y-87575198D01*
X82257155Y-87743239D01*
X83640395Y-86360000D01*
X83999605Y-86360000D01*
X85382845Y-87743239D01*
X85708643Y-87575198D01*
X85909426Y-87183393D01*
X86029914Y-86759945D01*
X86065476Y-86321127D01*
X86014746Y-85883803D01*
X85879674Y-85464779D01*
X85708643Y-85144802D01*
X85382845Y-84976761D01*
X83999605Y-86360000D01*
X83640395Y-86360000D01*
X82257155Y-84976761D01*
X81931357Y-85144802D01*
X81730574Y-85536607D01*
X81610086Y-85960055D01*
X81574524Y-86398873D01*
X79425000Y-86398873D01*
X79425000Y-84797155D01*
X82436761Y-84797155D01*
X83820000Y-86180395D01*
X85203239Y-84797155D01*
X85035198Y-84471357D01*
X84643393Y-84270574D01*
X84219945Y-84150086D01*
X83781127Y-84114524D01*
X83343803Y-84165254D01*
X82924779Y-84300326D01*
X82604802Y-84471357D01*
X82436761Y-84797155D01*
X79425000Y-84797155D01*
X79425000Y-83020000D01*
X88731928Y-83020000D01*
X88731928Y-84620000D01*
X88744188Y-84744482D01*
X88780498Y-84864180D01*
X88839463Y-84974494D01*
X88918815Y-85071185D01*
X89015506Y-85150537D01*
X89125820Y-85209502D01*
X89245518Y-85245812D01*
X89253961Y-85246643D01*
X89055363Y-85445241D01*
X88898320Y-85680273D01*
X88790147Y-85941426D01*
X88735000Y-86218665D01*
X88735000Y-86501335D01*
X88790147Y-86778574D01*
X88898320Y-87039727D01*
X89055363Y-87274759D01*
X89255241Y-87474637D01*
X89489128Y-87630915D01*
X89428486Y-87663329D01*
X89356903Y-87907298D01*
X90170000Y-88720395D01*
X90983097Y-87907298D01*
X90911514Y-87663329D01*
X90847008Y-87632806D01*
X90849727Y-87631680D01*
X91084759Y-87474637D01*
X91284637Y-87274759D01*
X91441680Y-87039727D01*
X91549853Y-86778574D01*
X91605000Y-86501335D01*
X91605000Y-86430512D01*
X103969783Y-86430512D01*
X104011213Y-86710130D01*
X104106397Y-86976292D01*
X104173329Y-87101514D01*
X104417298Y-87173097D01*
X105230395Y-86360000D01*
X105589605Y-86360000D01*
X106402702Y-87173097D01*
X106646671Y-87101514D01*
X106767571Y-86846004D01*
X106836300Y-86571816D01*
X106850217Y-86289488D01*
X106808787Y-86009870D01*
X106713603Y-85743708D01*
X106646671Y-85618486D01*
X106402702Y-85546903D01*
X105589605Y-86360000D01*
X105230395Y-86360000D01*
X104417298Y-85546903D01*
X104173329Y-85618486D01*
X104052429Y-85873996D01*
X103983700Y-86148184D01*
X103969783Y-86430512D01*
X91605000Y-86430512D01*
X91605000Y-86218665D01*
X91549853Y-85941426D01*
X91441680Y-85680273D01*
X91284637Y-85445241D01*
X91086039Y-85246643D01*
X91094482Y-85245812D01*
X91214180Y-85209502D01*
X91324494Y-85150537D01*
X91421185Y-85071185D01*
X91500537Y-84974494D01*
X91559502Y-84864180D01*
X91595812Y-84744482D01*
X91608072Y-84620000D01*
X91608072Y-83678665D01*
X103975000Y-83678665D01*
X103975000Y-83961335D01*
X104030147Y-84238574D01*
X104138320Y-84499727D01*
X104295363Y-84734759D01*
X104495241Y-84934637D01*
X104729128Y-85090915D01*
X104668486Y-85123329D01*
X104596903Y-85367298D01*
X105410000Y-86180395D01*
X106223097Y-85367298D01*
X106151514Y-85123329D01*
X106087008Y-85092806D01*
X106089727Y-85091680D01*
X106324759Y-84934637D01*
X106524637Y-84734759D01*
X106681680Y-84499727D01*
X106697242Y-84462156D01*
X208161762Y-84462156D01*
X209545001Y-85845396D01*
X210928240Y-84462156D01*
X210760199Y-84136358D01*
X210368394Y-83935575D01*
X209944946Y-83815087D01*
X209506128Y-83779525D01*
X209068804Y-83830255D01*
X208649780Y-83965327D01*
X208329803Y-84136358D01*
X208161762Y-84462156D01*
X106697242Y-84462156D01*
X106789853Y-84238574D01*
X106845000Y-83961335D01*
X106845000Y-83678665D01*
X106789853Y-83401426D01*
X106681680Y-83140273D01*
X106524637Y-82905241D01*
X106324759Y-82705363D01*
X106089727Y-82548320D01*
X105828574Y-82440147D01*
X105551335Y-82385000D01*
X105268665Y-82385000D01*
X104991426Y-82440147D01*
X104730273Y-82548320D01*
X104495241Y-82705363D01*
X104295363Y-82905241D01*
X104138320Y-83140273D01*
X104030147Y-83401426D01*
X103975000Y-83678665D01*
X91608072Y-83678665D01*
X91608072Y-83020000D01*
X91595812Y-82895518D01*
X91559502Y-82775820D01*
X91500537Y-82665506D01*
X91421185Y-82568815D01*
X91324494Y-82489463D01*
X91214180Y-82430498D01*
X91094482Y-82394188D01*
X90970000Y-82381928D01*
X89370000Y-82381928D01*
X89245518Y-82394188D01*
X89125820Y-82430498D01*
X89015506Y-82489463D01*
X88918815Y-82568815D01*
X88839463Y-82665506D01*
X88780498Y-82775820D01*
X88744188Y-82895518D01*
X88731928Y-83020000D01*
X79425000Y-83020000D01*
X79425000Y-80695000D01*
X215215000Y-80695000D01*
X215215001Y-121235000D01*
G37*
G04 #@! TD.AperFunction*
M02*
