M48
; DRILL file {KiCad (5.1.10)-1} date 01/19/22 18:15:36
; FORMAT={-:-/ absolute / metric / decimal}
; #@! TF.CreationDate,2022-01-19T18:15:36-07:00
; #@! TF.GenerationSoftware,Kicad,Pcbnew,(5.1.10)-1
; #@! TF.FileFunction,Plated,1,2,PTH
FMAT,2
METRIC
T1C0.400
T2C1.040
T3C1.100
T4C1.470
%
G90
G05
T1
X104.14Y-115.57
X122.555Y-100.33
X122.555Y-100.33
X141.605Y-100.33
X160.655Y-100.33
T2
X117.475Y-86.36
X117.475Y-105.41
X120.015Y-86.36
X120.015Y-105.41
X136.525Y-86.36
X136.525Y-105.41
X139.065Y-86.36
X139.065Y-105.41
X155.575Y-86.36
X155.575Y-105.41
X158.115Y-86.36
X158.115Y-105.41
X174.625Y-86.36
X174.625Y-105.41
X177.165Y-86.36
X177.165Y-105.41
X193.675Y-86.36
X193.675Y-105.41
X196.215Y-86.36
X196.215Y-105.41
T3
X90.17Y-83.82
X90.17Y-86.36
X90.17Y-88.9
X90.17Y-91.44
X90.17Y-93.98
X90.17Y-96.52
X90.17Y-99.06
X90.17Y-101.6
X90.17Y-104.14
X90.17Y-106.68
X90.17Y-109.22
X90.17Y-111.76
X105.41Y-83.82
X105.41Y-86.36
X105.41Y-88.9
X105.41Y-91.44
X105.41Y-93.98
X105.41Y-96.52
X105.41Y-99.06
X105.41Y-101.6
X105.41Y-104.14
X105.41Y-106.68
X105.41Y-109.22
X105.41Y-111.76
T4
X116.205Y-96.52
X116.205Y-115.57
X122.555Y-93.98
X122.555Y-113.03
X135.255Y-96.52
X135.255Y-115.57
X141.605Y-93.98
X141.605Y-113.03
X154.305Y-96.52
X154.305Y-115.57
X160.655Y-93.98
X160.655Y-113.03
X173.355Y-96.52
X173.355Y-115.57
X179.705Y-93.98
X179.705Y-113.03
X192.405Y-96.52
X192.405Y-115.57
X198.755Y-93.98
X198.755Y-113.03
T0
M30
